SplineFontDB: 3.0
FontName: GonvilleText
FullName: Gonville Text
FamilyName: Gonville Text
Weight: Regular
Copyright: Designed by Grzegorz Pruchniakowski. This font is licensed under the SIL Open Font License (http://scripts.sil.org/OFL).\n\nThe Gonville font templates based on SMuFL 1.0 and Bravura 1.02, designed by Daniel Spreadbury at Steinberg.
Version: 2.2
ItalicAngle: 0
UnderlinePosition: -50
UnderlineWidth: 50
Ascent: 800
Descent: 200
sfntRevision: 0x00023333
LayerCount: 2
Layer: 0 0 "Back"  1
Layer: 1 0 "Zeichenebene"  0
XUID: [1021 950 32697 3275]
FSType: 0
OS2Version: 3
OS2_WeightWidthSlopeOnly: 0
OS2_UseTypoMetrics: 1
CreationTime: 1378800000
ModificationTime: 1378800000
PfmFamily: 81
TTFWeight: 400
TTFWidth: 5
LineGap: 0
VLineGap: 0
Panose: 5 6 0 0 0 0 0 0 0 0
OS2TypoAscent: 800
OS2TypoAOffset: 0
OS2TypoDescent: -200
OS2TypoDOffset: 0
OS2TypoLinegap: 200
OS2WinAscent: 1130
OS2WinAOffset: 0
OS2WinDescent: 330
OS2WinDOffset: 0
HheadAscent: 1130
HheadAOffset: 0
HheadDescent: -330
HheadDOffset: 0
OS2SubXSize: 650
OS2SubYSize: 600
OS2SubXOff: 0
OS2SubYOff: 75
OS2SupXSize: 650
OS2SupYSize: 600
OS2SupXOff: 0
OS2SupYOff: 350
OS2StrikeYSize: 50
OS2StrikeYPos: 282
OS2Vendor: 'G.P.'
OS2CodePages: 00000001.00000000
OS2UnicodeRanges: 00000000.12004000.01000000.00000000
Lookup: 4 0 1 "<1,2> Normale Ligaturen lookup 0"  {"<1,2> Normale Ligaturen lookup 0 subtable"  } [<1,2> ('DFLT' <'dflt' > ) 'liga' ('DFLT' <'dflt' > ) ]
Lookup: 4 0 1 "<1,2> Normale Ligaturen lookup 1"  {"<1,2> Normale Ligaturen lookup 1 subtable"  } [<1,2> ('DFLT' <'dflt' > ) 'liga' ('DFLT' <'dflt' > ) ]
Lookup: 4 0 1 "<1,2> Normale Ligaturen lookup 2"  {"<1,2> Normale Ligaturen lookup 2 subtable"  } [<1,2> ('DFLT' <'dflt' > ) 'liga' ('DFLT' <'dflt' > ) ]
Lookup: 4 0 1 "<1,2> Normale Ligaturen lookup 3"  {"<1,2> Normale Ligaturen lookup 3 subtable"  } [<1,2> ('DFLT' <'dflt' > ) 'liga' ('DFLT' <'dflt' > ) ]

StartChar: .notdef
Encoding: 1114112 -1 0
Width: 320
Flags: MW
HStem: 0 8<8 152 8 160> 312 8<8 152 8 8>
VStem: 0 8<8 8 8 312> 152 8<8 312 312 312>
LayerCount: 2
Fore
SplineSet
0 0 m 1
 0 320 l 1
 160 320 l 1
 160 0 l 1
 0 0 l 1
8 8 m 1
 152 8 l 1
 152 312 l 1
 8 312 l 1
 8 8 l 1
EndSplineSet
EndChar

StartChar: u02669
Encoding: 9833 9833 4
Width: 320
Flags: MW
HStem: 0 8<8 152 8 160> 312 8<8 152 8 8>
VStem: 0 8<8 8 8 312> 152 8<8 312 312 312>
LayerCount: 2
Fore
SplineSet
0 0 m 1
 0 320 l 1
 160 320 l 1
 160 0 l 1
 0 0 l 1
8 8 m 1
 152 8 l 1
 152 312 l 1
 8 312 l 1
 8 8 l 1
EndSplineSet
EndChar

StartChar: u0266A
Encoding: 9834 9834 5
Width: 320
Flags: MW
HStem: 0 8<8 152 8 160> 312 8<8 152 8 8>
VStem: 0 8<8 8 8 312> 152 8<8 312 312 312>
LayerCount: 2
Fore
SplineSet
0 0 m 1
 0 320 l 1
 160 320 l 1
 160 0 l 1
 0 0 l 1
8 8 m 1
 152 8 l 1
 152 312 l 1
 8 312 l 1
 8 8 l 1
EndSplineSet
EndChar

StartChar: u0266B
Encoding: 9835 9835 6
Width: 320
Flags: MW
HStem: 0 8<8 152 8 160> 312 8<8 152 8 8>
VStem: 0 8<8 8 8 312> 152 8<8 312 312 312>
LayerCount: 2
Fore
SplineSet
0 0 m 1
 0 320 l 1
 160 320 l 1
 160 0 l 1
 0 0 l 1
8 8 m 1
 152 8 l 1
 152 312 l 1
 8 312 l 1
 8 8 l 1
EndSplineSet
EndChar

StartChar: u0266C
Encoding: 9836 9836 7
Width: 320
Flags: MW
HStem: 0 8<8 152 8 160> 312 8<8 152 8 8>
VStem: 0 8<8 8 8 312> 152 8<8 312 312 312>
LayerCount: 2
Fore
SplineSet
0 0 m 1
 0 320 l 1
 160 320 l 1
 160 0 l 1
 0 0 l 1
8 8 m 1
 152 8 l 1
 152 312 l 1
 8 312 l 1
 8 8 l 1
EndSplineSet
EndChar

StartChar: u0266D
Encoding: 9837 9837 8
Width: 160
Flags: MW
HStem: 78 37<59.5 115>
VStem: 0 24<-90 46 86 357> 98 62<15 58.5>
LayerCount: 2
Fore
SplineSet
0 -122 m 2
 0 357 l 1
 0 357 0 368 12 368 c 0
 24 368 24 357 24 357 c 1
 24 86 l 1
 49 106 66 115 94 115 c 0
 136 115 160 87 160 50 c 0
 160 -20 100 -71 38 -117 c 0
 28 -124 17 -132 12 -132 c 0
 6 -132 0 -128 0 -122 c 2
24 46 m 1
 24 -90 l 1
 51 -66 98 -22 98 50 c 0
 98 67 90 78 69 78 c 0
 50 78 34 61 24 46 c 1
EndSplineSet
EndChar

StartChar: u0266E
Encoding: 9838 9838 9
Width: 141
Flags: MW
VStem: 0 24<-67 45 118 258> 117 24<-258 -118 -118 -118 -45 67 67 67>
LayerCount: 2
Fore
SplineSet
0 -135 m 1
 0 258 l 1
 0 258 0 270 12 270 c 0
 24 270 24 258 24 258 c 1
 24 118 l 1
 129 144 l 1
 139 144 141 135 141 135 c 1
 141 -258 l 1
 141 -258 141 -270 129 -270 c 0
 117 -270 117 -258 117 -258 c 1
 117 -118 l 1
 12 -144 l 1
 2 -144 0 -135 0 -135 c 1
24 45 m 1
 24 -67 l 1
 117 -45 l 1
 117 67 l 1
 24 45 l 1
EndSplineSet
EndChar

StartChar: u0266F
Encoding: 9839 9839 10
Width: 189
Flags: MW
VStem: 43 24<-290 -150 -150 -150 -70 51 51 51 131 270> 122 24<-270 -131 -131 -131 -51 70 70 70 150 290>
LayerCount: 2
Fore
SplineSet
0 51 m 1
 0 103 l 2
 0 113 12 118 12 118 c 1
 43 126 l 1
 43 270 l 1
 43 270 43 282 55 282 c 0
 67 282 67 270 67 270 c 1
 67 131 l 1
 122 145 l 1
 122 290 l 1
 122 290 122 301 134 301 c 0
 146 301 146 290 146 290 c 1
 146 150 l 1
 146 150 175 158 177 158 c 0
 182 158 187 157 189 150 c 1
 189 98 l 2
 189 88 177 84 177 84 c 1
 146 76 l 1
 146 -51 l 1
 146 -51 175 -43 177 -43 c 0
 182 -43 187 -44 189 -51 c 1
 189 -103 l 2
 189 -113 177 -118 177 -118 c 1
 146 -126 l 1
 146 -270 l 1
 146 -270 146 -282 134 -282 c 0
 122 -282 122 -270 122 -270 c 1
 122 -131 l 1
 67 -145 l 1
 67 -290 l 1
 67 -290 67 -301 55 -301 c 0
 43 -301 43 -290 43 -290 c 1
 43 -150 l 1
 43 -150 14 -158 12 -158 c 0
 7 -158 2 -157 0 -150 c 1
 0 -98 l 2
 0 -88 12 -84 12 -84 c 1
 43 -76 l 1
 43 51 l 1
 43 51 14 43 12 43 c 0
 7 43 2 44 0 51 c 1
67 57 m 1
 67 -70 l 1
 122 -57 l 1
 122 70 l 1
 67 57 l 1
EndSplineSet
EndChar

StartChar: uniE000
Encoding: 57344 57344 11
Width: 320
Flags: MW
HStem: 0 8<8 152 8 160> 312 8<8 152 8 8>
VStem: 0 8<8 8 8 312> 152 8<8 312 312 312>
LayerCount: 2
Fore
SplineSet
0 0 m 1
 0 320 l 1
 160 320 l 1
 160 0 l 1
 0 0 l 1
8 8 m 1
 152 8 l 1
 152 312 l 1
 8 312 l 1
 8 8 l 1
EndSplineSet
EndChar

StartChar: uniE001
Encoding: 57345 57345 12
Width: 320
Flags: MW
HStem: 0 8<8 152 8 160> 312 8<8 152 8 8>
VStem: 0 8<8 8 8 312> 152 8<8 312 312 312>
LayerCount: 2
Fore
SplineSet
0 0 m 1
 0 320 l 1
 160 320 l 1
 160 0 l 1
 0 0 l 1
8 8 m 1
 152 8 l 1
 152 312 l 1
 8 312 l 1
 8 8 l 1
EndSplineSet
EndChar

StartChar: uniE002
Encoding: 57346 57346 13
Width: 320
Flags: MW
HStem: 0 8<8 152 8 160> 312 8<8 152 8 8>
VStem: 0 8<8 8 8 312> 152 8<8 312 312 312>
LayerCount: 2
Fore
SplineSet
0 0 m 1
 0 320 l 1
 160 320 l 1
 160 0 l 1
 0 0 l 1
8 8 m 1
 152 8 l 1
 152 312 l 1
 8 312 l 1
 8 8 l 1
EndSplineSet
EndChar

StartChar: uniE003
Encoding: 57347 57347 14
Width: 331
Flags: MW
HStem: -62 79<14 82 14 97>
VStem: 0 331<-62 127 0 127>
LayerCount: 2
Fore
SplineSet
0 0 m 2
 0 9 9 17 19 17 c 0
 145 17 250 74 322 128 c 1
 322 128 325 130 327 130 c 0
 329 130 331 129 331 125 c 0
 331 100 194 -62 0 -62 c 1
 0 0 l 2
EndSplineSet
EndChar

StartChar: uniE004
Encoding: 57348 57348 15
Width: 331
Flags: MW
HStem: -17 79<14 82>
VStem: 0 331<-127 62 -127 62>
LayerCount: 2
Fore
SplineSet
0 0 m 2
 0 62 l 1
 194 62 331 -100 331 -125 c 0
 331 -129 329 -130 327 -130 c 0
 325 -130 322 -128 322 -128 c 1
 250 -74 145 -17 19 -17 c 0
 9 -17 0 -9 0 0 c 2
EndSplineSet
EndChar

StartChar: uniE005
Encoding: 57349 57349 16
Width: 331
Flags: MW
HStem: -62 79<249 317 249 331>
VStem: 0 331<-62 127>
LayerCount: 2
Fore
SplineSet
0 125 m 0
 0 129 2 130 4 130 c 0
 6 130 9 128 9 128 c 1
 81 74 186 17 312 17 c 0
 322 17 331 9 331 0 c 2
 331 -62 l 1
 137 -62 0 100 0 125 c 0
EndSplineSet
EndChar

StartChar: uniE006
Encoding: 57350 57350 17
Width: 331
Flags: MW
HStem: -17 79<249 317>
VStem: 0 331<-127 0>
LayerCount: 2
Fore
SplineSet
0 -125 m 0
 0 -100 137 62 331 62 c 1
 331 0 l 2
 331 -9 322 -17 312 -17 c 0
 186 -17 81 -74 9 -128 c 1
 9 -128 6 -130 4 -130 c 0
 2 -130 0 -129 0 -125 c 0
EndSplineSet
EndChar

StartChar: uniE007
Encoding: 57351 57351 18
Width: 320
Flags: MW
HStem: 0 8<8 152 8 160> 312 8<8 152 8 8>
VStem: 0 8<8 8 8 312> 152 8<8 312 312 312>
LayerCount: 2
Fore
SplineSet
0 0 m 1
 0 320 l 1
 160 320 l 1
 160 0 l 1
 0 0 l 1
8 8 m 1
 152 8 l 1
 152 312 l 1
 8 312 l 1
 8 8 l 1
EndSplineSet
EndChar

StartChar: uniE008
Encoding: 57352 57352 19
Width: 320
Flags: MW
HStem: 0 8<8 152 8 160> 312 8<8 152 8 8>
VStem: 0 8<8 8 8 312> 152 8<8 312 312 312>
LayerCount: 2
Fore
SplineSet
0 0 m 1
 0 320 l 1
 160 320 l 1
 160 0 l 1
 0 0 l 1
8 8 m 1
 152 8 l 1
 152 312 l 1
 8 312 l 1
 8 8 l 1
EndSplineSet
EndChar

StartChar: uniE009
Encoding: 57353 57353 20
Width: 320
Flags: MW
HStem: 0 8<8 152 8 160> 312 8<8 152 8 8>
VStem: 0 8<8 8 8 312> 152 8<8 312 312 312>
LayerCount: 2
Fore
SplineSet
0 0 m 1
 0 320 l 1
 160 320 l 1
 160 0 l 1
 0 0 l 1
8 8 m 1
 152 8 l 1
 152 312 l 1
 8 312 l 1
 8 8 l 1
EndSplineSet
EndChar

StartChar: uniE00A
Encoding: 57354 57354 21
Width: 320
Flags: MW
HStem: 0 8<8 152 8 160> 312 8<8 152 8 8>
VStem: 0 8<8 8 8 312> 152 8<8 312 312 312>
LayerCount: 2
Fore
SplineSet
0 0 m 1
 0 320 l 1
 160 320 l 1
 160 0 l 1
 0 0 l 1
8 8 m 1
 152 8 l 1
 152 312 l 1
 8 312 l 1
 8 8 l 1
EndSplineSet
EndChar

StartChar: uniE00B
Encoding: 57355 57355 22
Width: 320
Flags: MW
HStem: 0 8<8 152 8 160> 312 8<8 152 8 8>
VStem: 0 8<8 8 8 312> 152 8<8 312 312 312>
LayerCount: 2
Fore
SplineSet
0 0 m 1
 0 320 l 1
 160 320 l 1
 160 0 l 1
 0 0 l 1
8 8 m 1
 152 8 l 1
 152 312 l 1
 8 312 l 1
 8 8 l 1
EndSplineSet
EndChar

StartChar: uniE00C
Encoding: 57356 57356 23
Width: 320
Flags: MW
HStem: 0 8<8 152 8 160> 312 8<8 152 8 8>
VStem: 0 8<8 8 8 312> 152 8<8 312 312 312>
LayerCount: 2
Fore
SplineSet
0 0 m 1
 0 320 l 1
 160 320 l 1
 160 0 l 1
 0 0 l 1
8 8 m 1
 152 8 l 1
 152 312 l 1
 8 312 l 1
 8 8 l 1
EndSplineSet
EndChar

StartChar: uniE00D
Encoding: 57357 57357 24
Width: 320
Flags: MW
HStem: 0 8<8 152 8 160> 312 8<8 152 8 8>
VStem: 0 8<8 8 8 312> 152 8<8 312 312 312>
LayerCount: 2
Fore
SplineSet
0 0 m 1
 0 320 l 1
 160 320 l 1
 160 0 l 1
 0 0 l 1
8 8 m 1
 152 8 l 1
 152 312 l 1
 8 312 l 1
 8 8 l 1
EndSplineSet
EndChar

StartChar: uniE010
Encoding: 57360 57360 25
Width: 320
Flags: MW
HStem: 0 8<8 152 8 160> 312 8<8 152 8 8>
VStem: 0 8<8 8 8 312> 152 8<8 312 312 312>
LayerCount: 2
Fore
SplineSet
0 0 m 1
 0 320 l 1
 160 320 l 1
 160 0 l 1
 0 0 l 1
8 8 m 1
 152 8 l 1
 152 312 l 1
 8 312 l 1
 8 8 l 1
EndSplineSet
EndChar

StartChar: uniE011
Encoding: 57361 57361 26
Width: 320
Flags: MW
HStem: 0 8<8 152 8 160> 312 8<8 152 8 8>
VStem: 0 8<8 8 8 312> 152 8<8 312 312 312>
LayerCount: 2
Fore
SplineSet
0 0 m 1
 0 320 l 1
 160 320 l 1
 160 0 l 1
 0 0 l 1
8 8 m 1
 152 8 l 1
 152 312 l 1
 8 312 l 1
 8 8 l 1
EndSplineSet
EndChar

StartChar: uniE012
Encoding: 57362 57362 27
Width: 320
Flags: MW
HStem: 0 8<8 152 8 160> 312 8<8 152 8 8>
VStem: 0 8<8 8 8 312> 152 8<8 312 312 312>
LayerCount: 2
Fore
SplineSet
0 0 m 1
 0 320 l 1
 160 320 l 1
 160 0 l 1
 0 0 l 1
8 8 m 1
 152 8 l 1
 152 312 l 1
 8 312 l 1
 8 8 l 1
EndSplineSet
EndChar

StartChar: uniE013
Encoding: 57363 57363 28
Width: 320
Flags: MW
HStem: 0 8<8 152 8 160> 312 8<8 152 8 8>
VStem: 0 8<8 8 8 312> 152 8<8 312 312 312>
LayerCount: 2
Fore
SplineSet
0 0 m 1
 0 320 l 1
 160 320 l 1
 160 0 l 1
 0 0 l 1
8 8 m 1
 152 8 l 1
 152 312 l 1
 8 312 l 1
 8 8 l 1
EndSplineSet
EndChar

StartChar: uniE014
Encoding: 57364 57364 29
Width: 320
Flags: MW
HStem: 0 8<8 152 8 160> 312 8<8 152 8 8>
VStem: 0 8<8 8 8 312> 152 8<8 312 312 312>
LayerCount: 2
Fore
SplineSet
0 0 m 1
 0 320 l 1
 160 320 l 1
 160 0 l 1
 0 0 l 1
8 8 m 1
 152 8 l 1
 152 312 l 1
 8 312 l 1
 8 8 l 1
EndSplineSet
EndChar

StartChar: uniE015
Encoding: 57365 57365 30
Width: 320
Flags: MW
HStem: 0 8<8 152 8 160> 312 8<8 152 8 8>
VStem: 0 8<8 8 8 312> 152 8<8 312 312 312>
LayerCount: 2
Fore
SplineSet
0 0 m 1
 0 320 l 1
 160 320 l 1
 160 0 l 1
 0 0 l 1
8 8 m 1
 152 8 l 1
 152 312 l 1
 8 312 l 1
 8 8 l 1
EndSplineSet
EndChar

StartChar: uniE016
Encoding: 57366 57366 31
Width: 320
Flags: MW
HStem: 0 8<8 152 8 160> 312 8<8 152 8 8>
VStem: 0 8<8 8 8 312> 152 8<8 312 312 312>
LayerCount: 2
Fore
SplineSet
0 0 m 1
 0 320 l 1
 160 320 l 1
 160 0 l 1
 0 0 l 1
8 8 m 1
 152 8 l 1
 152 312 l 1
 8 312 l 1
 8 8 l 1
EndSplineSet
EndChar

StartChar: uniE017
Encoding: 57367 57367 32
Width: 320
Flags: MW
HStem: 0 8<8 152 8 160> 312 8<8 152 8 8>
VStem: 0 8<8 8 8 312> 152 8<8 312 312 312>
LayerCount: 2
Fore
SplineSet
0 0 m 1
 0 320 l 1
 160 320 l 1
 160 0 l 1
 0 0 l 1
8 8 m 1
 152 8 l 1
 152 312 l 1
 8 312 l 1
 8 8 l 1
EndSplineSet
EndChar

StartChar: uniE018
Encoding: 57368 57368 33
Width: 320
Flags: MW
HStem: 0 8<8 152 8 160> 312 8<8 152 8 8>
VStem: 0 8<8 8 8 312> 152 8<8 312 312 312>
LayerCount: 2
Fore
SplineSet
0 0 m 1
 0 320 l 1
 160 320 l 1
 160 0 l 1
 0 0 l 1
8 8 m 1
 152 8 l 1
 152 312 l 1
 8 312 l 1
 8 8 l 1
EndSplineSet
EndChar

StartChar: uniE019
Encoding: 57369 57369 34
Width: 320
Flags: MW
HStem: 0 8<8 152 8 160> 312 8<8 152 8 8>
VStem: 0 8<8 8 8 312> 152 8<8 312 312 312>
LayerCount: 2
Fore
SplineSet
0 0 m 1
 0 320 l 1
 160 320 l 1
 160 0 l 1
 0 0 l 1
8 8 m 1
 152 8 l 1
 152 312 l 1
 8 312 l 1
 8 8 l 1
EndSplineSet
EndChar

StartChar: uniE01A
Encoding: 57370 57370 35
Width: 320
Flags: MW
HStem: 0 8<8 152 8 160> 312 8<8 152 8 8>
VStem: 0 8<8 8 8 312> 152 8<8 312 312 312>
LayerCount: 2
Fore
SplineSet
0 0 m 1
 0 320 l 1
 160 320 l 1
 160 0 l 1
 0 0 l 1
8 8 m 1
 152 8 l 1
 152 312 l 1
 8 312 l 1
 8 8 l 1
EndSplineSet
EndChar

StartChar: uniE01B
Encoding: 57371 57371 36
Width: 320
Flags: MW
HStem: 0 8<8 152 8 160> 312 8<8 152 8 8>
VStem: 0 8<8 8 8 312> 152 8<8 312 312 312>
LayerCount: 2
Fore
SplineSet
0 0 m 1
 0 320 l 1
 160 320 l 1
 160 0 l 1
 0 0 l 1
8 8 m 1
 152 8 l 1
 152 312 l 1
 8 312 l 1
 8 8 l 1
EndSplineSet
EndChar

StartChar: uniE01C
Encoding: 57372 57372 37
Width: 320
Flags: MW
HStem: 0 8<8 152 8 160> 312 8<8 152 8 8>
VStem: 0 8<8 8 8 312> 152 8<8 312 312 312>
LayerCount: 2
Fore
SplineSet
0 0 m 1
 0 320 l 1
 160 320 l 1
 160 0 l 1
 0 0 l 1
8 8 m 1
 152 8 l 1
 152 312 l 1
 8 312 l 1
 8 8 l 1
EndSplineSet
EndChar

StartChar: uniE01D
Encoding: 57373 57373 38
Width: 320
Flags: MW
HStem: 0 8<8 152 8 160> 312 8<8 152 8 8>
VStem: 0 8<8 8 8 312> 152 8<8 312 312 312>
LayerCount: 2
Fore
SplineSet
0 0 m 1
 0 320 l 1
 160 320 l 1
 160 0 l 1
 0 0 l 1
8 8 m 1
 152 8 l 1
 152 312 l 1
 8 312 l 1
 8 8 l 1
EndSplineSet
EndChar

StartChar: uniE01E
Encoding: 57374 57374 39
Width: 320
Flags: MW
HStem: 0 8<8 152 8 160> 312 8<8 152 8 8>
VStem: 0 8<8 8 8 312> 152 8<8 312 312 312>
LayerCount: 2
Fore
SplineSet
0 0 m 1
 0 320 l 1
 160 320 l 1
 160 0 l 1
 0 0 l 1
8 8 m 1
 152 8 l 1
 152 312 l 1
 8 312 l 1
 8 8 l 1
EndSplineSet
EndChar

StartChar: uniE01F
Encoding: 57375 57375 40
Width: 320
Flags: MW
HStem: 0 8<8 152 8 160> 312 8<8 152 8 8>
VStem: 0 8<8 8 8 312> 152 8<8 312 312 312>
LayerCount: 2
Fore
SplineSet
0 0 m 1
 0 320 l 1
 160 320 l 1
 160 0 l 1
 0 0 l 1
8 8 m 1
 152 8 l 1
 152 312 l 1
 8 312 l 1
 8 8 l 1
EndSplineSet
EndChar

StartChar: uniE020
Encoding: 57376 57376 41
Width: 320
Flags: MW
HStem: 0 8<8 152 8 160> 312 8<8 152 8 8>
VStem: 0 8<8 8 8 312> 152 8<8 312 312 312>
LayerCount: 2
Fore
SplineSet
0 0 m 1
 0 320 l 1
 160 320 l 1
 160 0 l 1
 0 0 l 1
8 8 m 1
 152 8 l 1
 152 312 l 1
 8 312 l 1
 8 8 l 1
EndSplineSet
EndChar

StartChar: uniE021
Encoding: 57377 57377 42
Width: 320
Flags: MW
HStem: 0 8<8 152 8 160> 312 8<8 152 8 8>
VStem: 0 8<8 8 8 312> 152 8<8 312 312 312>
LayerCount: 2
Fore
SplineSet
0 0 m 1
 0 320 l 1
 160 320 l 1
 160 0 l 1
 0 0 l 1
8 8 m 1
 152 8 l 1
 152 312 l 1
 8 312 l 1
 8 8 l 1
EndSplineSet
EndChar

StartChar: uniE022
Encoding: 57378 57378 43
Width: 320
Flags: MW
HStem: 0 8<8 152 8 160> 312 8<8 152 8 8>
VStem: 0 8<8 8 8 312> 152 8<8 312 312 312>
LayerCount: 2
Fore
SplineSet
0 0 m 1
 0 320 l 1
 160 320 l 1
 160 0 l 1
 0 0 l 1
8 8 m 1
 152 8 l 1
 152 312 l 1
 8 312 l 1
 8 8 l 1
EndSplineSet
EndChar

StartChar: uniE023
Encoding: 57379 57379 44
Width: 320
Flags: MW
HStem: 0 8<8 152 8 160> 312 8<8 152 8 8>
VStem: 0 8<8 8 8 312> 152 8<8 312 312 312>
LayerCount: 2
Fore
SplineSet
0 0 m 1
 0 320 l 1
 160 320 l 1
 160 0 l 1
 0 0 l 1
8 8 m 1
 152 8 l 1
 152 312 l 1
 8 312 l 1
 8 8 l 1
EndSplineSet
EndChar

StartChar: uniE024
Encoding: 57380 57380 45
Width: 320
Flags: MW
HStem: 0 8<8 152 8 160> 312 8<8 152 8 8>
VStem: 0 8<8 8 8 312> 152 8<8 312 312 312>
LayerCount: 2
Fore
SplineSet
0 0 m 1
 0 320 l 1
 160 320 l 1
 160 0 l 1
 0 0 l 1
8 8 m 1
 152 8 l 1
 152 312 l 1
 8 312 l 1
 8 8 l 1
EndSplineSet
EndChar

StartChar: uniE030
Encoding: 57392 57392 46
Width: 320
Flags: MW
HStem: 0 8<8 152 8 160> 312 8<8 152 8 8>
VStem: 0 8<8 8 8 312> 152 8<8 312 312 312>
LayerCount: 2
Fore
SplineSet
0 0 m 1
 0 320 l 1
 160 320 l 1
 160 0 l 1
 0 0 l 1
8 8 m 1
 152 8 l 1
 152 312 l 1
 8 312 l 1
 8 8 l 1
EndSplineSet
EndChar

StartChar: uniE031
Encoding: 57393 57393 47
Width: 320
Flags: MW
HStem: 0 8<8 152 8 160> 312 8<8 152 8 8>
VStem: 0 8<8 8 8 312> 152 8<8 312 312 312>
LayerCount: 2
Fore
SplineSet
0 0 m 1
 0 320 l 1
 160 320 l 1
 160 0 l 1
 0 0 l 1
8 8 m 1
 152 8 l 1
 152 312 l 1
 8 312 l 1
 8 8 l 1
EndSplineSet
EndChar

StartChar: uniE032
Encoding: 57394 57394 48
Width: 320
Flags: MW
HStem: 0 8<8 152 8 160> 312 8<8 152 8 8>
VStem: 0 8<8 8 8 312> 152 8<8 312 312 312>
LayerCount: 2
Fore
SplineSet
0 0 m 1
 0 320 l 1
 160 320 l 1
 160 0 l 1
 0 0 l 1
8 8 m 1
 152 8 l 1
 152 312 l 1
 8 312 l 1
 8 8 l 1
EndSplineSet
EndChar

StartChar: uniE033
Encoding: 57395 57395 49
Width: 320
Flags: MW
HStem: 0 8<8 152 8 160> 312 8<8 152 8 8>
VStem: 0 8<8 8 8 312> 152 8<8 312 312 312>
LayerCount: 2
Fore
SplineSet
0 0 m 1
 0 320 l 1
 160 320 l 1
 160 0 l 1
 0 0 l 1
8 8 m 1
 152 8 l 1
 152 312 l 1
 8 312 l 1
 8 8 l 1
EndSplineSet
EndChar

StartChar: uniE034
Encoding: 57396 57396 50
Width: 320
Flags: MW
HStem: 0 8<8 152 8 160> 312 8<8 152 8 8>
VStem: 0 8<8 8 8 312> 152 8<8 312 312 312>
LayerCount: 2
Fore
SplineSet
0 0 m 1
 0 320 l 1
 160 320 l 1
 160 0 l 1
 0 0 l 1
8 8 m 1
 152 8 l 1
 152 312 l 1
 8 312 l 1
 8 8 l 1
EndSplineSet
EndChar

StartChar: uniE035
Encoding: 57397 57397 51
Width: 320
Flags: MW
HStem: 0 8<8 152 8 160> 312 8<8 152 8 8>
VStem: 0 8<8 8 8 312> 152 8<8 312 312 312>
LayerCount: 2
Fore
SplineSet
0 0 m 1
 0 320 l 1
 160 320 l 1
 160 0 l 1
 0 0 l 1
8 8 m 1
 152 8 l 1
 152 312 l 1
 8 312 l 1
 8 8 l 1
EndSplineSet
EndChar

StartChar: uniE036
Encoding: 57398 57398 52
Width: 320
Flags: MW
HStem: 0 8<8 152 8 160> 312 8<8 152 8 8>
VStem: 0 8<8 8 8 312> 152 8<8 312 312 312>
LayerCount: 2
Fore
SplineSet
0 0 m 1
 0 320 l 1
 160 320 l 1
 160 0 l 1
 0 0 l 1
8 8 m 1
 152 8 l 1
 152 312 l 1
 8 312 l 1
 8 8 l 1
EndSplineSet
EndChar

StartChar: uniE037
Encoding: 57399 57399 53
Width: 320
Flags: MW
HStem: 0 8<8 152 8 160> 312 8<8 152 8 8>
VStem: 0 8<8 8 8 312> 152 8<8 312 312 312>
LayerCount: 2
Fore
SplineSet
0 0 m 1
 0 320 l 1
 160 320 l 1
 160 0 l 1
 0 0 l 1
8 8 m 1
 152 8 l 1
 152 312 l 1
 8 312 l 1
 8 8 l 1
EndSplineSet
EndChar

StartChar: uniE038
Encoding: 57400 57400 54
Width: 320
Flags: MW
HStem: 0 8<8 152 8 160> 312 8<8 152 8 8>
VStem: 0 8<8 8 8 312> 152 8<8 312 312 312>
LayerCount: 2
Fore
SplineSet
0 0 m 1
 0 320 l 1
 160 320 l 1
 160 0 l 1
 0 0 l 1
8 8 m 1
 152 8 l 1
 152 312 l 1
 8 312 l 1
 8 8 l 1
EndSplineSet
EndChar

StartChar: uniE039
Encoding: 57401 57401 55
Width: 320
Flags: MW
HStem: 0 8<8 152 8 160> 312 8<8 152 8 8>
VStem: 0 8<8 8 8 312> 152 8<8 312 312 312>
LayerCount: 2
Fore
SplineSet
0 0 m 1
 0 320 l 1
 160 320 l 1
 160 0 l 1
 0 0 l 1
8 8 m 1
 152 8 l 1
 152 312 l 1
 8 312 l 1
 8 8 l 1
EndSplineSet
EndChar

StartChar: uniE040
Encoding: 57408 57408 56
Width: 320
Flags: MW
HStem: 0 8<8 152 8 160> 312 8<8 152 8 8>
VStem: 0 8<8 8 8 312> 152 8<8 312 312 312>
LayerCount: 2
Fore
SplineSet
0 0 m 1
 0 320 l 1
 160 320 l 1
 160 0 l 1
 0 0 l 1
8 8 m 1
 152 8 l 1
 152 312 l 1
 8 312 l 1
 8 8 l 1
EndSplineSet
EndChar

StartChar: uniE041
Encoding: 57409 57409 57
Width: 320
Flags: MW
HStem: 0 8<8 152 8 160> 312 8<8 152 8 8>
VStem: 0 8<8 8 8 312> 152 8<8 312 312 312>
LayerCount: 2
Fore
SplineSet
0 0 m 1
 0 320 l 1
 160 320 l 1
 160 0 l 1
 0 0 l 1
8 8 m 1
 152 8 l 1
 152 312 l 1
 8 312 l 1
 8 8 l 1
EndSplineSet
EndChar

StartChar: uniE042
Encoding: 57410 57410 58
Width: 320
Flags: MW
HStem: 0 8<8 152 8 160> 312 8<8 152 8 8>
VStem: 0 8<8 8 8 312> 152 8<8 312 312 312>
LayerCount: 2
Fore
SplineSet
0 0 m 1
 0 320 l 1
 160 320 l 1
 160 0 l 1
 0 0 l 1
8 8 m 1
 152 8 l 1
 152 312 l 1
 8 312 l 1
 8 8 l 1
EndSplineSet
EndChar

StartChar: uniE043
Encoding: 57411 57411 59
Width: 80
Flags: MW
HStem: 256 80<29 51> 456 80<29 51>
VStem: 0 80<285 307 485 507>
LayerCount: 2
Fore
SplineSet
0 296 m 0
 0 318 18 336 40 336 c 0
 62 336 80 318 80 296 c 0
 80 274 62 256 40 256 c 0
 18 256 0 274 0 296 c 0
0 496 m 0
 0 518 18 536 40 536 c 0
 62 536 80 518 80 496 c 0
 80 474 62 456 40 456 c 0
 18 456 0 474 0 496 c 0
EndSplineSet
EndChar

StartChar: uniE044
Encoding: 57412 57412 60
Width: 80
Flags: MW
HStem: 60 80<29 51>
VStem: 0 80<89 111>
LayerCount: 2
Fore
SplineSet
0 100 m 0
 0 122 18 140 40 140 c 0
 62 140 80 122 80 100 c 0
 80 78 62 60 40 60 c 0
 18 60 0 78 0 100 c 0
EndSplineSet
EndChar

StartChar: uniE045
Encoding: 57413 57413 61
Width: 320
Flags: MW
HStem: 0 8<8 152 8 160> 312 8<8 152 8 8>
VStem: 0 8<8 8 8 312> 152 8<8 312 312 312>
LayerCount: 2
Fore
SplineSet
0 0 m 1
 0 320 l 1
 160 320 l 1
 160 0 l 1
 0 0 l 1
8 8 m 1
 152 8 l 1
 152 312 l 1
 8 312 l 1
 8 8 l 1
EndSplineSet
EndChar

StartChar: uniE046
Encoding: 57414 57414 62
Width: 320
Flags: MW
HStem: 0 8<8 152 8 160> 312 8<8 152 8 8>
VStem: 0 8<8 8 8 312> 152 8<8 312 312 312>
LayerCount: 2
Fore
SplineSet
0 0 m 1
 0 320 l 1
 160 320 l 1
 160 0 l 1
 0 0 l 1
8 8 m 1
 152 8 l 1
 152 312 l 1
 8 312 l 1
 8 8 l 1
EndSplineSet
EndChar

StartChar: uniE047
Encoding: 57415 57415 63
Width: 389
Flags: MW
HStem: -278 45<283.5 294.5> -104 74<27 47> 30 74<342 362> 233 45<94.5 105.5>
VStem: 0 74<-77 -57> 29 32<165.5 194> 142 73 174 72 315 74<57 77> 328 32<-194 -165.5>
LayerCount: 2
Fore
SplineSet
0 -67 m 0xf8
 0 -47 17 -30 37 -30 c 0
 57 -30 74 -47 74 -67 c 0
 74 -87 57 -104 37 -104 c 0
 17 -104 0 -87 0 -67 c 0xf8
20 -264 m 0
 20 -258 23 -253 26 -248 c 2
 161 -25 l 1
 97 12 29 80 29 164 c 0
 29 224 63 278 126 278 c 0
 164 278 215 250 215 202 c 0
 215 181 201 166 179 166 c 0
 161 166 149 174 142 196 c 0xf640
 135 218 115 233 96 233 c 0
 75 233 61 218 61 197 c 0
 61 134 134 74 200 40 c 1
 335 264 l 2
 341 274 346 278 353 278 c 0
 363 278 369 273 369 264 c 0
 369 258 365 253 362 248 c 2
 228 25 l 1
 292 -12 360 -80 360 -164 c 0
 360 -224 326 -278 263 -278 c 0
 225 -278 174 -250 174 -202 c 0
 174 -181 188 -166 210 -166 c 0
 228 -166 239 -174 246 -196 c 0
 253 -218 274 -233 293 -233 c 0
 314 -233 328 -218 328 -197 c 0xf540
 328 -134 255 -74 189 -40 c 1
 54 -264 l 2
 48 -274 43 -278 36 -278 c 0
 26 -278 20 -273 20 -264 c 0
315 67 m 0xf080
 315 87 332 104 352 104 c 0
 372 104 389 87 389 67 c 0
 389 47 372 30 352 30 c 0
 332 30 315 47 315 67 c 0xf080
EndSplineSet
EndChar

StartChar: uniE048
Encoding: 57416 57416 64
Width: 371
Flags: MW
HStem: -15 30<114 170 114 170 202 257>
VStem: 53 61<-59 -15 -15 59> 170 32<-210 -173 -210 -173 -144 -15 15 144 173 210> 257 61<-59 -15 -59 15>
LayerCount: 2
Fore
SplineSet
16 -16 m 1
 16 -16 0 -16 0 0 c 0
 0 16 16 16 16 16 c 1
 53 16 l 1
 53 102 112 167 170 173 c 1
 170 210 l 1
 170 210 170 226 186 226 c 0
 202 226 202 210 202 210 c 1
 202 173 l 1
 260 167 318 102 318 16 c 1
 355 16 l 1
 355 16 371 16 371 0 c 0
 371 -16 355 -16 355 -16 c 1
 318 -16 l 1
 318 -102 260 -167 202 -173 c 1
 202 -210 l 1
 202 -210 202 -226 186 -226 c 0
 170 -226 170 -210 170 -210 c 1
 170 -173 l 1
 112 -167 53 -102 53 -16 c 1
 16 -16 l 1
114 15 m 1
 170 15 l 1
 170 144 l 1
 138 125 117 67 114 15 c 1
114 -15 m 1
 117 -67 138 -125 170 -144 c 1
 170 -15 l 1
 114 -15 l 1
202 15 m 1
 257 15 l 1
 254 67 234 125 202 144 c 1
 202 15 l 1
202 -15 m 1
 202 -144 l 1
 234 -125 254 -67 257 -15 c 1
 202 -15 l 1
EndSplineSet
EndChar

StartChar: uniE049
Encoding: 57417 57417 65
Width: 371
Flags: MW
HStem: -173 26<157.5 170 157.5 170 202 214.5> -16 32<16 53 16 53 114 170 202 258 318 355> 147 26<157.5 170 202 214.5>
VStem: 59 59 170 32<-210 -173 -210 -173 -147 -16 16 147 173 210> 253 59
CounterMasks: 1 e0
LayerCount: 2
Fore
SplineSet
16 -16 m 1
 16 -16 0 -16 0 0 c 0
 0 16 16 16 16 16 c 1
 53 16 l 1
 53 49 57 123 59 141 c 0
 61 159 65 161 85 165 c 0
 105 169 140 173 170 173 c 1
 170 210 l 1
 170 210 170 226 186 226 c 0
 202 226 202 210 202 210 c 1
 202 173 l 1
 232 173 266 169 286 165 c 0
 306 161 310 159 312 141 c 0
 314 123 318 49 318 16 c 1
 355 16 l 1
 355 16 371 16 371 0 c 0
 371 -16 355 -16 355 -16 c 1
 318 -16 l 1
 318 -49 314 -123 312 -141 c 0
 310 -159 306 -161 286 -165 c 0
 266 -169 232 -173 202 -173 c 1
 202 -210 l 1
 202 -210 202 -226 186 -226 c 0
 170 -226 170 -210 170 -210 c 1
 170 -173 l 1
 140 -173 105 -169 85 -165 c 0
 65 -161 61 -159 59 -141 c 0
 57 -123 53 -49 53 -16 c 1
 16 -16 l 1
114 -16 m 1
 114 -68 114 -106 118 -126 c 0
 122 -146 145 -147 170 -147 c 1
 170 -16 l 1
 114 -16 l 1
114 16 m 1
 170 16 l 1
 170 147 l 1
 145 147 122 146 118 126 c 0
 114 106 114 68 114 16 c 1
202 -16 m 1
 202 -147 l 1
 227 -147 249 -146 253 -126 c 0
 257 -106 258 -68 258 -16 c 1
 202 -16 l 1
202 16 m 1
 258 16 l 1
 258 68 257 106 253 126 c 0
 249 146 227 147 202 147 c 1
 202 16 l 1
EndSplineSet
EndChar

StartChar: uniE04A
Encoding: 57418 57418 66
Width: 252
Flags: MW
HStem: -242 21<124.5 162> 541 21<90 127.5>
VStem: 0 17<77.5 80.5 211.5 213.5 344.5 347.5> 3 29<476 478> 11 57<-159.5 -152.5 -180 -150> 184 57<472.5 479.5 470 500> 220 29<-158 -156> 235 17<-27.5 -24.5 106.5 108.5 239.5 242.5>
LayerCount: 2
Fore
SplineSet
0 67 m 0xe2
 0 94 17 117 36 127 c 1
 14 148 0 174 0 200 c 0
 0 227 17 251 36 261 c 1
 14 282 0 308 0 334 c 0xe2
 0 361 17 384 36 394 c 1
 15 415 3 442 3 469 c 0
 3 487 8 504 19 520 c 0
 38 549 73 562 107 562 c 0
 165 562 207 533 236 491 c 0
 239 486 241 482 241 477 c 0
 241 463 230 450 214 450 c 0
 195 450 184 465 184 480 c 0xd4
 184 520 156 541 99 541 c 0
 66 541 32 525 32 489 c 0
 32 463 55 441 79 424 c 2
 201 338 l 2
 231 317 252 284 252 253 c 0
 252 226 235 203 216 193 c 1
 238 172 252 146 252 120 c 0
 252 93 235 69 216 59 c 1
 238 38 252 12 252 -14 c 0xd1
 252 -41 235 -64 216 -74 c 1
 237 -95 249 -122 249 -149 c 0
 249 -167 244 -184 233 -200 c 0
 214 -229 179 -242 145 -242 c 0
 87 -242 45 -213 16 -171 c 0
 13 -166 11 -162 11 -157 c 0
 11 -143 22 -130 38 -130 c 0
 57 -130 68 -145 68 -160 c 0xca
 68 -200 96 -221 153 -221 c 0
 186 -221 220 -205 220 -169 c 0
 220 -143 197 -121 173 -104 c 2
 51 -18 l 2
 21 3 0 36 0 67 c 0xe2
17 88 m 0
 17 67 50 44 79 24 c 2
 141 -20 l 2
 165 -37 193 -56 212 -56 c 0
 223 -56 235 -48 235 -35 c 0xe1
 235 -14 202 10 173 30 c 2
 112 73 l 2
 88 91 60 110 40 110 c 0
 29 110 17 101 17 88 c 0
17 222 m 0
 17 201 50 177 79 157 c 2
 145 110 l 2
 168 94 193 77 212 77 c 0
 223 77 235 85 235 98 c 0
 235 119 202 143 173 163 c 2
 107 210 l 2
 84 226 59 243 40 243 c 0
 29 243 17 235 17 222 c 0
17 355 m 0
 17 334 50 310 79 290 c 2
 140 247 l 2
 164 229 192 210 212 210 c 0
 223 210 235 219 235 232 c 0
 235 253 202 276 173 296 c 2
 111 340 l 2
 87 357 59 376 40 376 c 0
 29 376 17 368 17 355 c 0
EndSplineSet
EndChar

StartChar: uniE04B
Encoding: 57419 57419 67
Width: 320
Flags: MW
HStem: 0 8<8 152 8 160> 312 8<8 152 8 8>
VStem: 0 8<8 8 8 312> 152 8<8 312 312 312>
LayerCount: 2
Fore
SplineSet
0 0 m 1
 0 320 l 1
 160 320 l 1
 160 0 l 1
 0 0 l 1
8 8 m 1
 152 8 l 1
 152 312 l 1
 8 312 l 1
 8 8 l 1
EndSplineSet
EndChar

StartChar: uniE04C
Encoding: 57420 57420 68
Width: 320
Flags: MW
HStem: 0 8<8 152 8 160> 312 8<8 152 8 8>
VStem: 0 8<8 8 8 312> 152 8<8 312 312 312>
LayerCount: 2
Fore
SplineSet
0 0 m 1
 0 320 l 1
 160 320 l 1
 160 0 l 1
 0 0 l 1
8 8 m 1
 152 8 l 1
 152 312 l 1
 8 312 l 1
 8 8 l 1
EndSplineSet
EndChar

StartChar: uniE04D
Encoding: 57421 57421 69
Width: 320
Flags: MW
HStem: 0 8<8 152 8 160> 312 8<8 152 8 8>
VStem: 0 8<8 8 8 312> 152 8<8 312 312 312>
LayerCount: 2
Fore
SplineSet
0 0 m 1
 0 320 l 1
 160 320 l 1
 160 0 l 1
 0 0 l 1
8 8 m 1
 152 8 l 1
 152 312 l 1
 8 312 l 1
 8 8 l 1
EndSplineSet
EndChar

StartChar: uniE050
Encoding: 57424 57424 70
Width: 501
Flags: MW
HStem: -506 26<218 266 218 276> -197 21<223.5 285.5 223.5 286> 120 84<315 359> 749 115<286.5 294.5 286 335.5>
VStem: 0 75<7.5 70 -24 153> 82 161<-407 -363.5 -407 -363.5> 142 56<7.5 35 -2.5 74.5> 174 36<599 614 560.5 661> 358 41<644.5 658.5 560 704> 364 26<-377 -315 -381.5 -313.5> 450 51<-30 24>
LayerCount: 2
Fore
SplineSet
0 82 m 0xfc60
 0 224 109 341 208 429 c 1
 208 429 174 572 174 626 c 0
 174 696 200 764 229 802 c 0
 258 840 281 864 291 864 c 0
 298 864 309 857 321 843 c 0
 373 781 399 697 399 620 c 0xf9a0
 399 500 332 417 254 342 c 1
 284 202 l 1
 293 204 301 204 310 204 c 0
 420 204 501 113 501 12 c 0
 501 -72 447 -147 365 -180 c 1
 365 -180 390 -297 390 -333 c 0
 390 -430 325 -506 227 -506 c 0
 169 -506 82 -474 82 -386 c 0
 82 -341 117 -305 162 -305 c 0
 207 -305 243 -341 243 -386 c 0
 243 -428 212 -463 170 -466 c 1
 181 -476 209 -480 227 -480 c 0
 305 -480 364 -421 364 -333 c 0
 364 -294 339 -189 339 -189 c 1
 319 -195 297 -197 275 -197 c 0
 125 -197 0 -67 0 82 c 0xfc60
75 39 m 0
 75 -87 172 -176 275 -176 c 0
 296 -176 316 -174 334 -168 c 1
 275 113 l 1
 229 97 198 56 198 14 c 0
 198 -19 214 -56 244 -74 c 0
 248 -76 251 -81 251 -86 c 0
 251 -92 245 -98 239 -98 c 0
 237 -98 233 -96 233 -96 c 1
 180 -73 142 -27 142 42 c 0xfa20
 142 107 187 174 258 196 c 1
 231 320 l 1
 109 202 75 101 75 39 c 0
210 578 m 0xf9a0
 210 543 231 450 231 450 c 1
 295 512 358 602 358 687 c 0
 358 721 352 749 319 749 c 0
 254 749 210 650 210 578 c 0xf9a0
302 119 m 1
 360 -158 l 1
 410 -134 450 -74 450 -12 c 0
 450 60 400 120 318 120 c 0
 312 120 308 120 302 119 c 1
EndSplineSet
EndChar

StartChar: uniE051
Encoding: 57425 57425 71
Width: 501
Flags: MW
HStem: -702 13<293 307.5 292 327.5> -590 16<297.5 302.5> -553 38<306 320 306 326.5> -530 20<162 162 210 210> -506 26<166 266 218 266 218 276 207 266 258.5 262> -197 21<223.5 285.5 223.5 286> 120 84<315 359> 749 115<286.5 294.5 286 335.5>
VStem: 0 75<7.5 70 -24 153> 82 161<-407 -363.5> 142 56<7.5 35 -2.5 74.5> 162 48<-663 -550 -550 -550> 174 36<599 614> 243 51<-665 -653 -665 -653> 250 12<-596.5 -585> 255 9 331 47<-651.5 -622.5> 358 41<644.5 658.5 560 704> 364 26<-377 -315 -381.5 -313.5> 450 51<-30 24>
LayerCount: 2
Fore
SplineSet
0 82 m 0xcfc030
 0 224 109 341 208 429 c 1
 208 429 174 572 174 626 c 0
 174 696 200 764 229 802 c 0
 258 840 281 864 291 864 c 0
 298 864 309 857 321 843 c 0
 373 781 399 697 399 620 c 0xcf8850
 399 500 332 417 254 342 c 1
 284 202 l 1
 293 204 301 204 310 204 c 0
 420 204 501 113 501 12 c 0
 501 -72 447 -147 365 -180 c 1
 365 -180 390 -297 390 -333 c 0
 390 -430 325 -506 227 -506 c 0
 169 -506 82 -474 82 -386 c 0xcfc030
 82 -341 117 -305 162 -305 c 0xcf9010
 207 -305 243 -341 243 -386 c 0
 243 -428 212 -463 170 -466 c 1
 181 -476 209 -480 227 -480 c 0
 305 -480 364 -421 364 -333 c 0
 364 -294 339 -189 339 -189 c 1
 319 -195 297 -197 275 -197 c 0
 125 -197 0 -67 0 82 c 0xcfc030
75 39 m 0
 75 -87 172 -176 275 -176 c 0
 296 -176 316 -174 334 -168 c 1
 275 113 l 1
 229 97 198 56 198 14 c 0
 198 -19 214 -56 244 -74 c 0
 248 -76 251 -81 251 -86 c 0
 251 -92 245 -98 239 -98 c 0
 237 -98 233 -96 233 -96 c 1
 180 -73 142 -27 142 42 c 0xcfa010
 142 107 187 174 258 196 c 1
 231 320 l 1
 109 202 75 101 75 39 c 0
122 -590 m 0
 122 -588 123 -587 123 -587 c 1
 162 -510 l 1
 162 -510 164 -506 166 -506 c 2
 207 -506 l 2
 209 -506 210 -508 210 -510 c 2
 210 -663 l 2
 210 -677 218 -687 226 -687 c 0
 229 -687 236 -688 236 -694 c 0
 236 -700 231 -702 226 -702 c 2
 146 -702 l 2
 141 -702 136 -700 136 -694 c 0
 136 -688 143 -687 146 -687 c 0
 154 -687 162 -677 162 -663 c 2
 162 -550 l 1xdf9010
 134 -593 l 2
 132 -596 132 -596 130 -596 c 0
 127 -596 122 -593 122 -590 c 0
210 578 m 0xcf8850
 210 543 231 450 231 450 c 1
 295 512 358 602 358 687 c 0
 358 721 352 749 319 749 c 0
 254 749 210 650 210 578 c 0xcf8850
243 -660 m 0xef8490
 243 -646 255 -634 269 -634 c 0
 283 -634 294 -646 294 -660 c 0xef8490
 294 -670 288 -678 279 -682 c 1
 281 -684 287 -689 297 -689 c 0
 318 -689 331 -666 331 -637 c 0
 331 -608 313 -590 292 -590 c 0
 276 -590 270 -592 264 -597 c 0xef8190
 259 -600 258 -601 256 -601 c 0
 250 -601 250 -599 250 -594 c 0xef8210
 250 -593 251 -575 253 -558 c 0
 255 -541 255 -517 255 -516 c 0
 255 -510 257 -506 260 -506 c 0
 264 -506 270 -508 278 -510 c 0xdf8110
 286 -512 299 -515 313 -515 c 0xef8110
 327 -515 344 -512 352 -510 c 0
 360 -508 366 -506 371 -506 c 0
 373 -506 375 -509 375 -512 c 0
 375 -515 375 -521 368 -530 c 0xdf8110
 361 -539 340 -553 313 -553 c 0
 296 -553 278 -550 264 -545 c 1xef8110
 262 -585 l 1xef8210
 278 -575 291 -574 304 -574 c 0
 342 -574 378 -599 378 -637 c 0
 378 -675 345 -702 310 -702 c 0
 276 -702 243 -688 243 -660 c 0xef8490
302 119 m 1
 360 -158 l 1
 410 -134 450 -74 450 -12 c 0
 450 60 400 120 318 120 c 0
 312 120 308 120 302 119 c 1
EndSplineSet
EndChar

StartChar: uniE052
Encoding: 57426 57426 72
Width: 501
Flags: MW
HStem: -702 15<235 259.5 235 268.5> -521 15<241 262> -506 26<218 266 218 276 229 266 218 271> -197 21<223.5 285.5 223.5 286> 120 84<315 359> 749 115<286.5 294.5 286 335.5>
VStem: 0 75<7.5 70 -24 153> 82 161<-407 -363.5 -407 -363.5> 142 56<7.5 35> 170 28<-653 -634.5 -653 -633> 174 36<599 614 560.5 661> 180 42<-548 -545> 284 46<-661 -654.5> 287 34<-565 -551.5> 358 41<644.5 658.5 560 704> 364 26<-377 -315 -381.5 -313.5> 450 51<-30 24>
LayerCount: 2
Fore
SplineSet
0 82 m 0xbe4180
 0 224 109 341 208 429 c 1
 208 429 174 572 174 626 c 0
 174 696 200 764 229 802 c 0
 258 840 281 864 291 864 c 0
 298 864 309 857 321 843 c 0
 373 781 399 697 399 620 c 0xbe2680
 399 500 332 417 254 342 c 1
 284 202 l 1
 293 204 301 204 310 204 c 0
 420 204 501 113 501 12 c 0
 501 -72 447 -147 365 -180 c 1
 365 -180 390 -297 390 -333 c 0
 390 -430 325 -506 227 -506 c 0
 169 -506 82 -474 82 -386 c 0
 82 -341 117 -305 162 -305 c 0
 207 -305 243 -341 243 -386 c 0xbf0980
 243 -428 212 -463 170 -466 c 1
 181 -476 209 -480 227 -480 c 0
 305 -480 364 -421 364 -333 c 0
 364 -294 339 -189 339 -189 c 1
 319 -195 297 -197 275 -197 c 0
 125 -197 0 -67 0 82 c 0xbe4180
75 39 m 0
 75 -87 172 -176 275 -176 c 0
 296 -176 316 -174 334 -168 c 1
 275 113 l 1
 229 97 198 56 198 14 c 0
 198 -19 214 -56 244 -74 c 0
 248 -76 251 -81 251 -86 c 0
 251 -92 245 -98 239 -98 c 0
 237 -98 233 -96 233 -96 c 1
 180 -73 142 -27 142 42 c 0x9e8080
 142 107 187 174 258 196 c 1
 231 320 l 1
 109 202 75 101 75 39 c 0
170 -641 m 0xde4880
 170 -625 178 -606 196 -597 c 1
 185 -590 180 -576 180 -562 c 0
 180 -528 208 -506 250 -506 c 0
 292 -506 321 -528 321 -562 c 0xde1480
 321 -576 313 -587 305 -597 c 1
 323 -610 330 -622 330 -641 c 0
 330 -681 287 -702 250 -702 c 0
 213 -702 170 -677 170 -641 c 0xde4880
198 -641 m 0x9e4880
 198 -665 220 -687 250 -687 c 0
 269 -687 284 -678 284 -665 c 0
 284 -644 249 -627 214 -609 c 1
 208 -617 198 -628 198 -641 c 0x9e4880
210 578 m 0x9e2280
 210 543 231 450 231 450 c 1
 295 512 358 602 358 687 c 0
 358 721 352 749 319 749 c 0
 254 749 210 650 210 578 c 0x9e2280
222 -538 m 0xde1480
 222 -558 256 -574 281 -585 c 1
 286 -580 287 -568 287 -562 c 0
 287 -541 274 -521 250 -521 c 0
 232 -521 222 -529 222 -538 c 0xde1480
302 119 m 1
 360 -158 l 1
 410 -134 450 -74 450 -12 c 0
 450 60 400 120 318 120 c 0
 312 120 308 120 302 119 c 1
EndSplineSet
EndChar

StartChar: uniE053
Encoding: 57427 57427 73
Width: 501
Flags: MW
HStem: -506 26<218 266 218 276> -197 21<223.5 285.5 223.5 286> 120 84<315 359> 749 115<286.5 294.5 231.5 335.5> 864 14<235 259.5 235 268.5> 1045 14<241 262>
VStem: 0 75<7.5 70 -24 153> 82 161<-407 -363.5 -407 -363.5> 142 56<7.5 35 -2.5 74.5> 170 28<913 931.5> 174 36<599 614 560.5 661> 180 42<1018 1020> 284 46<905 911.5> 287 34<1000 1013.5> 358 41<644.5 658.5 560 704> 364 26<-377 -315 -381.5 -313.5> 450 51<-30 24>
LayerCount: 2
Fore
SplineSet
0 82 m 0xf64180
 0 224 109 341 208 429 c 1
 208 429 174 572 174 626 c 0
 174 696 200 764 229 802 c 0
 258 840 281 864 291 864 c 0
 298 864 309 857 321 843 c 0
 373 781 399 697 399 620 c 0xf62680
 399 500 332 417 254 342 c 1
 284 202 l 1
 293 204 301 204 310 204 c 0
 420 204 501 113 501 12 c 0
 501 -72 447 -147 365 -180 c 1
 365 -180 390 -297 390 -333 c 0
 390 -430 325 -506 227 -506 c 0
 169 -506 82 -474 82 -386 c 0
 82 -341 117 -305 162 -305 c 0
 207 -305 243 -341 243 -386 c 0xf70980
 243 -428 212 -463 170 -466 c 1
 181 -476 209 -480 227 -480 c 0
 305 -480 364 -421 364 -333 c 0
 364 -294 339 -189 339 -189 c 1
 319 -195 297 -197 275 -197 c 0
 125 -197 0 -67 0 82 c 0xf64180
75 39 m 0
 75 -87 172 -176 275 -176 c 0
 296 -176 316 -174 334 -168 c 1
 275 113 l 1
 229 97 198 56 198 14 c 0
 198 -19 214 -56 244 -74 c 0
 248 -76 251 -81 251 -86 c 0
 251 -92 245 -98 239 -98 c 0
 237 -98 233 -96 233 -96 c 1
 180 -73 142 -27 142 42 c 0xe68080
 142 107 187 174 258 196 c 1
 231 320 l 1
 109 202 75 101 75 39 c 0
170 925 m 0xee4880
 170 941 178 960 196 969 c 1
 185 976 180 989 180 1003 c 0
 180 1037 208 1059 250 1059 c 0
 292 1059 321 1037 321 1003 c 0xee1480
 321 989 313 979 305 969 c 1
 323 956 330 944 330 925 c 0
 330 885 287 864 250 864 c 0
 213 864 170 889 170 925 c 0xee4880
198 925 m 0xee4880
 198 901 220 878 250 878 c 0
 269 878 284 888 284 901 c 0
 284 922 249 939 214 957 c 1
 208 949 198 938 198 925 c 0xee4880
210 578 m 0xf62280
 210 543 231 450 231 450 c 1
 295 512 358 602 358 687 c 0
 358 721 352 749 319 749 c 0
 254 749 210 650 210 578 c 0xf62280
222 1028 m 0xe61480
 222 1008 256 992 281 981 c 1
 286 986 287 997 287 1003 c 0
 287 1024 274 1045 250 1045 c 0
 232 1045 222 1037 222 1028 c 0xe61480
302 119 m 1
 360 -158 l 1
 410 -134 450 -74 450 -12 c 0
 450 60 400 120 318 120 c 0
 312 120 308 120 302 119 c 1
EndSplineSet
EndChar

StartChar: uniE054
Encoding: 57428 57428 74
Width: 501
Flags: MW
HStem: -506 26<218 266 218 276> -197 21<223.5 285.5 223.5 286> 120 84<315 359> 749 115<286.5 294.5 294.5 327.5> 864 13<292 294.5 293 307.5 292 327.5> 976 16<297.5 302.5> 1013 37<306 320 306 326.5> 1035 20<162 162>
VStem: 0 75<7.5 70 -24 153> 82 161<-407 -363.5 -407 -363.5> 142 56<7.5 35 -2.5 74.5> 162 48<902 1016 1016 1016 1055 1055> 174 36<599 614 560.5 661> 243 51<901 913 901 913> 250 12<968.5 981> 255 9 331 47<914.5 943.5> 358 41<644.5 658.5 560 704> 364 26<-377 -315 -381.5 -313.5> 450 51<-30 24>
LayerCount: 2
Fore
SplineSet
0 82 m 0xf4c030
 0 224 109 341 208 429 c 1
 208 429 174 572 174 626 c 0
 174 696 200 764 229 802 c 0
 258 840 281 864 291 864 c 0
 298 864 309 857 321 843 c 0
 373 781 399 697 399 620 c 0xf48850
 399 500 332 417 254 342 c 1
 284 202 l 1
 293 204 301 204 310 204 c 0
 420 204 501 113 501 12 c 0
 501 -72 447 -147 365 -180 c 1
 365 -180 390 -297 390 -333 c 0
 390 -430 325 -506 227 -506 c 0
 169 -506 82 -474 82 -386 c 0xf4c030
 82 -341 117 -305 162 -305 c 0xf49010
 207 -305 243 -341 243 -386 c 0
 243 -428 212 -463 170 -466 c 1
 181 -476 209 -480 227 -480 c 0
 305 -480 364 -421 364 -333 c 0
 364 -294 339 -189 339 -189 c 1
 319 -195 297 -197 275 -197 c 0
 125 -197 0 -67 0 82 c 0xf4c030
75 39 m 0
 75 -87 172 -176 275 -176 c 0
 296 -176 316 -174 334 -168 c 1
 275 113 l 1
 229 97 198 56 198 14 c 0
 198 -19 214 -56 244 -74 c 0
 248 -76 251 -81 251 -86 c 0
 251 -92 245 -98 239 -98 c 0
 237 -98 233 -96 233 -96 c 1
 180 -73 142 -27 142 42 c 0xe4a010
 142 107 187 174 258 196 c 1
 231 320 l 1
 109 202 75 101 75 39 c 0
122 976 m 0
 122 978 123 978 123 978 c 1
 162 1055 l 1xed9010
 162 1055 164 1059 166 1059 c 2
 207 1059 l 2
 209 1059 210 1058 210 1056 c 2xed8810
 210 902 l 2
 210 888 218 878 226 878 c 0
 229 878 236 878 236 872 c 0
 236 866 231 864 226 864 c 2
 146 864 l 2
 141 864 136 866 136 872 c 0
 136 878 143 878 146 878 c 0
 154 878 162 888 162 902 c 2
 162 1016 l 1xed9010
 134 973 l 2
 132 970 132 970 130 970 c 0
 127 970 122 973 122 976 c 0
210 578 m 0xf48850
 210 543 231 450 231 450 c 1
 295 512 358 602 358 687 c 0
 358 721 352 749 319 749 c 0
 254 749 210 650 210 578 c 0xf48850
243 906 m 0xf68490
 243 920 255 931 269 931 c 0
 283 931 294 920 294 906 c 0xf68490
 294 896 288 887 279 883 c 1
 281 881 287 877 297 877 c 0
 318 877 331 900 331 929 c 0
 331 958 313 976 292 976 c 0
 276 976 270 974 264 969 c 0xec8190
 259 966 258 965 256 965 c 0
 250 965 250 966 250 971 c 0xec8210
 250 972 251 991 253 1008 c 0
 255 1025 255 1049 255 1050 c 0xee8110
 255 1056 257 1059 260 1059 c 0
 264 1059 270 1057 278 1055 c 0xe58110
 286 1053 299 1050 313 1050 c 0xe68110
 327 1050 344 1053 352 1055 c 0
 360 1057 366 1059 371 1059 c 0
 373 1059 375 1057 375 1054 c 0
 375 1051 375 1044 368 1035 c 0xe58110
 361 1026 340 1013 313 1013 c 0
 296 1013 278 1016 264 1021 c 1xe68110
 262 981 l 1xe68210
 278 991 291 992 304 992 c 0
 342 992 378 967 378 929 c 0
 378 891 345 864 310 864 c 0
 276 864 243 878 243 906 c 0xf68490
302 119 m 1
 360 -158 l 1
 410 -134 450 -74 450 -12 c 0
 450 60 400 120 318 120 c 0
 312 120 308 120 302 119 c 1
EndSplineSet
EndChar

StartChar: uniE055
Encoding: 57429 57429 75
Width: 320
Flags: MW
HStem: 0 8<8 152 8 160> 312 8<8 152 8 8>
VStem: 0 8<8 8 8 312> 152 8<8 312 312 312>
LayerCount: 2
Fore
SplineSet
0 0 m 1
 0 320 l 1
 160 320 l 1
 160 0 l 1
 0 0 l 1
8 8 m 1
 152 8 l 1
 152 312 l 1
 8 312 l 1
 8 8 l 1
EndSplineSet
EndChar

StartChar: uniE056
Encoding: 57430 57430 76
Width: 320
Flags: MW
HStem: 0 8<8 152 8 160> 312 8<8 152 8 8>
VStem: 0 8<8 8 8 312> 152 8<8 312 312 312>
LayerCount: 2
Fore
SplineSet
0 0 m 1
 0 320 l 1
 160 320 l 1
 160 0 l 1
 0 0 l 1
8 8 m 1
 152 8 l 1
 152 312 l 1
 8 312 l 1
 8 8 l 1
EndSplineSet
EndChar

StartChar: uniE057
Encoding: 57431 57431 77
Width: 320
Flags: MW
HStem: 0 8<8 152 8 160> 312 8<8 152 8 8>
VStem: 0 8<8 8 8 312> 152 8<8 312 312 312>
LayerCount: 2
Fore
SplineSet
0 0 m 1
 0 320 l 1
 160 320 l 1
 160 0 l 1
 0 0 l 1
8 8 m 1
 152 8 l 1
 152 312 l 1
 8 312 l 1
 8 8 l 1
EndSplineSet
EndChar

StartChar: uniE058
Encoding: 57432 57432 78
Width: 320
Flags: MW
HStem: 0 8<8 152 8 160> 312 8<8 152 8 8>
VStem: 0 8<8 8 8 312> 152 8<8 312 312 312>
LayerCount: 2
Fore
SplineSet
0 0 m 1
 0 320 l 1
 160 320 l 1
 160 0 l 1
 0 0 l 1
8 8 m 1
 152 8 l 1
 152 312 l 1
 8 312 l 1
 8 8 l 1
EndSplineSet
EndChar

StartChar: uniE059
Encoding: 57433 57433 79
Width: 320
Flags: MW
HStem: 0 8<8 152 8 160> 312 8<8 152 8 8>
VStem: 0 8<8 8 8 312> 152 8<8 312 312 312>
LayerCount: 2
Fore
SplineSet
0 0 m 1
 0 320 l 1
 160 320 l 1
 160 0 l 1
 0 0 l 1
8 8 m 1
 152 8 l 1
 152 312 l 1
 8 312 l 1
 8 8 l 1
EndSplineSet
EndChar

StartChar: uniE05A
Encoding: 57434 57434 80
Width: 320
Flags: MW
HStem: 0 8<8 152 8 160> 312 8<8 152 8 8>
VStem: 0 8<8 8 8 312> 152 8<8 312 312 312>
LayerCount: 2
Fore
SplineSet
0 0 m 1
 0 320 l 1
 160 320 l 1
 160 0 l 1
 0 0 l 1
8 8 m 1
 152 8 l 1
 152 312 l 1
 8 312 l 1
 8 8 l 1
EndSplineSet
EndChar

StartChar: uniE05B
Encoding: 57435 57435 81
Width: 320
Flags: MW
HStem: 0 8<8 152 8 160> 312 8<8 152 8 8>
VStem: 0 8<8 8 8 312> 152 8<8 312 312 312>
LayerCount: 2
Fore
SplineSet
0 0 m 1
 0 320 l 1
 160 320 l 1
 160 0 l 1
 0 0 l 1
8 8 m 1
 152 8 l 1
 152 312 l 1
 8 312 l 1
 8 8 l 1
EndSplineSet
EndChar

StartChar: uniE05C
Encoding: 57436 57436 82
Width: 514
Flags: MW
HStem: -400 18<332.5 381 332.5 386.5> -67 19<347.5 393> 48 19<347.5 393 336 403> 382 18<332.5 381>
VStem: 0 97<-392 392> 134 24<-392 -18 18 392> 224 96<-334 -310 -334 -310 310 334> 244 21<-180.5 -143 143 180.5> 429 85<-278.5 -180.5 180.5 278.5>
LayerCount: 2
Fore
SplineSet
0 -392 m 2xfc80
 0 392 l 2
 0 397 3 400 8 400 c 2
 89 400 l 2
 94 400 97 397 97 392 c 2
 97 -392 l 2
 97 -397 94 -400 89 -400 c 2
 8 -400 l 2
 3 -400 0 -397 0 -392 c 2xfc80
134 -392 m 2
 134 392 l 2
 134 397 137 400 142 400 c 2
 150 400 l 2
 155 400 158 397 158 392 c 2
 158 18 l 1
 201 52 244 110 244 176 c 0
 244 185 248 190 254 190 c 0
 260 190 265 185 265 176 c 0xfd80
 265 110 312 67 360 67 c 0
 426 67 429 135 429 226 c 0
 429 333 420 382 342 382 c 0
 323 382 300 377 284 370 c 1
 305 364 320 345 320 323 c 0
 320 297 298 275 272 275 c 0
 246 275 224 297 224 323 c 0
 224 371 288 400 342 400 c 0
 431 400 514 331 514 226 c 0
 514 128 446 48 360 48 c 0
 335 48 318 58 298 70 c 1
 255 0 l 1
 298 -70 l 1
 318 -58 335 -48 360 -48 c 0
 446 -48 514 -128 514 -226 c 0
 514 -331 431 -400 342 -400 c 0
 288 -400 224 -371 224 -323 c 0
 224 -297 246 -275 272 -275 c 0
 298 -275 320 -297 320 -323 c 0xfe80
 320 -345 305 -364 284 -370 c 1
 300 -377 323 -382 342 -382 c 0
 420 -382 429 -333 429 -226 c 0
 429 -135 426 -67 360 -67 c 0
 312 -67 265 -110 265 -176 c 0
 265 -185 260 -190 254 -190 c 0
 248 -190 244 -185 244 -176 c 0xfd80
 244 -110 201 -52 158 -18 c 1
 158 -392 l 2
 158 -397 155 -400 150 -400 c 2
 142 -400 l 2
 137 -400 134 -397 134 -392 c 2
EndSplineSet
EndChar

StartChar: uniE05D
Encoding: 57437 57437 83
Width: 514
Flags: MW
HStem: -595 14<242 266.5 242 275.5> -414 14<248 269> -400 18<332.5 381 332.5 386.5> -67 19<347.5 393> 48 19<347.5 393 336 403> 382 18<332.5 381>
VStem: 0 97<-392 392> 134 24<-392 -18 18 392> 177 28<-546 -527.5 -546 -526> 186 43<-441 -439> 224 96<-334 -310 -334 -310 310 334> 244 21<-180.5 -143 143 180.5> 290 47<-554 -547.5> 294 33<-459 -445.5> 429 85<-278.5 -180.5 180.5 278.5>
LayerCount: 2
Fore
SplineSet
0 -392 m 2xbf02
 0 392 l 2
 0 397 3 400 8 400 c 2
 89 400 l 2
 94 400 97 397 97 392 c 2
 97 -392 l 2
 97 -397 94 -400 89 -400 c 2
 8 -400 l 2
 3 -400 0 -397 0 -392 c 2xbf02
134 -392 m 2
 134 392 l 2
 134 397 137 400 142 400 c 2
 150 400 l 2
 155 400 158 397 158 392 c 2
 158 18 l 1
 201 52 244 110 244 176 c 0
 244 185 248 190 254 190 c 0
 260 190 265 185 265 176 c 0xbf12
 265 110 312 67 360 67 c 0
 426 67 429 135 429 226 c 0
 429 333 420 382 342 382 c 0
 323 382 300 377 284 370 c 1
 305 364 320 345 320 323 c 0
 320 297 298 275 272 275 c 0
 246 275 224 297 224 323 c 0
 224 371 288 400 342 400 c 0
 431 400 514 331 514 226 c 0
 514 128 446 48 360 48 c 0
 335 48 318 58 298 70 c 1
 255 0 l 1
 298 -70 l 1
 318 -58 335 -48 360 -48 c 0
 446 -48 514 -128 514 -226 c 0
 514 -331 431 -400 342 -400 c 0
 288 -400 224 -371 224 -323 c 0
 224 -297 246 -275 272 -275 c 0
 298 -275 320 -297 320 -323 c 0xbf22
 320 -345 305 -364 284 -370 c 1
 300 -377 323 -382 342 -382 c 0
 420 -382 429 -333 429 -226 c 0
 429 -135 426 -67 360 -67 c 0
 312 -67 265 -110 265 -176 c 0
 265 -185 260 -190 254 -190 c 0
 248 -190 244 -185 244 -176 c 0xbf12
 244 -110 201 -52 158 -18 c 1
 158 -392 l 2
 158 -397 155 -400 150 -400 c 2
 142 -400 l 2
 137 -400 134 -397 134 -392 c 2
177 -534 m 0xdf8a
 177 -518 184 -499 202 -490 c 1
 191 -483 186 -470 186 -456 c 0
 186 -422 215 -400 257 -400 c 0
 299 -400 327 -422 327 -456 c 0xdf46
 327 -470 319 -480 311 -490 c 1
 329 -503 337 -515 337 -534 c 0
 337 -574 294 -595 257 -595 c 0
 220 -595 177 -570 177 -534 c 0xdf8a
205 -534 m 0x9f8a
 205 -558 227 -581 257 -581 c 0
 276 -581 290 -571 290 -558 c 0
 290 -537 255 -520 220 -502 c 1
 214 -510 205 -521 205 -534 c 0x9f8a
229 -431 m 0xdf46
 229 -451 262 -467 287 -478 c 1
 292 -473 294 -462 294 -456 c 0
 294 -435 281 -414 257 -414 c 0
 239 -414 229 -422 229 -431 c 0xdf46
EndSplineSet
EndChar

StartChar: uniE05E
Encoding: 57438 57438 84
Width: 320
Flags: MW
HStem: 0 8<8 152 8 160> 312 8<8 152 8 8>
VStem: 0 8<8 8 8 312> 152 8<8 312 312 312>
LayerCount: 2
Fore
SplineSet
0 0 m 1
 0 320 l 1
 160 320 l 1
 160 0 l 1
 0 0 l 1
8 8 m 1
 152 8 l 1
 152 312 l 1
 8 312 l 1
 8 8 l 1
EndSplineSet
EndChar

StartChar: uniE05F
Encoding: 57439 57439 85
Width: 320
Flags: MW
HStem: 0 8<8 152 8 160> 312 8<8 152 8 8>
VStem: 0 8<8 8 8 312> 152 8<8 312 312 312>
LayerCount: 2
Fore
SplineSet
0 0 m 1
 0 320 l 1
 160 320 l 1
 160 0 l 1
 0 0 l 1
8 8 m 1
 152 8 l 1
 152 312 l 1
 8 312 l 1
 8 8 l 1
EndSplineSet
EndChar

StartChar: uniE060
Encoding: 57440 57440 86
Width: 320
Flags: MW
HStem: 0 8<8 152 8 160> 312 8<8 152 8 8>
VStem: 0 8<8 8 8 312> 152 8<8 312 312 312>
LayerCount: 2
Fore
SplineSet
0 0 m 1
 0 320 l 1
 160 320 l 1
 160 0 l 1
 0 0 l 1
8 8 m 1
 152 8 l 1
 152 312 l 1
 8 312 l 1
 8 8 l 1
EndSplineSet
EndChar

StartChar: uniE061
Encoding: 57441 57441 87
Width: 320
Flags: MW
HStem: 0 8<8 152 8 160> 312 8<8 152 8 8>
VStem: 0 8<8 8 8 312> 152 8<8 312 312 312>
LayerCount: 2
Fore
SplineSet
0 0 m 1
 0 320 l 1
 160 320 l 1
 160 0 l 1
 0 0 l 1
8 8 m 1
 152 8 l 1
 152 312 l 1
 8 312 l 1
 8 8 l 1
EndSplineSet
EndChar

StartChar: uniE062
Encoding: 57442 57442 88
Width: 531
Flags: MW
HStem: -437 23 -126 61<492.5 509.5> -38 162<81 108.5 81 108.5> 65 61<492.5 509.5> 178 25<167 243.5>
VStem: 5 161<20.5 65.5 20.5 87> 335 103<-95.5 49> 470 61<-103.5 -86.5 86.5 103.5>
LayerCount: 2
Fore
SplineSet
0 -425 m 0xef
 0 -420 2 -416 7 -414 c 0
 196 -333 335 -189 335 -2 c 0
 335 100 293 178 194 178 c 0
 140 178 89 160 58 119 c 1
 67 122 76 124 86 124 c 0
 131 124 166 88 166 43 c 0
 166 -2 131 -38 86 -38 c 0
 41 -38 5 -2 5 43 c 0
 5 131 88 203 194 203 c 0
 332 203 438 122 438 -2 c 0
 438 -240 219 -394 18 -436 c 1
 18 -436 14 -437 12 -437 c 0
 6 -437 0 -431 0 -425 c 0xef
470 95 m 0
 470 112 484 126 501 126 c 0
 518 126 531 112 531 95 c 0
 531 78 518 65 501 65 c 0xdf
 484 65 470 78 470 95 c 0
470 -95 m 0
 470 -78 484 -65 501 -65 c 0
 518 -65 531 -78 531 -95 c 0
 531 -112 518 -126 501 -126 c 0
 484 -126 470 -112 470 -95 c 0
EndSplineSet
EndChar

StartChar: uniE063
Encoding: 57443 57443 89
Width: 531
Flags: MW
HStem: -632 13<308 322.5 307 342.5> -520 16<312.5 317.5> -483 37<321 335 321 341.5> -461 20<178 178> -437 23 -126 61<492.5 509.5> -38 162<81 108.5 81 108.5> 65 61<492.5 509.5> 178 25<167 243.5>
VStem: 5 161<20.5 65.5 20.5 87> 177 48<-594 -480 -480 -480> 258 51<-595 -583 -595 -583> 266 11<-527.5 -515> 335 103<-95.5 49> 346 48<-581.5 -552.5> 470 61<-103.5 -86.5 86.5 103.5>
LayerCount: 2
Fore
SplineSet
0 -425 m 0xcee5
 0 -420 2 -416 7 -414 c 0
 196 -333 335 -189 335 -2 c 0
 335 100 293 178 194 178 c 0
 140 178 89 160 58 119 c 1
 67 122 76 124 86 124 c 0
 131 124 166 88 166 43 c 0
 166 -2 131 -38 86 -38 c 0
 41 -38 5 -2 5 43 c 0
 5 131 88 203 194 203 c 0
 332 203 438 122 438 -2 c 0
 438 -240 219 -394 18 -436 c 1
 18 -436 14 -437 12 -437 c 0
 6 -437 0 -431 0 -425 c 0xcee5
138 -518 m 1
 178 -441 l 1xdce1
 178 -441 180 -437 182 -437 c 2
 222 -437 l 2
 224 -437 225 -438 225 -440 c 2
 225 -594 l 2
 225 -608 234 -618 242 -618 c 0
 245 -618 251 -618 251 -624 c 0
 251 -630 247 -632 242 -632 c 2
 161 -632 l 2
 156 -632 151 -630 151 -624 c 0
 151 -618 158 -618 161 -618 c 0
 169 -618 177 -608 177 -594 c 2
 177 -480 l 1
 150 -523 l 2
 148 -526 147 -526 145 -526 c 0
 142 -526 138 -523 138 -520 c 2
 138 -518 l 1
258 -590 m 0xecf3
 258 -576 270 -565 284 -565 c 0
 298 -565 309 -576 309 -590 c 0xecf3
 309 -600 303 -609 294 -613 c 1
 296 -615 302 -619 312 -619 c 0
 333 -619 346 -596 346 -567 c 0
 346 -538 328 -520 307 -520 c 0
 291 -520 285 -522 279 -527 c 0
 274 -530 273 -531 271 -531 c 0
 265 -531 266 -530 266 -525 c 0
 266 -524 266 -505 268 -488 c 0
 270 -471 270 -447 270 -446 c 0xeceb
 270 -440 272 -437 275 -437 c 0
 279 -437 285 -439 293 -441 c 0xdceb
 301 -443 314 -446 328 -446 c 0xeceb
 342 -446 359 -443 367 -441 c 0
 375 -439 381 -437 386 -437 c 0
 388 -437 390 -439 390 -442 c 0
 390 -445 390 -452 383 -461 c 0xdceb
 376 -470 355 -483 328 -483 c 0
 311 -483 293 -480 279 -475 c 1
 277 -515 l 1xeceb
 293 -505 306 -504 319 -504 c 0
 357 -504 394 -529 394 -567 c 0
 394 -605 360 -632 325 -632 c 0
 291 -632 258 -618 258 -590 c 0xecf3
470 95 m 0
 470 112 484 126 501 126 c 0
 518 126 531 112 531 95 c 0
 531 78 518 65 501 65 c 0xcde1
 484 65 470 78 470 95 c 0
470 -95 m 0
 470 -78 484 -65 501 -65 c 0
 518 -65 531 -78 531 -95 c 0
 531 -112 518 -126 501 -126 c 0
 484 -126 470 -112 470 -95 c 0
EndSplineSet
EndChar

StartChar: uniE064
Encoding: 57444 57444 90
Width: 531
Flags: MW
HStem: -632 14<251 275.5 251 284.5> -451 14<257 278> -437 23 -126 61<492.5 509.5> -38 162<81 108.5 81 108.5> 65 61<492.5 509.5> 178 25<167 243.5>
VStem: 5 161<20.5 65.5 20.5 87> 186 28<-583 -564.5 -583 -563> 195 43<-478 -476> 299 47<-591 -584.5> 302 34<-496 -482.5> 335 103<-95.5 49> 470 61<-103.5 -86.5 86.5 103.5>
LayerCount: 2
Fore
SplineSet
0 -425 m 0xbb0c
 0 -420 2 -416 7 -414 c 0
 196 -333 335 -189 335 -2 c 0
 335 100 293 178 194 178 c 0
 140 178 89 160 58 119 c 1
 67 122 76 124 86 124 c 0
 131 124 166 88 166 43 c 0
 166 -2 131 -38 86 -38 c 0
 41 -38 5 -2 5 43 c 0
 5 131 88 203 194 203 c 0
 332 203 438 122 438 -2 c 0
 438 -240 219 -394 18 -436 c 1
 18 -436 14 -437 12 -437 c 0
 6 -437 0 -431 0 -425 c 0xbb0c
186 -571 m 0xd3a4
 186 -555 193 -536 211 -527 c 1
 200 -520 195 -507 195 -493 c 0
 195 -459 224 -437 266 -437 c 0
 308 -437 336 -459 336 -493 c 0xd354
 336 -507 328 -517 320 -527 c 1
 338 -540 346 -552 346 -571 c 0
 346 -611 303 -632 266 -632 c 0
 229 -632 186 -607 186 -571 c 0xd3a4
214 -571 m 0x93a4
 214 -595 236 -618 266 -618 c 0
 285 -618 299 -608 299 -595 c 0
 299 -574 264 -557 229 -539 c 1
 223 -547 214 -558 214 -571 c 0x93a4
238 -468 m 0xd354
 238 -488 271 -504 296 -515 c 1
 301 -510 302 -499 302 -493 c 0
 302 -472 290 -451 266 -451 c 0
 248 -451 238 -459 238 -468 c 0xd354
470 95 m 0
 470 112 484 126 501 126 c 0
 518 126 531 112 531 95 c 0
 531 78 518 65 501 65 c 0x9704
 484 65 470 78 470 95 c 0
470 -95 m 0
 470 -78 484 -65 501 -65 c 0
 518 -65 531 -78 531 -95 c 0
 531 -112 518 -126 501 -126 c 0
 484 -126 470 -112 470 -95 c 0
EndSplineSet
EndChar

StartChar: uniE065
Encoding: 57445 57445 91
Width: 531
Flags: MW
HStem: -437 23 -126 61<492.5 509.5> -38 162<81 108.5 81 108.5> 65 61<492.5 509.5> 178 25<167 243.5> 203 15<251 263 251 275.5 251 284.5> 384 14<257 278>
VStem: 5 161<20.5 65.5 20.5 87> 186 28<252 270.5 252 272> 195 43<357 359> 299 47<244 250.5> 302 34<339 352.5> 335 103<-95.5 49> 470 61<-103.5 -86.5 86.5 103.5>
LayerCount: 2
Fore
SplineSet
0 -425 m 0xeb0c
 0 -420 2 -416 7 -414 c 0
 196 -333 335 -189 335 -2 c 0
 335 100 293 178 194 178 c 0
 140 178 89 160 58 119 c 1
 67 122 76 124 86 124 c 0
 131 124 166 88 166 43 c 0
 166 -2 131 -38 86 -38 c 0
 41 -38 5 -2 5 43 c 0
 5 131 88 203 194 203 c 0
 332 203 438 122 438 -2 c 0
 438 -240 219 -394 18 -436 c 1
 18 -436 14 -437 12 -437 c 0
 6 -437 0 -431 0 -425 c 0xeb0c
186 264 m 0xc7a4
 186 280 193 299 211 308 c 1
 200 315 195 328 195 342 c 0
 195 376 224 398 266 398 c 0
 308 398 336 376 336 342 c 0xc754
 336 328 328 318 320 308 c 1
 338 295 346 283 346 264 c 0
 346 224 303 203 266 203 c 0
 229 203 186 228 186 264 c 0xc7a4
214 264 m 0xc7a4
 214 240 236 218 266 218 c 0
 285 218 299 227 299 240 c 0
 299 261 264 278 229 296 c 1
 223 288 214 277 214 264 c 0xc7a4
238 367 m 0xc354
 238 347 271 331 296 320 c 1
 301 325 302 336 302 342 c 0
 302 363 290 384 266 384 c 0
 248 384 238 376 238 367 c 0xc354
470 95 m 0
 470 112 484 126 501 126 c 0
 518 126 531 112 531 95 c 0
 531 78 518 65 501 65 c 0xd304
 484 65 470 78 470 95 c 0
470 -95 m 0
 470 -78 484 -65 501 -65 c 0
 518 -65 531 -78 531 -95 c 0
 531 -112 518 -126 501 -126 c 0
 484 -126 470 -112 470 -95 c 0
EndSplineSet
EndChar

StartChar: uniE066
Encoding: 57446 57446 92
Width: 531
Flags: MW
HStem: -437 23 -126 61<492.5 509.5> -38 162<81 108.5 81 108.5> 65 61<492.5 509.5> 178 25<167 194 194 243.5> 203 13<308 322.5 307 342.5> 315 16<312.5 317.5> 352 38<321 335 321 341.5> 374 20<178 178>
VStem: 5 161<20.5 65.5 20.5 87> 177 48<242 355 355 355> 258 51<240 252 240 252> 266 11<307.5 320> 335 103<-95.5 49> 346 48<253.5 282.5> 470 61<-103.5 -86.5 86.5 103.5>
LayerCount: 2
Fore
SplineSet
0 -425 m 0xeae5
 0 -420 2 -416 7 -414 c 0
 196 -333 335 -189 335 -2 c 0
 335 100 293 178 194 178 c 0
 140 178 89 160 58 119 c 1
 67 122 76 124 86 124 c 0
 131 124 166 88 166 43 c 0
 166 -2 131 -38 86 -38 c 0
 41 -38 5 -2 5 43 c 0
 5 131 88 203 194 203 c 2
 161 203 l 2
 156 203 151 205 151 211 c 0
 151 217 158 218 161 218 c 0
 169 218 177 228 177 242 c 2
 177 355 l 1
 150 312 l 2
 148 309 147 309 145 309 c 0
 142 309 138 312 138 315 c 2
 138 318 l 1
 178 394 l 1
 178 394 180 398 182 398 c 2
 222 398 l 2
 224 398 225 397 225 395 c 2
 225 242 l 2
 225 228 234 218 242 218 c 0
 245 218 251 217 251 211 c 0
 251 205 247 203 242 203 c 2
 194 203 l 2
 332 203 438 122 438 -2 c 0
 438 -240 219 -394 18 -436 c 1
 18 -436 14 -437 12 -437 c 0
 6 -437 0 -431 0 -425 c 0xeae5
258 245 m 0xc773
 258 259 270 270 284 270 c 0
 298 270 309 259 309 245 c 0xc773
 309 235 303 226 294 222 c 1
 296 220 302 216 312 216 c 0
 333 216 346 239 346 268 c 0
 346 297 328 315 307 315 c 0
 291 315 285 313 279 308 c 0
 274 305 273 304 271 304 c 0
 265 304 266 305 266 310 c 0
 266 311 266 330 268 347 c 0
 270 364 270 388 270 389 c 0
 270 395 272 398 275 398 c 0
 279 398 285 396 293 394 c 0xc6eb
 301 392 314 390 328 390 c 0xc36b
 342 390 359 392 367 394 c 0
 375 396 381 398 386 398 c 0
 388 398 390 396 390 393 c 0
 390 390 390 383 383 374 c 0xc2eb
 376 365 355 352 328 352 c 0
 311 352 293 355 279 360 c 1
 277 320 l 1xc36b
 293 330 306 331 319 331 c 0
 357 331 394 306 394 268 c 0
 394 230 360 203 325 203 c 0
 291 203 258 217 258 245 c 0xc773
470 95 m 0
 470 112 484 126 501 126 c 0
 518 126 531 112 531 95 c 0
 531 78 518 65 501 65 c 0xd261
 484 65 470 78 470 95 c 0
470 -95 m 0
 470 -78 484 -65 501 -65 c 0
 518 -65 531 -78 531 -95 c 0
 531 -112 518 -126 501 -126 c 0
 484 -126 470 -112 470 -95 c 0
EndSplineSet
EndChar

StartChar: uniE067
Encoding: 57447 57447 93
Width: 320
Flags: MW
HStem: 0 8<8 152 8 160> 312 8<8 152 8 8>
VStem: 0 8<8 8 8 312> 152 8<8 312 312 312>
LayerCount: 2
Fore
SplineSet
0 0 m 1
 0 320 l 1
 160 320 l 1
 160 0 l 1
 0 0 l 1
8 8 m 1
 152 8 l 1
 152 312 l 1
 8 312 l 1
 8 8 l 1
EndSplineSet
EndChar

StartChar: uniE068
Encoding: 57448 57448 94
Width: 320
Flags: MW
HStem: 0 8<8 152 8 160> 312 8<8 152 8 8>
VStem: 0 8<8 8 8 312> 152 8<8 312 312 312>
LayerCount: 2
Fore
SplineSet
0 0 m 1
 0 320 l 1
 160 320 l 1
 160 0 l 1
 0 0 l 1
8 8 m 1
 152 8 l 1
 152 312 l 1
 8 312 l 1
 8 8 l 1
EndSplineSet
EndChar

StartChar: uniE069
Encoding: 57449 57449 95
Width: 272
Flags: MW
VStem: 0 91<-192 192> 181 91<-192 192>
LayerCount: 2
Fore
SplineSet
0 192 m 2
 0 197 3 200 8 200 c 2
 83 200 l 2
 88 200 91 197 91 192 c 2
 91 -192 l 2
 91 -197 88 -200 83 -200 c 2
 8 -200 l 2
 3 -200 0 -197 0 -192 c 2
 0 192 l 2
181 192 m 2
 181 197 184 200 189 200 c 2
 264 200 l 2
 269 200 272 197 272 192 c 2
 272 -192 l 2
 272 -197 269 -200 264 -200 c 2
 189 -200 l 2
 184 -200 181 -197 181 -192 c 2
 181 192 l 2
EndSplineSet
EndChar

StartChar: uniE06A
Encoding: 57450 57450 96
Width: 216
Flags: MW
HStem: -336 72<5.5 180 36 180 36 208> 264 72<36 36 36 180>
VStem: 0 36<-264 264 -264 328> 180 36<-264 264 264 264>
LayerCount: 2
Fore
SplineSet
0 328 m 2
 0 333 3 336 8 336 c 2
 208 336 l 2
 213 336 216 333 216 328 c 2
 216 -328 l 2
 216 -333 213 -336 208 -336 c 2
 8 -336 l 2
 3 -336 0 -333 0 -328 c 2
 0 328 l 2
36 264 m 1
 36 -264 l 1
 180 -264 l 1
 180 264 l 1
 36 264 l 1
EndSplineSet
EndChar

StartChar: uniE06B
Encoding: 57451 57451 97
Width: 320
Flags: MW
HStem: 0 8<8 152 8 160> 312 8<8 152 8 8>
VStem: 0 8<8 8 8 312> 152 8<8 312 312 312>
LayerCount: 2
Fore
SplineSet
0 0 m 1
 0 320 l 1
 160 320 l 1
 160 0 l 1
 0 0 l 1
8 8 m 1
 152 8 l 1
 152 312 l 1
 8 312 l 1
 8 8 l 1
EndSplineSet
EndChar

StartChar: uniE06C
Encoding: 57452 57452 98
Width: 320
Flags: MW
HStem: 0 8<8 152 8 160> 312 8<8 152 8 8>
VStem: 0 8<8 8 8 312> 152 8<8 312 312 312>
LayerCount: 2
Fore
SplineSet
0 0 m 1
 0 320 l 1
 160 320 l 1
 160 0 l 1
 0 0 l 1
8 8 m 1
 152 8 l 1
 152 312 l 1
 8 312 l 1
 8 8 l 1
EndSplineSet
EndChar

StartChar: uniE06D
Encoding: 57453 57453 99
Width: 328
Flags: MW
HStem: -600 48<68 180 68 180> -432 48<68 180 68 180> -264 48<68 68 68 180> -80 48<103 225 103 242 86 225> 552 48<16 312 16 140 188 188 188 312>
VStem: 20 48<-552 -432 -384 -264> 140 48<216 552 216 552> 244 48<-346 -302> 260 48<-518 -466>
LayerCount: 2
Fore
SplineSet
0 -192 m 1xfe
 132 192 l 1
 196 192 l 1
 328 -192 l 1
 280 -192 l 1
 242 -80 l 1
 86 -80 l 1
 48 -192 l 1
 0 -192 l 1xfe
16 552 m 1
 16 600 l 1
 312 600 l 1
 312 552 l 1
 188 552 l 1
 188 216 l 1
 140 216 l 1
 140 552 l 1
 16 552 l 1
20 -216 m 1
 180 -216 l 2
 248 -216 292 -240 292 -324 c 0xff
 292 -392 236 -408 236 -408 c 1
 236 -408 308 -424 308 -492 c 0xfe80
 308 -576 248 -600 180 -600 c 2
 20 -600 l 1
 20 -216 l 1
68 -264 m 1
 68 -384 l 1
 180 -384 l 2
 224 -384 244 -368 244 -324 c 0
 244 -280 224 -264 180 -264 c 2
 68 -264 l 1
68 -432 m 1
 68 -552 l 1
 180 -552 l 2
 224 -552 260 -544 260 -492 c 0xfe80
 260 -440 224 -432 180 -432 c 2
 68 -432 l 1
103 -32 m 1
 225 -32 l 1
 168 134 l 1
 160 134 l 1
 103 -32 l 1
EndSplineSet
EndChar

StartChar: uniE06E
Encoding: 57454 57454 100
Width: 320
Flags: MW
HStem: 0 8<8 152 8 160> 312 8<8 152 8 8>
VStem: 0 8<8 8 8 312> 152 8<8 312 312 312>
LayerCount: 2
Fore
SplineSet
0 0 m 1
 0 320 l 1
 160 320 l 1
 160 0 l 1
 0 0 l 1
8 8 m 1
 152 8 l 1
 152 312 l 1
 8 312 l 1
 8 8 l 1
EndSplineSet
EndChar

StartChar: uniE06F
Encoding: 57455 57455 101
Width: 320
Flags: MW
HStem: 0 8<8 152 8 160> 312 8<8 152 8 8>
VStem: 0 8<8 8 8 312> 152 8<8 312 312 312>
LayerCount: 2
Fore
SplineSet
0 0 m 1
 0 320 l 1
 160 320 l 1
 160 0 l 1
 0 0 l 1
8 8 m 1
 152 8 l 1
 152 312 l 1
 8 312 l 1
 8 8 l 1
EndSplineSet
EndChar

StartChar: uniE070
Encoding: 57456 57456 102
Width: 320
Flags: MW
HStem: 0 8<8 152 8 160> 312 8<8 152 8 8>
VStem: 0 8<8 8 8 312> 152 8<8 312 312 312>
LayerCount: 2
Fore
SplineSet
0 0 m 1
 0 320 l 1
 160 320 l 1
 160 0 l 1
 0 0 l 1
8 8 m 1
 152 8 l 1
 152 312 l 1
 8 312 l 1
 8 8 l 1
EndSplineSet
EndChar

StartChar: uniE071
Encoding: 57457 57457 103
Width: 320
Flags: MW
HStem: 0 8<8 152 8 160> 312 8<8 152 8 8>
VStem: 0 8<8 8 8 312> 152 8<8 312 312 312>
LayerCount: 2
Fore
SplineSet
0 0 m 1
 0 320 l 1
 160 320 l 1
 160 0 l 1
 0 0 l 1
8 8 m 1
 152 8 l 1
 152 312 l 1
 8 312 l 1
 8 8 l 1
EndSplineSet
EndChar

StartChar: uniE072
Encoding: 57458 57458 104
Width: 320
Flags: MW
HStem: 0 8<8 152 8 160> 312 8<8 152 8 8>
VStem: 0 8<8 8 8 312> 152 8<8 312 312 312>
LayerCount: 2
Fore
SplineSet
0 0 m 1
 0 320 l 1
 160 320 l 1
 160 0 l 1
 0 0 l 1
8 8 m 1
 152 8 l 1
 152 312 l 1
 8 312 l 1
 8 8 l 1
EndSplineSet
EndChar

StartChar: uniE073
Encoding: 57459 57459 105
Width: 501
Flags: MW
HStem: -506 26<235 283 235 303> -197 21<215.5 277.5 215.5 301> 120 84<142 186> 749 115<206.5 214.5>
VStem: 0 51<-30 24 -43 62.5> 102 40<644.5 658.5> 110 27<-377 -315> 258 161<-407 -363.5> 291 36<599 614> 302 56<7.5 35> 426 75<7.5 70>
LayerCount: 2
Fore
SplineSet
0 12 m 0xfb20
 0 113 80 204 190 204 c 0
 199 204 208 204 217 202 c 1
 246 342 l 1
 168 417 102 500 102 620 c 0
 102 697 128 781 180 843 c 0
 192 857 203 864 210 864 c 0
 220 864 243 840 272 802 c 0
 301 764 327 696 327 626 c 0xfca0
 327 572 293 429 293 429 c 1
 392 341 501 224 501 82 c 0
 501 -67 376 -197 226 -197 c 0
 204 -197 182 -195 162 -189 c 1
 162 -189 137 -294 137 -333 c 0
 137 -421 196 -480 274 -480 c 0
 292 -480 320 -476 331 -466 c 1
 289 -463 258 -428 258 -386 c 0
 258 -341 293 -305 338 -305 c 0
 383 -305 419 -341 419 -386 c 0
 419 -474 332 -506 274 -506 c 0
 176 -506 110 -430 110 -333 c 0
 110 -297 136 -180 136 -180 c 1
 54 -147 0 -72 0 12 c 0xfb20
51 -12 m 0
 51 -74 91 -134 141 -158 c 1
 199 119 l 1
 193 120 189 120 183 120 c 0
 101 120 51 60 51 -12 c 0
142 687 m 0
 142 602 206 512 270 450 c 1
 270 450 291 543 291 578 c 0
 291 650 247 749 182 749 c 0
 149 749 142 721 142 687 c 0
166 -168 m 1
 184 -174 205 -176 226 -176 c 0
 329 -176 426 -87 426 39 c 0
 426 101 392 202 270 320 c 1
 243 196 l 1
 314 174 358 107 358 42 c 0
 358 -27 321 -73 268 -96 c 1
 268 -96 264 -98 262 -98 c 0
 256 -98 250 -92 250 -86 c 0
 250 -81 253 -76 257 -74 c 0
 287 -56 302 -19 302 14 c 0xf860
 302 56 272 97 226 113 c 1
 166 -168 l 1
EndSplineSet
EndChar

StartChar: uniE074
Encoding: 57460 57460 106
Width: 501
Flags: MW
HStem: -506 115<206.5 214.5 165.5 215> 154 84<183 194.5> 534 20<215.5 277.5> 838 26<235 283>
VStem: 0 51<334 388> 102 40<-300.5 -287.5 -347 -202> 110 27<672 734 670.5 738.5> 258 161<720.5 764> 291 36<-257 -241 -303 -203.5> 302 56<323 349.5 282.5 360.5> 426 75<287 350.5 205 381>
LayerCount: 2
Fore
SplineSet
0 346 m 0xfca0
 0 430 54 505 136 538 c 1
 136 538 110 654 110 690 c 0
 110 787 176 864 274 864 c 0
 332 864 419 831 419 743 c 0
 419 698 383 662 338 662 c 0
 293 662 258 698 258 743 c 0
 258 785 289 821 331 824 c 1
 320 834 292 838 274 838 c 0
 196 838 137 778 137 690 c 0xfb20
 137 651 162 546 162 546 c 1
 182 552 204 554 226 554 c 0
 376 554 501 425 501 276 c 0
 501 134 392 17 293 -71 c 1
 293 -71 327 -214 327 -268 c 0
 327 -338 301 -406 272 -444 c 0
 243 -482 220 -506 210 -506 c 0
 203 -506 192 -500 180 -486 c 0
 128 -424 102 -339 102 -262 c 0
 102 -142 168 -59 246 16 c 1
 217 155 l 1
 208 153 199 154 190 154 c 0
 80 154 0 245 0 346 c 0xfca0
51 370 m 0
 51 298 101 238 183 238 c 0
 189 238 193 237 199 238 c 1
 141 515 l 1
 91 491 51 432 51 370 c 0
142 -330 m 0xfca0
 142 -364 149 -391 182 -391 c 0
 247 -391 291 -293 291 -221 c 0
 291 -186 270 -93 270 -93 c 1
 206 -155 142 -245 142 -330 c 0xfca0
166 526 m 1
 226 245 l 1
 272 261 302 302 302 344 c 0
 302 377 287 414 257 432 c 0
 253 434 250 438 250 443 c 0
 250 449 256 455 262 455 c 0
 264 455 268 454 268 454 c 1
 321 431 358 384 358 315 c 0xf860
 358 250 314 184 243 162 c 1
 270 38 l 1
 392 156 426 256 426 318 c 0
 426 444 329 534 226 534 c 0
 205 534 184 532 166 526 c 1
EndSplineSet
EndChar

StartChar: uniE075
Encoding: 57461 57461 107
Width: 514
Flags: MW
HStem: -400 18<132 180.5 132 198> -67 19<121 166.5 111 178> 48 19<121 166.5> 382 18<132 180.5>
VStem: 0 85<-278.5 -180.5 -279.5 -177 180.5 278.5> 194 96<-334 -310 310 334> 249 21<-180.5 -143 143 180.5> 356 24<-392 -18 -18 -18 18 392> 417 97<-392 392>
LayerCount: 2
Fore
SplineSet
0 -226 m 0xfd80
 0 -128 68 -48 154 -48 c 0
 179 -48 196 -58 216 -70 c 1
 258 0 l 1
 216 70 l 1
 196 58 179 48 154 48 c 0
 68 48 0 128 0 226 c 0
 0 331 82 400 171 400 c 0
 225 400 290 371 290 323 c 0
 290 297 268 275 242 275 c 0
 216 275 194 297 194 323 c 0xfd80
 194 345 209 364 230 370 c 1
 214 377 190 382 171 382 c 0
 93 382 85 333 85 226 c 0
 85 135 88 67 154 67 c 0
 202 67 249 110 249 176 c 0
 249 185 253 190 259 190 c 0
 265 190 270 185 270 176 c 0
 270 110 313 52 356 18 c 1
 356 392 l 2
 356 397 359 400 364 400 c 2
 372 400 l 2
 377 400 380 397 380 392 c 2
 380 -392 l 2
 380 -397 377 -400 372 -400 c 2
 364 -400 l 2
 359 -400 356 -397 356 -392 c 2
 356 -18 l 1
 313 -52 270 -110 270 -176 c 0
 270 -185 265 -190 259 -190 c 0
 253 -190 249 -185 249 -176 c 0xfb80
 249 -110 202 -67 154 -67 c 0
 88 -67 85 -135 85 -226 c 0
 85 -333 93 -382 171 -382 c 0
 190 -382 214 -377 230 -370 c 1
 209 -364 194 -345 194 -323 c 0
 194 -297 216 -275 242 -275 c 0
 268 -275 290 -297 290 -323 c 0
 290 -371 225 -400 171 -400 c 0
 82 -400 0 -331 0 -226 c 0xfd80
417 -392 m 2
 417 392 l 2
 417 397 420 400 425 400 c 2
 506 400 l 2
 511 400 514 397 514 392 c 2
 514 -392 l 2
 514 -397 511 -400 506 -400 c 2
 425 -400 l 2
 420 -400 417 -397 417 -392 c 2
EndSplineSet
EndChar

StartChar: uniE076
Encoding: 57462 57462 108
Width: 531
Flags: MW
HStem: -437 23 -126 61<21.5 38.5> -38 162<423.5 451 423.5 468.5> 65 61<21.5 38.5> 178 25<288.5 365>
VStem: 0 61<-103.5 -86.5 86.5 103.5> 93 103<-95.5 49 -95.5 60> 365 161<20.5 65.5>
LayerCount: 2
Fore
SplineSet
0 95 m 0xdf
 0 112 13 126 30 126 c 0
 47 126 61 112 61 95 c 0
 61 78 47 65 30 65 c 0
 13 65 0 78 0 95 c 0xdf
0 -95 m 0
 0 -78 13 -65 30 -65 c 0
 47 -65 61 -78 61 -95 c 0
 61 -112 47 -126 30 -126 c 0
 13 -126 0 -112 0 -95 c 0
93 -2 m 0
 93 122 200 203 338 203 c 0
 444 203 526 131 526 43 c 0
 526 -2 491 -38 446 -38 c 0
 401 -38 365 -2 365 43 c 0
 365 88 401 124 446 124 c 0xef
 456 124 464 122 473 119 c 1
 442 160 392 178 338 178 c 0
 239 178 196 100 196 -2 c 0
 196 -189 335 -333 524 -414 c 0
 529 -416 531 -420 531 -425 c 0
 531 -431 525 -437 519 -437 c 0
 517 -437 513 -436 513 -436 c 1
 312 -394 93 -240 93 -2 c 0
EndSplineSet
EndChar

StartChar: uniE077
Encoding: 57463 57463 109
Width: 531
Flags: MW
HStem: -437 25<288.5 365 288.5 391> -359 61<21.5 38.5> -358 162<423.5 451> -169 61<21.5 38.5> 181 22
VStem: 0 61<-337.5 -320.5 -146.5 -129.5> 93 103<-283 -138.5 -283 -113> 365 161<-299.5 -254.5>
LayerCount: 2
Fore
SplineSet
0 -138 m 0x9f
 0 -121 13 -108 30 -108 c 0
 47 -108 61 -121 61 -138 c 0
 61 -155 47 -169 30 -169 c 0
 13 -169 0 -155 0 -138 c 0x9f
0 -329 m 0
 0 -312 13 -298 30 -298 c 0
 47 -298 61 -312 61 -329 c 0
 61 -346 47 -359 30 -359 c 0xdf
 13 -359 0 -346 0 -329 c 0
93 -232 m 0
 93 6 312 160 513 202 c 1
 513 202 517 203 519 203 c 0
 525 203 531 197 531 191 c 0
 531 186 529 183 524 181 c 0
 335 100 196 -45 196 -232 c 0
 196 -334 239 -412 338 -412 c 0
 392 -412 442 -394 473 -353 c 1
 464 -356 456 -358 446 -358 c 0
 401 -358 365 -322 365 -277 c 0
 365 -232 401 -196 446 -196 c 0xbf
 491 -196 526 -232 526 -277 c 0
 526 -365 444 -437 338 -437 c 0
 200 -437 93 -356 93 -232 c 0
EndSplineSet
EndChar

StartChar: uniE078
Encoding: 57464 57464 110
Width: 320
Flags: MW
HStem: 0 8<8 152 8 160> 312 8<8 152 8 8>
VStem: 0 8<8 8 8 312> 152 8<8 312 312 312>
LayerCount: 2
Fore
SplineSet
0 0 m 1
 0 320 l 1
 160 320 l 1
 160 0 l 1
 0 0 l 1
8 8 m 1
 152 8 l 1
 152 312 l 1
 8 312 l 1
 8 8 l 1
EndSplineSet
EndChar

StartChar: uniE079
Encoding: 57465 57465 111
Width: 320
Flags: MW
HStem: 0 8<8 152 8 160> 312 8<8 152 8 8>
VStem: 0 8<8 8 8 312> 152 8<8 312 312 312>
LayerCount: 2
Fore
SplineSet
0 0 m 1
 0 320 l 1
 160 320 l 1
 160 0 l 1
 0 0 l 1
8 8 m 1
 152 8 l 1
 152 312 l 1
 8 312 l 1
 8 8 l 1
EndSplineSet
EndChar

StartChar: uniE07A
Encoding: 57466 57466 112
Width: 320
Flags: MW
HStem: 0 8<8 152 8 160> 312 8<8 152 8 8>
VStem: 0 8<8 8 8 312> 152 8<8 312 312 312>
LayerCount: 2
Fore
SplineSet
0 0 m 1
 0 320 l 1
 160 320 l 1
 160 0 l 1
 0 0 l 1
8 8 m 1
 152 8 l 1
 152 312 l 1
 8 312 l 1
 8 8 l 1
EndSplineSet
EndChar

StartChar: uniE07B
Encoding: 57467 57467 113
Width: 320
Flags: MW
HStem: 0 8<8 152 8 160> 312 8<8 152 8 8>
VStem: 0 8<8 8 8 312> 152 8<8 312 312 312>
LayerCount: 2
Fore
SplineSet
0 0 m 1
 0 320 l 1
 160 320 l 1
 160 0 l 1
 0 0 l 1
8 8 m 1
 152 8 l 1
 152 312 l 1
 8 312 l 1
 8 8 l 1
EndSplineSet
EndChar

StartChar: uniE07C
Encoding: 57468 57468 114
Width: 320
Flags: MW
HStem: 0 8<8 152 8 160> 312 8<8 152 8 8>
VStem: 0 8<8 8 8 312> 152 8<8 312 312 312>
LayerCount: 2
Fore
SplineSet
0 0 m 1
 0 320 l 1
 160 320 l 1
 160 0 l 1
 0 0 l 1
8 8 m 1
 152 8 l 1
 152 312 l 1
 8 312 l 1
 8 8 l 1
EndSplineSet
EndChar

StartChar: uniE07D
Encoding: 57469 57469 115
Width: 320
Flags: MW
HStem: 0 8<8 152 8 160> 312 8<8 152 8 8>
VStem: 0 8<8 8 8 312> 152 8<8 312 312 312>
LayerCount: 2
Fore
SplineSet
0 0 m 1
 0 320 l 1
 160 320 l 1
 160 0 l 1
 0 0 l 1
8 8 m 1
 152 8 l 1
 152 312 l 1
 8 312 l 1
 8 8 l 1
EndSplineSet
EndChar

StartChar: uniE07E
Encoding: 57470 57470 116
Width: 320
Flags: MW
HStem: 0 8<8 152 8 160> 312 8<8 152 8 8>
VStem: 0 8<8 8 8 312> 152 8<8 312 312 312>
LayerCount: 2
Fore
SplineSet
0 0 m 1
 0 320 l 1
 160 320 l 1
 160 0 l 1
 0 0 l 1
8 8 m 1
 152 8 l 1
 152 312 l 1
 8 312 l 1
 8 8 l 1
EndSplineSet
EndChar

StartChar: uniE07F
Encoding: 57471 57471 117
Width: 320
Flags: MW
HStem: 0 8<8 152 8 160> 312 8<8 152 8 8>
VStem: 0 8<8 8 8 312> 152 8<8 312 312 312>
LayerCount: 2
Fore
SplineSet
0 0 m 1
 0 320 l 1
 160 320 l 1
 160 0 l 1
 0 0 l 1
8 8 m 1
 152 8 l 1
 152 312 l 1
 8 312 l 1
 8 8 l 1
EndSplineSet
EndChar

StartChar: uniE080
Encoding: 57472 57472 118
Width: 338
Flags: MW
HStem: -194 20<137.5 200.5 137.5 214> 174 20<137.5 200.5>
VStem: 0 106<-39 35 -39 52.5> 232 106<-39 35>
LayerCount: 2
Fore
SplineSet
0 0 m 0
 0 105 79 194 169 194 c 0
 259 194 338 105 338 0 c 0
 338 -106 259 -194 169 -194 c 0
 79 -194 0 -106 0 0 c 0
106 0 m 0
 106 -78 106 -174 169 -174 c 0
 232 -174 232 -78 232 0 c 0
 232 70 232 174 169 174 c 0
 106 174 106 70 106 0 c 0
EndSplineSet
EndChar

StartChar: uniE081
Encoding: 57473 57473 119
Width: 227
Flags: MW
HStem: -194 28<43 46 46 53.5 200.5 208>
VStem: 79 96<-119 109 109 109>
LayerCount: 2
Fore
SplineSet
0 28 m 0
 0 31 2 34 2 34 c 1
 80 187 l 1
 80 187 84 194 87 194 c 2
 170 194 l 2
 173 194 175 191 175 188 c 2
 175 -119 l 2
 175 -147 193 -166 208 -166 c 0
 214 -166 227 -166 227 -180 c 0
 227 -191 218 -194 208 -194 c 2
 46 -194 l 2
 36 -194 27 -191 27 -180 c 0
 27 -166 40 -166 46 -166 c 0
 61 -166 79 -147 79 -119 c 2
 79 109 l 1
 25 23 l 2
 22 17 19 15 14 15 c 0
 7 15 0 21 0 28 c 0
EndSplineSet
EndChar

StartChar: uniE082
Encoding: 57474 57474 120
Width: 302
Flags: MW
HStem: -194 84<194 253> -156 77<74 150.5> 170 24<113 148.5>
VStem: 10 101<99 123 99 141> 189 95<64.5 115.5>
LayerCount: 2
Fore
SplineSet
0 -171 m 0x78
 0 -105 56 -57 101 -26 c 0
 146 5 189 38 189 91 c 0
 189 140 171 170 126 170 c 0
 100 170 88 162 82 158 c 1
 99 150 111 133 111 113 c 0
 111 85 89 62 61 62 c 0
 33 62 10 85 10 113 c 0
 10 169 74 194 142 194 c 0
 215 194 284 162 284 91 c 0
 284 17 208 -29 157 -46 c 0
 106 -63 68 -86 43 -116 c 1
 69 -95 104 -79 138 -79 c 0x78
 163 -79 181 -84 199 -94 c 0
 217 -104 232 -110 245 -110 c 0
 261 -110 271 -102 276 -97 c 0
 281 -92 287 -86 292 -86 c 0
 297 -86 302 -90 302 -96 c 0
 302 -136 248 -194 207 -194 c 0xb8
 181 -194 164 -190 144 -177 c 0
 124 -164 110 -156 86 -156 c 0
 62 -156 55 -159 41 -170 c 0
 27 -181 22 -185 16 -185 c 0
 10 -185 0 -181 0 -171 c 0x78
EndSplineSet
EndChar

StartChar: uniE083
Encoding: 57475 57475 121
Width: 270
Flags: MW
HStem: -194 24<98 128.5 97.5 167> 6 20<91 116> 170 24<103 134>
VStem: 0 101<-122 -98 -122 -98 99 123> 174 96<-111.5 -64>
LayerCount: 2
Fore
SplineSet
0 -112 m 0
 0 -84 22 -62 50 -62 c 0
 78 -62 101 -84 101 -112 c 0
 101 -132 89 -150 71 -158 c 1
 76 -162 88 -170 107 -170 c 0
 150 -170 174 -132 174 -91 c 0
 174 -37 136 6 96 6 c 0
 86 6 83 11 83 16 c 0
 83 21 86 26 96 26 c 0
 136 26 177 57 177 100 c 0
 177 145 152 170 116 170 c 0
 90 170 78 162 72 158 c 1
 89 150 101 133 101 113 c 0
 101 85 78 62 50 62 c 0
 22 62 0 85 0 113 c 0
 0 169 64 194 132 194 c 0
 205 194 266 170 266 100 c 0
 266 53 218 34 170 16 c 1
 238 2 270 -25 270 -91 c 0
 270 -147 202 -194 132 -194 c 0
 64 -194 0 -168 0 -112 c 0
EndSplineSet
EndChar

StartChar: uniE084
Encoding: 57476 57476 122
Width: 307
Flags: MW
HStem: -194 28<123 126 126 133.5 280.5 288> -97 27<11.5 159 40 159 40 159 255 286>
VStem: 159 96<-119 -97 -133 -97 -70 14 14 19>
LayerCount: 2
Fore
SplineSet
0 -85 m 0
 0 -83 0 -78 7 -70 c 0
 65 -8 108 102 108 177 c 0
 108 188 109 194 115 194 c 2
 254 194 l 2
 260 194 262 190 262 185 c 0
 262 183 260 178 258 176 c 2
 40 -70 l 1
 159 -70 l 1
 159 14 l 2
 159 24 169 33 188 54 c 2
 235 107 l 1
 235 107 242 115 248 115 c 0
 250 115 255 114 255 107 c 2
 255 -70 l 1
 286 -70 l 1
 286 -70 297 -70 297 -83 c 0
 297 -96 286 -97 286 -97 c 1
 255 -97 l 1
 255 -119 l 2
 255 -147 273 -166 288 -166 c 0
 294 -166 307 -166 307 -180 c 0
 307 -191 298 -194 288 -194 c 2
 126 -194 l 2
 116 -194 107 -191 107 -180 c 0
 107 -166 120 -166 126 -166 c 0
 141 -166 159 -147 159 -119 c 2
 159 -97 l 1
 15 -97 l 2
 8 -97 0 -92 0 -85 c 0
EndSplineSet
EndChar

StartChar: uniE085
Encoding: 57477 57477 123
Width: 270
Flags: MW
HStem: -194 24<98 127.5 97.5 167> 29 32<109 119> 102 76<124.5 153.5 124.5 166>
VStem: 0 101<-122 -98 -122 -98> 175 95<-95 -37>
LayerCount: 2
Fore
SplineSet
0 -112 m 0
 0 -84 22 -62 50 -62 c 0
 78 -62 101 -84 101 -112 c 0
 101 -132 89 -150 71 -158 c 1
 76 -162 88 -170 107 -170 c 0
 148 -170 175 -124 175 -66 c 0
 175 -8 140 29 98 29 c 0
 66 29 55 23 42 14 c 0
 29 5 28 6 22 6 c 0
 14 6 14 14 14 20 c 0
 14 22 16 60 18 94 c 0
 20 128 24 175 24 177 c 0
 24 188 27 194 33 194 c 0
 43 194 53 192 69 187 c 0
 85 182 110 178 139 178 c 0
 168 178 201 182 217 187 c 0
 233 192 246 194 256 194 c 0
 261 194 264 190 264 184 c 0
 264 178 264 164 250 146 c 0
 236 128 193 102 139 102 c 0
 105 102 69 109 41 118 c 1
 36 39 l 1
 67 60 96 61 122 61 c 0
 198 61 270 10 270 -66 c 0
 270 -142 202 -194 132 -194 c 0
 64 -194 0 -168 0 -112 c 0
EndSplineSet
EndChar

StartChar: uniE086
Encoding: 57478 57478 124
Width: 311
Flags: MW
HStem: -194 20<150.5 189.5 150.5 206> 12 20<159.5 189.5> 174 20<157.5 201.5>
VStem: 0 106<14 54 14 56.5> 0 122<-105 56.5> 197 101<102 127> 217 94<-105 -57>
LayerCount: 2
Fore
SplineSet
0 2 m 0xea
 0 111 82 194 180 194 c 0
 239 194 298 164 298 116 c 0
 298 88 275 66 247 66 c 0
 219 66 197 88 197 116 c 0
 197 138 210 157 230 164 c 1
 224 168 213 174 190 174 c 0
 125 174 106 94 106 14 c 1xf4
 131 28 149 32 170 32 c 0
 241 32 311 10 311 -81 c 0
 311 -141 242 -194 170 -194 c 0
 68 -194 0 -92 0 2 c 0xea
122 -81 m 0xea
 122 -129 131 -174 170 -174 c 0
 209 -174 217 -129 217 -81 c 0
 217 -33 209 12 170 12 c 0
 131 12 122 -33 122 -81 c 0xea
EndSplineSet
EndChar

StartChar: uniE087
Encoding: 57479 57479 125
Width: 290
Flags: MW
HStem: 96 58<145 238.5> 138 41
VStem: 0 24 58 121<-182 -137 -182 -135>
LayerCount: 2
Fore
SplineSet
0 87 m 2x70
 0 179 l 2
 0 185 5 187 10 187 c 0
 15 187 19 185 22 183 c 0
 25 181 28 179 33 179 c 0x70
 43 179 56 183 69 187 c 0
 82 191 96 194 110 194 c 0
 144 194 179 183 196 169 c 0
 213 155 221 154 230 154 c 0
 247 154 256 163 270 181 c 0
 273 186 276 187 281 187 c 0
 286 187 290 184 290 178 c 0
 290 129 247 40 224 2 c 0
 201 -36 179 -100 179 -174 c 0
 179 -190 179 -194 171 -194 c 2
 66 -194 l 2
 59 -194 58 -190 58 -174 c 0
 58 -96 123 -9 165 29 c 0
 207 67 229 96 250 130 c 1
 222 109 190 96 158 96 c 0xb0
 132 96 106 105 86 122 c 0
 72 133 63 138 55 138 c 0
 38 138 32 120 24 91 c 0
 22 81 16 79 10 79 c 0
 4 79 0 81 0 87 c 2x70
EndSplineSet
EndChar

StartChar: uniE088
Encoding: 57480 57480 126
Width: 320
Flags: MW
HStem: -194 27<129.5 179 129.5 196.5> 167 27<141.5 183.5>
VStem: 0 56<-97.5 -60 -97.5 -57.5> 20 84<113 118.5> 226 94<-113.5 -101.5> 234 66<77 105>
LayerCount: 2
Fore
SplineSet
0 -73 m 0xe8
 0 -42 18 -4 52 14 c 1
 30 28 20 55 20 84 c 0
 20 153 76 194 160 194 c 0
 244 194 300 153 300 84 c 0xd4
 300 55 284 32 268 14 c 1
 304 -11 320 -35 320 -73 c 0
 320 -154 233 -194 160 -194 c 0
 87 -194 0 -145 0 -73 c 0xe8
56 -73 m 0xe8
 56 -122 99 -167 160 -167 c 0
 198 -167 226 -147 226 -122 c 0
 226 -81 157 -43 86 -9 c 1
 72 -25 56 -47 56 -73 c 0xe8
104 133 m 0xd4
 104 93 171 61 221 38 c 1
 231 48 234 70 234 84 c 0
 234 126 207 167 160 167 c 0
 123 167 104 151 104 133 c 0xd4
EndSplineSet
EndChar

StartChar: uniE089
Encoding: 57481 57481 127
Width: 311
Flags: MW
HStem: -194 20<110.5 154.5 110.5 180> -32 20<122.5 152.5> 174 20<122.5 161.5>
VStem: 0 94<57 105 57 111> 14 100<-127 -102 -127 -102> 189 122<-56.5 105> 206 105<-54 -14>
LayerCount: 2
Fore
SplineSet
0 81 m 0xf2
 0 141 70 194 142 194 c 0
 244 194 311 92 311 -2 c 0
 311 -111 229 -194 131 -194 c 0
 72 -194 14 -164 14 -116 c 0
 14 -88 36 -66 64 -66 c 0
 92 -66 114 -88 114 -116 c 0xec
 114 -138 101 -157 81 -164 c 1
 87 -168 99 -174 122 -174 c 0
 187 -174 206 -94 206 -14 c 1
 181 -28 163 -32 142 -32 c 0
 71 -32 0 -10 0 81 c 0xf2
94 81 m 0xf4
 94 33 103 -12 142 -12 c 0
 181 -12 189 33 189 81 c 0
 189 129 181 174 142 174 c 0
 103 174 94 129 94 81 c 0xf4
EndSplineSet
EndChar

StartChar: uniE08A
Encoding: 57482 57482 128
Width: 341
Flags: MW
HStem: -194 19<156 232> 175 19<152 214>
VStem: 0 90<-49.5 49.5> 220 114<82.5 113> 322 19<-85.5 -57>
LayerCount: 2
Fore
SplineSet
0 0 m 0xe8
 0 99 77 194 195 194 c 0
 255 194 334 161 334 98 c 0
 334 67 308 42 277 42 c 0
 246 42 220 67 220 98 c 0xf0
 220 128 242 153 271 155 c 1
 257 163 233 175 195 175 c 0
 109 175 90 128 90 0 c 0
 90 -128 117 -175 195 -175 c 0
 281 -175 322 -109 322 -62 c 0
 322 -52 328 -50 331 -50 c 0
 334 -50 341 -52 341 -62 c 0
 341 -140 269 -194 195 -194 c 0
 77 -194 0 -99 0 0 c 0xe8
EndSplineSet
EndChar

StartChar: uniE08B
Encoding: 57483 57483 129
Width: 341
Flags: MW
HStem: -193 19<171 171> 174 19<171 171>
VStem: 0 90<-46 46> 171 24<-318 -194 -318 -193 -318 -193 -174 174 174 174 194 318> 220 114<82.5 113> 322 19<-85.5 -57>
LayerCount: 2
Fore
SplineSet
0 0 m 0xf4
 0 92 67 181 171 193 c 1
 171 318 l 1
 171 318 171 330 183 330 c 0
 195 330 195 318 195 318 c 1
 195 194 l 1
 255 194 334 161 334 98 c 0
 334 67 308 42 277 42 c 0
 246 42 220 67 220 98 c 0xf8
 220 128 242 153 271 155 c 1
 257 163 233 175 195 175 c 1
 195 -175 l 1
 281 -175 322 -109 322 -62 c 0
 322 -52 328 -50 331 -50 c 0
 334 -50 341 -52 341 -62 c 0
 341 -140 269 -194 195 -194 c 1
 195 -318 l 1
 195 -318 195 -330 183 -330 c 0
 171 -330 171 -318 171 -318 c 1
 171 -193 l 1
 67 -181 0 -92 0 0 c 0xf4
90 0 m 0
 90 -114 112 -164 171 -174 c 1
 171 174 l 1
 105 165 90 115 90 0 c 0
EndSplineSet
EndChar

StartChar: uniE08C
Encoding: 57484 57484 130
Width: 320
Flags: MW
HStem: 0 8<8 152 8 160> 312 8<8 152 8 8>
VStem: 0 8<8 8 8 312> 152 8<8 312 312 312>
LayerCount: 2
Fore
SplineSet
0 0 m 1
 0 320 l 1
 160 320 l 1
 160 0 l 1
 0 0 l 1
8 8 m 1
 152 8 l 1
 152 312 l 1
 8 312 l 1
 8 8 l 1
EndSplineSet
EndChar

StartChar: uniE08D
Encoding: 57485 57485 131
Width: 320
Flags: MW
HStem: 0 8<8 152 8 160> 312 8<8 152 8 8>
VStem: 0 8<8 8 8 312> 152 8<8 312 312 312>
LayerCount: 2
Fore
SplineSet
0 0 m 1
 0 320 l 1
 160 320 l 1
 160 0 l 1
 0 0 l 1
8 8 m 1
 152 8 l 1
 152 312 l 1
 8 312 l 1
 8 8 l 1
EndSplineSet
EndChar

StartChar: uniE08E
Encoding: 57486 57486 132
Width: 320
Flags: MW
HStem: 0 8<8 152 8 160> 312 8<8 152 8 8>
VStem: 0 8<8 8 8 312> 152 8<8 312 312 312>
LayerCount: 2
Fore
SplineSet
0 0 m 1
 0 320 l 1
 160 320 l 1
 160 0 l 1
 0 0 l 1
8 8 m 1
 152 8 l 1
 152 312 l 1
 8 312 l 1
 8 8 l 1
EndSplineSet
EndChar

StartChar: uniE08F
Encoding: 57487 57487 133
Width: 320
Flags: MW
HStem: 0 8<8 152 8 160> 312 8<8 152 8 8>
VStem: 0 8<8 8 8 312> 152 8<8 312 312 312>
LayerCount: 2
Fore
SplineSet
0 0 m 1
 0 320 l 1
 160 320 l 1
 160 0 l 1
 0 0 l 1
8 8 m 1
 152 8 l 1
 152 312 l 1
 8 312 l 1
 8 8 l 1
EndSplineSet
EndChar

StartChar: uniE090
Encoding: 57488 57488 134
Width: 320
Flags: MW
HStem: 0 8<8 152 8 160> 312 8<8 152 8 8>
VStem: 0 8<8 8 8 312> 152 8<8 312 312 312>
LayerCount: 2
Fore
SplineSet
0 0 m 1
 0 320 l 1
 160 320 l 1
 160 0 l 1
 0 0 l 1
8 8 m 1
 152 8 l 1
 152 312 l 1
 8 312 l 1
 8 8 l 1
EndSplineSet
EndChar

StartChar: uniE091
Encoding: 57489 57489 135
Width: 320
Flags: MW
HStem: 0 8<8 152 8 160> 312 8<8 152 8 8>
VStem: 0 8<8 8 8 312> 152 8<8 312 312 312>
LayerCount: 2
Fore
SplineSet
0 0 m 1
 0 320 l 1
 160 320 l 1
 160 0 l 1
 0 0 l 1
8 8 m 1
 152 8 l 1
 152 312 l 1
 8 312 l 1
 8 8 l 1
EndSplineSet
EndChar

StartChar: uniE092
Encoding: 57490 57490 136
Width: 83
Flags: MW
VStem: 0 43<-39 39 -39 41>
LayerCount: 2
Fore
SplineSet
0 0 m 0
 0 82 22 140 62 204 c 0
 68 213 72 214 74 214 c 0
 80 214 83 210 83 206 c 0
 83 204 82 201 79 194 c 0
 55 136 43 78 43 0 c 0
 43 -78 55 -136 79 -194 c 0
 82 -201 83 -204 83 -206 c 0
 83 -210 80 -214 74 -214 c 0
 72 -214 68 -213 62 -204 c 0
 22 -140 0 -82 0 0 c 0
EndSplineSet
EndChar

StartChar: uniE093
Encoding: 57491 57491 137
Width: 83
Flags: MW
VStem: 40 43<-39 39>
LayerCount: 2
Fore
SplineSet
0 -206 m 0
 0 -204 1 -201 4 -194 c 0
 28 -136 40 -78 40 0 c 0
 40 78 28 136 4 194 c 0
 1 201 0 204 0 206 c 0
 0 210 3 214 9 214 c 0
 11 214 15 213 21 204 c 0
 61 140 83 82 83 0 c 0
 83 -82 61 -140 21 -204 c 0
 15 -213 11 -214 9 -214 c 0
 3 -214 0 -210 0 -206 c 0
EndSplineSet
EndChar

StartChar: uniE094
Encoding: 57492 57492 138
Width: 83
Flags: MW
VStem: 0 43<-39 39 -39 41>
LayerCount: 2
Fore
SplineSet
0 0 m 0
 0 82 22 140 62 204 c 0
 68 213 72 214 74 214 c 0
 80 214 83 210 83 206 c 0
 83 204 82 201 79 194 c 0
 55 136 43 78 43 0 c 0
 43 -78 55 -136 79 -194 c 0
 82 -201 83 -204 83 -206 c 0
 83 -210 80 -214 74 -214 c 0
 72 -214 68 -213 62 -204 c 0
 22 -140 0 -82 0 0 c 0
EndSplineSet
EndChar

StartChar: uniE095
Encoding: 57493 57493 139
Width: 83
Flags: MW
VStem: 40 43<-39 39>
LayerCount: 2
Fore
SplineSet
0 -206 m 0
 0 -204 1 -201 4 -194 c 0
 28 -136 40 -78 40 0 c 0
 40 78 28 136 4 194 c 0
 1 201 0 204 0 206 c 0
 0 210 4 214 10 214 c 0
 12 214 16 213 22 204 c 0
 62 140 83 82 83 0 c 0
 83 -82 62 -140 22 -204 c 0
 16 -213 12 -214 10 -214 c 0
 4 -214 0 -210 0 -206 c 0
EndSplineSet
EndChar

StartChar: uniE096
Encoding: 57494 57494 140
Width: 320
Flags: MW
HStem: 0 8<8 152 8 160> 312 8<8 152 8 8>
VStem: 0 8<8 8 8 312> 152 8<8 312 312 312>
LayerCount: 2
Fore
SplineSet
0 0 m 1
 0 320 l 1
 160 320 l 1
 160 0 l 1
 0 0 l 1
8 8 m 1
 152 8 l 1
 152 312 l 1
 8 312 l 1
 8 8 l 1
EndSplineSet
EndChar

StartChar: uniE097
Encoding: 57495 57495 141
Width: 320
Flags: MW
HStem: 0 8<8 152 8 160> 312 8<8 152 8 8>
VStem: 0 8<8 8 8 312> 152 8<8 312 312 312>
LayerCount: 2
Fore
SplineSet
0 0 m 1
 0 320 l 1
 160 320 l 1
 160 0 l 1
 0 0 l 1
8 8 m 1
 152 8 l 1
 152 312 l 1
 8 312 l 1
 8 8 l 1
EndSplineSet
EndChar

StartChar: uniE098
Encoding: 57496 57496 142
Width: 320
Flags: MW
HStem: 0 8<8 152 8 160> 312 8<8 152 8 8>
VStem: 0 8<8 8 8 312> 152 8<8 312 312 312>
LayerCount: 2
Fore
SplineSet
0 0 m 1
 0 320 l 1
 160 320 l 1
 160 0 l 1
 0 0 l 1
8 8 m 1
 152 8 l 1
 152 312 l 1
 8 312 l 1
 8 8 l 1
EndSplineSet
EndChar

StartChar: uniE099
Encoding: 57497 57497 143
Width: 320
Flags: MW
HStem: 0 8<8 152 8 160> 312 8<8 152 8 8>
VStem: 0 8<8 8 8 312> 152 8<8 312 312 312>
LayerCount: 2
Fore
SplineSet
0 0 m 1
 0 320 l 1
 160 320 l 1
 160 0 l 1
 0 0 l 1
8 8 m 1
 152 8 l 1
 152 312 l 1
 8 312 l 1
 8 8 l 1
EndSplineSet
EndChar

StartChar: uniE09A
Encoding: 57498 57498 144
Width: 320
Flags: MW
HStem: 0 8<8 152 8 160> 312 8<8 152 8 8>
VStem: 0 8<8 8 8 312> 152 8<8 312 312 312>
LayerCount: 2
Fore
SplineSet
0 0 m 1
 0 320 l 1
 160 320 l 1
 160 0 l 1
 0 0 l 1
8 8 m 1
 152 8 l 1
 152 312 l 1
 8 312 l 1
 8 8 l 1
EndSplineSet
EndChar

StartChar: uniE09B
Encoding: 57499 57499 145
Width: 320
Flags: MW
HStem: 0 8<8 152 8 160> 312 8<8 152 8 8>
VStem: 0 8<8 8 8 312> 152 8<8 312 312 312>
LayerCount: 2
Fore
SplineSet
0 0 m 1
 0 320 l 1
 160 320 l 1
 160 0 l 1
 0 0 l 1
8 8 m 1
 152 8 l 1
 152 312 l 1
 8 312 l 1
 8 8 l 1
EndSplineSet
EndChar

StartChar: uniE09C
Encoding: 57500 57500 146
Width: 320
Flags: MW
HStem: 0 8<8 152 8 160> 312 8<8 152 8 8>
VStem: 0 8<8 8 8 312> 152 8<8 312 312 312>
LayerCount: 2
Fore
SplineSet
0 0 m 1
 0 320 l 1
 160 320 l 1
 160 0 l 1
 0 0 l 1
8 8 m 1
 152 8 l 1
 152 312 l 1
 8 312 l 1
 8 8 l 1
EndSplineSet
EndChar

StartChar: uniE09D
Encoding: 57501 57501 147
Width: 320
Flags: MW
HStem: 0 8<8 152 8 160> 312 8<8 152 8 8>
VStem: 0 8<8 8 8 312> 152 8<8 312 312 312>
LayerCount: 2
Fore
SplineSet
0 0 m 1
 0 320 l 1
 160 320 l 1
 160 0 l 1
 0 0 l 1
8 8 m 1
 152 8 l 1
 152 312 l 1
 8 312 l 1
 8 8 l 1
EndSplineSet
EndChar

StartChar: uniE09E
Encoding: 57502 57502 148
Width: 320
Flags: MW
HStem: 0 8<8 152 8 160> 312 8<8 152 8 8>
VStem: 0 8<8 8 8 312> 152 8<8 312 312 312>
LayerCount: 2
Fore
SplineSet
0 0 m 1
 0 320 l 1
 160 320 l 1
 160 0 l 1
 0 0 l 1
8 8 m 1
 152 8 l 1
 152 312 l 1
 8 312 l 1
 8 8 l 1
EndSplineSet
EndChar

StartChar: uniE09F
Encoding: 57503 57503 149
Width: 320
Flags: MW
HStem: 0 8<8 152 8 160> 312 8<8 152 8 8>
VStem: 0 8<8 8 8 312> 152 8<8 312 312 312>
LayerCount: 2
Fore
SplineSet
0 0 m 1
 0 320 l 1
 160 320 l 1
 160 0 l 1
 0 0 l 1
8 8 m 1
 152 8 l 1
 152 312 l 1
 8 312 l 1
 8 8 l 1
EndSplineSet
EndChar

StartChar: uniE0A0
Encoding: 57504 57504 150
Width: 533
Flags: MW
HStem: -108 14<263.5 303.5 263.5 311.5> 94 14<229.5 269.5>
VStem: 0 32<-126 126 -126 126> 54 32<-126 -14 14 126> 446 32<-126 -14 -14 -14 14 126 -126 126> 501 32<-126 126 -126 126>
LayerCount: 2
Fore
SplineSet
0 -126 m 1
 0 126 l 1
 0 126 0 142 16 142 c 0
 32 142 32 126 32 126 c 1
 32 -126 l 1
 32 -126 32 -142 16 -142 c 0
 0 -142 0 -126 0 -126 c 1
54 -126 m 1
 54 126 l 1
 54 126 54 142 70 142 c 0
 86 142 86 126 86 126 c 1
 86 14 l 1
 98 67 175 108 266 108 c 0
 357 108 434 67 446 14 c 1
 446 126 l 1
 446 126 446 142 462 142 c 0
 478 142 478 126 478 126 c 1
 478 -126 l 1
 478 -126 478 -142 462 -142 c 0
 446 -142 446 -126 446 -126 c 1
 446 -14 l 1
 434 -67 357 -108 266 -108 c 0
 175 -108 98 -67 86 -14 c 1
 86 -126 l 1
 86 -126 86 -142 70 -142 c 0
 54 -142 54 -126 54 -126 c 1
185 24 m 0
 185 -34 240 -94 287 -94 c 0
 320 -94 348 -63 348 -24 c 0
 348 34 293 94 246 94 c 0
 213 94 185 63 185 24 c 0
501 -126 m 1
 501 126 l 1
 501 126 501 142 517 142 c 0
 533 142 533 126 533 126 c 1
 533 -126 l 1
 533 -126 533 -142 517 -142 c 0
 501 -142 501 -126 501 -126 c 1
EndSplineSet
EndChar

StartChar: uniE0A1
Encoding: 57505 57505 151
Width: 419
Flags: MW
HStem: -112 64<44 339 80 339 339 363> 48 64<56 80 80 339>
VStem: 0 32<-168 -144 -18 -8 -8 8 144 168> 387 32<-168 -144 -144 -144 -8 8 8 18 144 168 -168 168>
LayerCount: 2
Fore
SplineSet
0 -168 m 1
 0 168 l 1
 0 168 0 184 16 184 c 0
 32 184 32 168 32 168 c 1
 32 144 l 1
 32 144 32 112 56 112 c 2
 363 112 l 2
 387 112 387 144 387 144 c 1
 387 168 l 1
 387 168 387 184 403 184 c 0
 419 184 419 168 419 168 c 1
 419 -168 l 1
 419 -168 419 -184 403 -184 c 0
 387 -184 387 -168 387 -168 c 1
 387 -144 l 1
 387 -144 387 -112 363 -112 c 2
 56 -112 l 2
 32 -112 32 -144 32 -144 c 1
 32 -168 l 1
 32 -168 32 -184 16 -184 c 0
 0 -184 0 -168 0 -168 c 1
32 8 m 2
 32 -8 l 2
 32 -28 32 -48 80 -48 c 2
 339 -48 l 2
 387 -48 387 -28 387 -8 c 2
 387 8 l 2
 387 28 387 48 339 48 c 2
 80 48 l 2
 32 48 32 28 32 8 c 2
EndSplineSet
EndChar

StartChar: uniE0A2
Encoding: 57506 57506 152
Width: 363
Flags: MW
HStem: -108 14<178.5 218.5 178.5 230.5> 94 14<144.5 184.5>
VStem: 0 100<-5 30> 263 100<-30 5>
LayerCount: 2
Fore
SplineSet
0 0 m 0
 0 60 82 108 181 108 c 0
 280 108 363 60 363 0 c 0
 363 -60 280 -108 181 -108 c 0
 82 -108 0 -60 0 0 c 0
100 24 m 0
 100 -34 155 -94 202 -94 c 0
 235 -94 263 -63 263 -24 c 0
 263 34 208 94 161 94 c 0
 128 94 100 63 100 24 c 0
EndSplineSet
EndChar

StartChar: uniE0A3
Encoding: 57507 57507 153
Width: 253
Flags: MW
HStem: -108 30<65 71 40.5 133.5> 78 30<182 188 119.5 212.5>
VStem: 0 28<-53 -44.5 -68.5 7> 225 28<44.5 53 -7 68.5>
LayerCount: 2
Fore
SplineSet
0 -30 m 0
 0 44 78 108 161 108 c 0
 215 108 253 76 253 30 c 0
 253 -44 175 -108 92 -108 c 0
 38 -108 0 -76 0 -30 c 0
28 -64 m 0
 28 -73 35 -78 46 -78 c 0
 96 -78 225 25 225 64 c 0
 225 73 218 78 207 78 c 0
 157 78 28 -25 28 -64 c 0
EndSplineSet
EndChar

StartChar: uniE0A4
Encoding: 57508 57508 154
Width: 253
Flags: MW
HStem: -108 216<119.5 133.5>
VStem: 0 253<-7 7>
LayerCount: 2
Fore
SplineSet
0 -30 m 0
 0 44 78 108 161 108 c 0
 215 108 253 76 253 30 c 0
 253 -44 175 -108 92 -108 c 0
 38 -108 0 -76 0 -30 c 0
EndSplineSet
EndChar

StartChar: uniE0A5
Encoding: 57509 57509 155
Width: 320
Flags: MW
HStem: 0 8<8 152 8 160> 312 8<8 152 8 8>
VStem: 0 8<8 8 8 312> 152 8<8 312 312 312>
LayerCount: 2
Fore
SplineSet
0 0 m 1
 0 320 l 1
 160 320 l 1
 160 0 l 1
 0 0 l 1
8 8 m 1
 152 8 l 1
 152 312 l 1
 8 312 l 1
 8 8 l 1
EndSplineSet
EndChar

StartChar: uniE0A6
Encoding: 57510 57510 156
Width: 320
Flags: MW
HStem: 0 8<8 152 8 160> 312 8<8 152 8 8>
VStem: 0 8<8 8 8 312> 152 8<8 312 312 312>
LayerCount: 2
Fore
SplineSet
0 0 m 1
 0 320 l 1
 160 320 l 1
 160 0 l 1
 0 0 l 1
8 8 m 1
 152 8 l 1
 152 312 l 1
 8 312 l 1
 8 8 l 1
EndSplineSet
EndChar

StartChar: uniE0A7
Encoding: 57511 57511 157
Width: 352
Flags: MW
HStem: -107 24<36 41 36 43 311 316> -45 27<176 176> 18 27<176 176> 83 24<36 41 311 316>
VStem: 0 24<-72 -64 -72 -59.5 64 72> 86 54<0 0> 212 54<0 0> 328 24<-72 -64 64 72>
LayerCount: 2
Fore
SplineSet
0 67 m 0
 0 91 20 107 40 107 c 0
 46 107 52 105 58 103 c 2
 176 45 l 1
 294 103 l 2
 300 105 306 107 312 107 c 0
 332 107 352 91 352 67 c 0
 352 52 344 38 330 31 c 2
 266 0 l 1
 330 -31 l 2
 344 -38 352 -52 352 -67 c 0
 352 -91 332 -107 312 -107 c 0
 306 -107 300 -105 294 -103 c 2
 176 -45 l 1
 58 -103 l 2
 52 -105 46 -107 40 -107 c 0
 20 -107 0 -91 0 -67 c 0
 0 -52 8 -38 22 -31 c 2
 86 0 l 1
 22 31 l 2
 8 38 0 52 0 67 c 0
24 -67 m 0
 24 -77 32 -83 40 -83 c 0
 42 -83 45 -83 47 -82 c 2
 176 -18 l 1
 305 -82 l 2
 307 -83 310 -83 312 -83 c 0
 320 -83 328 -77 328 -67 c 0
 328 -61 325 -55 319 -53 c 2
 212 0 l 1
 319 53 l 2
 325 55 328 61 328 67 c 0
 328 77 320 83 312 83 c 0
 310 83 307 83 305 82 c 2
 176 18 l 1
 47 82 l 2
 45 83 42 83 40 83 c 0
 32 83 24 77 24 67 c 0
 24 61 27 55 33 53 c 2
 140 0 l 1
 33 -53 l 2
 27 -55 24 -61 24 -67 c 0
EndSplineSet
EndChar

StartChar: uniE0A8
Encoding: 57512 57512 158
Width: 240
Flags: MW
HStem: -107 24<35.5 42 35.5 44.5 198 204.5> -52 31<120 120> 21 31<120 120> 83 24<35.5 42 198 204.5>
VStem: 0 24<-71.5 -64.5 -71.5 -61.5 64.5 71.5> 58 37<0 0> 145 37<0 0> 216 24<-71.5 -64.5 64.5 71.5>
LayerCount: 2
Fore
SplineSet
0 67 m 0
 0 89 19 107 40 107 c 0
 49 107 59 104 66 98 c 2
 120 52 l 1
 174 98 l 2
 181 104 191 107 200 107 c 0
 221 107 240 89 240 67 c 0
 240 56 236 45 226 37 c 2
 182 0 l 1
 226 -37 l 2
 236 -45 240 -56 240 -67 c 0
 240 -89 221 -107 200 -107 c 0
 191 -107 181 -104 174 -98 c 2
 120 -52 l 1
 66 -98 l 2
 59 -104 49 -107 40 -107 c 0
 19 -107 0 -89 0 -67 c 0
 0 -56 4 -45 14 -37 c 2
 58 0 l 1
 14 37 l 2
 4 45 0 56 0 67 c 0
24 -67 m 0
 24 -76 31 -83 40 -83 c 0
 44 -83 47 -81 50 -79 c 2
 120 -21 l 1
 190 -79 l 2
 193 -81 196 -83 200 -83 c 0
 209 -83 216 -76 216 -67 c 0
 216 -62 214 -58 210 -55 c 2
 145 0 l 1
 210 55 l 2
 214 58 216 62 216 67 c 0
 216 76 209 83 200 83 c 0
 196 83 193 81 190 79 c 2
 120 21 l 1
 50 79 l 2
 47 81 44 83 40 83 c 0
 31 83 24 76 24 67 c 0
 24 62 26 58 30 55 c 2
 95 0 l 1
 30 -55 l 2
 26 -58 24 -62 24 -67 c 0
EndSplineSet
EndChar

StartChar: uniE0A9
Encoding: 57513 57513 159
Width: 240
Flags: MW
HStem: -23 46<120 120>
VStem: 94 52<0 0>
LayerCount: 2
Fore
SplineSet
0 -93 m 0
 0 -88 3 -82 7 -79 c 2
 94 0 l 1
 7 79 l 2
 3 82 0 88 0 93 c 0
 0 103 8 110 18 110 c 0
 22 110 27 109 30 106 c 2
 120 23 l 1
 210 106 l 2
 213 109 218 110 222 110 c 0
 232 110 240 103 240 93 c 0
 240 88 237 82 233 79 c 2
 146 0 l 1
 233 -79 l 2
 237 -82 240 -88 240 -93 c 0
 240 -103 232 -110 222 -110 c 0
 218 -110 213 -109 210 -106 c 2
 120 -23 l 1
 30 -106 l 2
 27 -109 22 -110 18 -110 c 0
 8 -110 0 -103 0 -93 c 0
EndSplineSet
EndChar

StartChar: uniE0AA
Encoding: 57514 57514 160
Width: 320
Flags: MW
HStem: 0 8<8 152 8 160> 312 8<8 152 8 8>
VStem: 0 8<8 8 8 312> 152 8<8 312 312 312>
LayerCount: 2
Fore
SplineSet
0 0 m 1
 0 320 l 1
 160 320 l 1
 160 0 l 1
 0 0 l 1
8 8 m 1
 152 8 l 1
 152 312 l 1
 8 312 l 1
 8 8 l 1
EndSplineSet
EndChar

StartChar: uniE0AB
Encoding: 57515 57515 161
Width: 320
Flags: MW
HStem: 0 8<8 152 8 160> 312 8<8 152 8 8>
VStem: 0 8<8 8 8 312> 152 8<8 312 312 312>
LayerCount: 2
Fore
SplineSet
0 0 m 1
 0 320 l 1
 160 320 l 1
 160 0 l 1
 0 0 l 1
8 8 m 1
 152 8 l 1
 152 312 l 1
 8 312 l 1
 8 8 l 1
EndSplineSet
EndChar

StartChar: uniE0AC
Encoding: 57516 57516 162
Width: 320
Flags: MW
HStem: 0 8<8 152 8 160> 312 8<8 152 8 8>
VStem: 0 8<8 8 8 312> 152 8<8 312 312 312>
LayerCount: 2
Fore
SplineSet
0 0 m 1
 0 320 l 1
 160 320 l 1
 160 0 l 1
 0 0 l 1
8 8 m 1
 152 8 l 1
 152 312 l 1
 8 312 l 1
 8 8 l 1
EndSplineSet
EndChar

StartChar: uniE0AD
Encoding: 57517 57517 163
Width: 320
Flags: MW
HStem: 0 8<8 152 8 160> 312 8<8 152 8 8>
VStem: 0 8<8 8 8 312> 152 8<8 312 312 312>
LayerCount: 2
Fore
SplineSet
0 0 m 1
 0 320 l 1
 160 320 l 1
 160 0 l 1
 0 0 l 1
8 8 m 1
 152 8 l 1
 152 312 l 1
 8 312 l 1
 8 8 l 1
EndSplineSet
EndChar

StartChar: uniE0AE
Encoding: 57518 57518 164
Width: 320
Flags: MW
HStem: 0 8<8 152 8 160> 312 8<8 152 8 8>
VStem: 0 8<8 8 8 312> 152 8<8 312 312 312>
LayerCount: 2
Fore
SplineSet
0 0 m 1
 0 320 l 1
 160 320 l 1
 160 0 l 1
 0 0 l 1
8 8 m 1
 152 8 l 1
 152 312 l 1
 8 312 l 1
 8 8 l 1
EndSplineSet
EndChar

StartChar: uniE0AF
Encoding: 57519 57519 165
Width: 320
Flags: MW
HStem: 0 8<8 152 8 160> 312 8<8 152 8 8>
VStem: 0 8<8 8 8 312> 152 8<8 312 312 312>
LayerCount: 2
Fore
SplineSet
0 0 m 1
 0 320 l 1
 160 320 l 1
 160 0 l 1
 0 0 l 1
8 8 m 1
 152 8 l 1
 152 312 l 1
 8 312 l 1
 8 8 l 1
EndSplineSet
EndChar

StartChar: uniE0B0
Encoding: 57520 57520 166
Width: 458
Flags: MW
HStem: -144 37<210 248 210 265> -26 52<229 229> 107 37<210 248>
VStem: 0 32<-126 126 -126 126> 54 32<-126 -22 22 126> 54 100<-19 19 -19 126> 202 53<0 0> 304 99<-19 19> 371 32<-126 -22 -22 -22 22 126 -126 126> 426 32<-126 126 -126 126>
CounterMasks: 1 e0
LayerCount: 2
Fore
SplineSet
0 -126 m 1xf240
 0 126 l 1
 0 126 0 142 16 142 c 0
 32 142 32 126 32 126 c 1
 32 -126 l 1
 32 -126 32 -142 16 -142 c 0
 0 -142 0 -126 0 -126 c 1xf240
54 -126 m 1xfac0
 54 126 l 1
 54 126 54 142 70 142 c 0
 86 142 86 126 86 126 c 1
 86 22 l 1
 96 91 157 144 229 144 c 0
 301 144 361 91 371 22 c 1
 371 126 l 1
 371 126 371 142 387 142 c 0
 403 142 403 126 403 126 c 1
 403 -126 l 1
 403 -126 403 -142 387 -142 c 0
 371 -142 371 -126 371 -126 c 1
 371 -22 l 1
 361 -91 301 -144 229 -144 c 0
 157 -144 96 -91 86 -22 c 1
 86 -126 l 1
 86 -126 86 -142 70 -142 c 0
 54 -142 54 -126 54 -126 c 1xfac0
142 -60 m 1
 202 0 l 1
 142 60 l 1
 142 60 154 38 154 0 c 0
 154 -38 142 -60 142 -60 c 1
168 -86 m 1
 168 -86 191 -107 229 -107 c 0
 267 -107 290 -86 290 -86 c 1
 229 -26 l 1
 168 -86 l 1
168 86 m 1
 229 26 l 1
 290 86 l 1
 290 86 267 107 229 107 c 0
 191 107 168 86 168 86 c 1
255 0 m 1
 316 -60 l 1
 316 -60 304 -38 304 0 c 0
 304 38 316 60 316 60 c 1
 255 0 l 1
426 -126 m 1
 426 126 l 1
 426 126 426 142 442 142 c 0
 458 142 458 126 458 126 c 1
 458 -126 l 1
 458 -126 458 -142 442 -142 c 0
 426 -142 426 -126 426 -126 c 1
EndSplineSet
EndChar

StartChar: uniE0B1
Encoding: 57521 57521 167
Width: 288
Flags: MW
HStem: -144 37<125 163 125 183.5> -26 52<144 144> 107 37<125 163>
VStem: 0 69<-19 19 -19 39.5> 118 52<0 0> 219 69<-19 19>
CounterMasks: 1 fc
LayerCount: 2
Fore
SplineSet
0 0 m 0
 0 79 65 144 144 144 c 0
 223 144 288 79 288 0 c 0
 288 -79 223 -144 144 -144 c 0
 65 -144 0 -79 0 0 c 0
57 -60 m 1
 118 0 l 1
 57 60 l 1
 57 60 69 38 69 0 c 0
 69 -38 57 -60 57 -60 c 1
83 -86 m 1
 83 -86 106 -107 144 -107 c 0
 182 -107 205 -86 205 -86 c 1
 144 -26 l 1
 83 -86 l 1
83 86 m 1
 144 26 l 1
 205 86 l 1
 205 86 182 107 144 107 c 0
 106 107 83 86 83 86 c 1
170 0 m 1
 231 -60 l 1
 231 -60 219 -38 219 0 c 0
 219 38 231 60 231 60 c 1
 170 0 l 1
EndSplineSet
EndChar

StartChar: uniE0B2
Encoding: 57522 57522 168
Width: 288
Flags: MW
HStem: -144 58<125 163 125 183.5> -21 42<144 144> 86 58<125 163>
VStem: 0 37<-15 15 -15 39.5> 118 52<0 0> 251 37<-15 15>
CounterMasks: 1 fc
LayerCount: 2
Fore
SplineSet
0 0 m 0
 0 79 65 144 144 144 c 0
 223 144 288 79 288 0 c 0
 288 -79 223 -144 144 -144 c 0
 65 -144 0 -79 0 0 c 0
37 0 m 0
 37 -30 57 -48 57 -48 c 1
 118 0 l 1
 57 48 l 1
 57 48 37 30 37 0 c 0
83 -69 m 1
 83 -69 106 -86 144 -86 c 0
 182 -86 205 -69 205 -69 c 1
 144 -21 l 1
 83 -69 l 1
83 69 m 1
 144 21 l 1
 205 69 l 1
 205 69 182 86 144 86 c 0
 106 86 83 69 83 69 c 1
170 0 m 1
 231 -48 l 1
 231 -48 251 -30 251 0 c 0
 251 30 231 48 231 48 c 1
 170 0 l 1
EndSplineSet
EndChar

StartChar: uniE0B3
Encoding: 57523 57523 169
Width: 288
Flags: MW
HStem: -144 37<125 163 125 183.5> -26 52<144 144> 107 37<125 163>
VStem: 0 37<-19 19 -19 39.5> 118 52<0 0> 251 37<-19 19>
CounterMasks: 1 fc
LayerCount: 2
Fore
SplineSet
0 0 m 0
 0 79 65 144 144 144 c 0
 223 144 288 79 288 0 c 0
 288 -79 223 -144 144 -144 c 0
 65 -144 0 -79 0 0 c 0
37 0 m 0
 37 -38 57 -60 57 -60 c 1
 118 0 l 1
 57 60 l 1
 57 60 37 38 37 0 c 0
83 -86 m 1
 83 -86 106 -107 144 -107 c 0
 182 -107 205 -86 205 -86 c 1
 144 -26 l 1
 83 -86 l 1
83 86 m 1
 144 26 l 1
 205 86 l 1
 205 86 182 107 144 107 c 0
 106 107 83 86 83 86 c 1
170 0 m 1
 231 -60 l 1
 231 -60 251 -38 251 0 c 0
 251 38 231 60 231 60 c 1
 170 0 l 1
EndSplineSet
EndChar

StartChar: uniE0B4
Encoding: 57524 57524 170
Width: 320
Flags: MW
HStem: 0 8<8 152 8 160> 312 8<8 152 8 8>
VStem: 0 8<8 8 8 312> 152 8<8 312 312 312>
LayerCount: 2
Fore
SplineSet
0 0 m 1
 0 320 l 1
 160 320 l 1
 160 0 l 1
 0 0 l 1
8 8 m 1
 152 8 l 1
 152 312 l 1
 8 312 l 1
 8 8 l 1
EndSplineSet
EndChar

StartChar: uniE0B5
Encoding: 57525 57525 171
Width: 320
Flags: MW
HStem: 0 8<8 152 8 160> 312 8<8 152 8 8>
VStem: 0 8<8 8 8 312> 152 8<8 312 312 312>
LayerCount: 2
Fore
SplineSet
0 0 m 1
 0 320 l 1
 160 320 l 1
 160 0 l 1
 0 0 l 1
8 8 m 1
 152 8 l 1
 152 312 l 1
 8 312 l 1
 8 8 l 1
EndSplineSet
EndChar

StartChar: uniE0B6
Encoding: 57526 57526 172
Width: 320
Flags: MW
HStem: 0 8<8 152 8 160> 312 8<8 152 8 8>
VStem: 0 8<8 8 8 312> 152 8<8 312 312 312>
LayerCount: 2
Fore
SplineSet
0 0 m 1
 0 320 l 1
 160 320 l 1
 160 0 l 1
 0 0 l 1
8 8 m 1
 152 8 l 1
 152 312 l 1
 8 312 l 1
 8 8 l 1
EndSplineSet
EndChar

StartChar: uniE0B7
Encoding: 57527 57527 173
Width: 320
Flags: MW
HStem: 0 8<8 152 8 160> 312 8<8 152 8 8>
VStem: 0 8<8 8 8 312> 152 8<8 312 312 312>
LayerCount: 2
Fore
SplineSet
0 0 m 1
 0 320 l 1
 160 320 l 1
 160 0 l 1
 0 0 l 1
8 8 m 1
 152 8 l 1
 152 312 l 1
 8 312 l 1
 8 8 l 1
EndSplineSet
EndChar

StartChar: uniE0B8
Encoding: 57528 57528 174
Width: 320
Flags: MW
HStem: 0 8<8 152 8 160> 312 8<8 152 8 8>
VStem: 0 8<8 8 8 312> 152 8<8 312 312 312>
LayerCount: 2
Fore
SplineSet
0 0 m 1
 0 320 l 1
 160 320 l 1
 160 0 l 1
 0 0 l 1
8 8 m 1
 152 8 l 1
 152 312 l 1
 8 312 l 1
 8 8 l 1
EndSplineSet
EndChar

StartChar: uniE0B9
Encoding: 57529 57529 175
Width: 320
Flags: MW
HStem: 0 8<8 152 8 160> 312 8<8 152 8 8>
VStem: 0 8<8 8 8 312> 152 8<8 312 312 312>
LayerCount: 2
Fore
SplineSet
0 0 m 1
 0 320 l 1
 160 320 l 1
 160 0 l 1
 0 0 l 1
8 8 m 1
 152 8 l 1
 152 312 l 1
 8 312 l 1
 8 8 l 1
EndSplineSet
EndChar

StartChar: uniE0BA
Encoding: 57530 57530 176
Width: 541
Flags: MW
HStem: -90 20<242.5 297.5>
VStem: 0 32<-126 126 -126 126> 54 32<-126 -114 -105 126> 454 32<-126 -114 -114 -114 -105 126 -126 126> 509 32<-126 126 -126 126>
LayerCount: 2
Fore
SplineSet
0 -126 m 1
 0 126 l 1
 0 126 0 142 16 142 c 0
 32 142 32 126 32 126 c 1
 32 -126 l 1
 32 -126 32 -142 16 -142 c 0
 0 -142 0 -126 0 -126 c 1
54 -126 m 1
 54 126 l 1
 54 126 54 142 70 142 c 0
 86 142 86 126 86 126 c 1
 86 -105 l 1
 88 -102 95 -96 111 -81 c 0
 137 -56 236 58 255 108 c 1
 255 108 259 118 270 118 c 0
 281 118 286 108 286 108 c 1
 305 58 404 -56 430 -81 c 0
 446 -96 452 -102 454 -105 c 1
 454 126 l 1
 454 126 454 142 470 142 c 0
 486 142 486 126 486 126 c 1
 486 -126 l 1
 486 -126 486 -142 470 -142 c 0
 454 -142 454 -126 454 -126 c 1
 454 -114 l 1
 452 -116 449 -118 443 -118 c 0
 432 -118 420 -116 402 -110 c 0
 384 -104 325 -90 270 -90 c 0
 215 -90 157 -104 139 -110 c 0
 121 -116 109 -118 98 -118 c 0
 92 -118 88 -116 86 -114 c 1
 86 -126 l 1
 86 -126 86 -142 70 -142 c 0
 54 -142 54 -126 54 -126 c 1
188 -77 m 1
 188 -77 209 -70 270 -70 c 0
 331 -70 353 -77 353 -77 c 1
 311 -5 292 30 270 85 c 1
 248 30 230 -5 188 -77 c 1
509 -126 m 1
 509 126 l 1
 509 126 509 142 525 142 c 0
 541 142 541 126 541 126 c 1
 541 -126 l 1
 541 -126 541 -142 525 -142 c 0
 509 -142 509 -126 509 -126 c 1
EndSplineSet
EndChar

StartChar: uniE0BB
Encoding: 57531 57531 177
Width: 371
Flags: MW
HStem: -90 20<158.5 213.5>
LayerCount: 2
Fore
SplineSet
0 -110 m 0
 0 -106 0 -106 26 -81 c 0
 52 -56 151 58 170 108 c 1
 170 108 175 118 186 118 c 0
 197 118 201 108 201 108 c 1
 220 58 319 -56 345 -81 c 0
 371 -106 371 -106 371 -110 c 0
 371 -116 366 -118 358 -118 c 0
 347 -118 335 -116 317 -110 c 0
 299 -104 241 -90 186 -90 c 0
 131 -90 72 -104 54 -110 c 0
 36 -116 24 -118 13 -118 c 0
 5 -118 0 -116 0 -110 c 0
103 -77 m 1
 103 -77 125 -70 186 -70 c 0
 247 -70 268 -77 268 -77 c 1
 226 -5 208 30 186 85 c 1
 164 30 145 -5 103 -77 c 1
EndSplineSet
EndChar

StartChar: uniE0BC
Encoding: 57532 57532 178
Width: 258
Flags: MW
HStem: -90 36<133 148>
VStem: 0 258<-113 -108>
LayerCount: 2
Fore
SplineSet
0 -110 m 0
 0 -106 0 -106 18 -81 c 0
 36 -56 104 58 118 108 c 1
 118 108 121 118 129 118 c 0
 137 118 139 108 139 108 c 1
 153 58 221 -56 239 -81 c 0
 257 -106 258 -106 258 -110 c 0
 258 -116 255 -118 249 -118 c 0
 241 -118 232 -116 220 -110 c 0
 208 -104 167 -90 129 -90 c 0
 91 -90 50 -104 38 -110 c 0
 26 -116 17 -118 9 -118 c 0
 3 -118 0 -116 0 -110 c 0
48 -80 m 1
 48 -80 100 -54 166 -54 c 0
 184 -54 202 -58 202 -58 c 1
 184 -28 159 17 143 54 c 1
 133 34 73 -55 48 -80 c 1
EndSplineSet
EndChar

StartChar: uniE0BD
Encoding: 57533 57533 179
Width: 258
Flags: MW
HStem: -90 36<133 148>
VStem: 0 258<-113 -108>
LayerCount: 2
Fore
SplineSet
0 -110 m 0
 0 -106 0 -106 18 -81 c 0
 36 -56 104 58 118 108 c 1
 118 108 121 118 129 118 c 0
 137 118 139 108 139 108 c 1
 153 58 221 -56 239 -81 c 0
 257 -106 258 -106 258 -110 c 0
 258 -116 255 -118 249 -118 c 0
 241 -118 232 -116 220 -110 c 0
 208 -104 167 -90 129 -90 c 0
 91 -90 50 -104 38 -110 c 0
 26 -116 17 -118 9 -118 c 0
 3 -118 0 -116 0 -110 c 0
48 -80 m 1
 48 -80 100 -54 166 -54 c 0
 184 -54 202 -58 202 -58 c 1
 184 -28 159 17 143 54 c 1
 133 34 73 -55 48 -80 c 1
EndSplineSet
EndChar

StartChar: uniE0BE
Encoding: 57534 57534 180
Width: 258
Flags: MW
HStem: -118 236<6 133 125 252>
VStem: 0 258<-113 -108>
LayerCount: 2
Fore
SplineSet
0 -110 m 0
 0 -106 0 -106 18 -81 c 0
 36 -56 104 58 118 108 c 1
 118 108 121 118 129 118 c 0
 137 118 139 108 139 108 c 1
 153 58 221 -56 239 -81 c 0
 257 -106 258 -106 258 -110 c 0
 258 -116 255 -118 249 -118 c 0
 241 -118 232 -116 220 -110 c 0
 208 -104 167 -90 129 -90 c 0
 91 -90 50 -104 38 -110 c 0
 26 -116 17 -118 9 -118 c 0
 3 -118 0 -116 0 -110 c 0
EndSplineSet
EndChar

StartChar: uniE0BF
Encoding: 57535 57535 181
Width: 320
Flags: MW
HStem: 0 8<8 152 8 160> 312 8<8 152 8 8>
VStem: 0 8<8 8 8 312> 152 8<8 312 312 312>
LayerCount: 2
Fore
SplineSet
0 0 m 1
 0 320 l 1
 160 320 l 1
 160 0 l 1
 0 0 l 1
8 8 m 1
 152 8 l 1
 152 312 l 1
 8 312 l 1
 8 8 l 1
EndSplineSet
EndChar

StartChar: uniE0C0
Encoding: 57536 57536 182
Width: 320
Flags: MW
HStem: 0 8<8 152 8 160> 312 8<8 152 8 8>
VStem: 0 8<8 8 8 312> 152 8<8 312 312 312>
LayerCount: 2
Fore
SplineSet
0 0 m 1
 0 320 l 1
 160 320 l 1
 160 0 l 1
 0 0 l 1
8 8 m 1
 152 8 l 1
 152 312 l 1
 8 312 l 1
 8 8 l 1
EndSplineSet
EndChar

StartChar: uniE0C1
Encoding: 57537 57537 183
Width: 320
Flags: MW
HStem: 0 8<8 152 8 160> 312 8<8 152 8 8>
VStem: 0 8<8 8 8 312> 152 8<8 312 312 312>
LayerCount: 2
Fore
SplineSet
0 0 m 1
 0 320 l 1
 160 320 l 1
 160 0 l 1
 0 0 l 1
8 8 m 1
 152 8 l 1
 152 312 l 1
 8 312 l 1
 8 8 l 1
EndSplineSet
EndChar

StartChar: uniE0C2
Encoding: 57538 57538 184
Width: 320
Flags: MW
HStem: 0 8<8 152 8 160> 312 8<8 152 8 8>
VStem: 0 8<8 8 8 312> 152 8<8 312 312 312>
LayerCount: 2
Fore
SplineSet
0 0 m 1
 0 320 l 1
 160 320 l 1
 160 0 l 1
 0 0 l 1
8 8 m 1
 152 8 l 1
 152 312 l 1
 8 312 l 1
 8 8 l 1
EndSplineSet
EndChar

StartChar: uniE0C3
Encoding: 57539 57539 185
Width: 541
Flags: MW
HStem: 70 20<242.5 297.5 242.5 300.5>
VStem: 0 32<-126 126 -126 126> 54 32<-126 105 114 126 -126 126 -126 126> 454 32<-126 105 105 105 114 126 -126 126> 509 32<-126 126 -126 126>
LayerCount: 2
Fore
SplineSet
0 -126 m 1
 0 126 l 1
 0 126 0 142 16 142 c 0
 32 142 32 126 32 126 c 1
 32 -126 l 1
 32 -126 32 -142 16 -142 c 0
 0 -142 0 -126 0 -126 c 1
54 -126 m 1
 54 126 l 1
 54 126 54 142 70 142 c 0
 86 142 86 126 86 126 c 1
 86 114 l 1
 88 116 92 118 98 118 c 0
 109 118 121 116 139 110 c 0
 157 104 215 90 270 90 c 0
 325 90 384 104 402 110 c 0
 420 116 432 118 443 118 c 0
 449 118 452 116 454 114 c 1
 454 126 l 1
 454 126 454 142 470 142 c 0
 486 142 486 126 486 126 c 1
 486 -126 l 1
 486 -126 486 -142 470 -142 c 0
 454 -142 454 -126 454 -126 c 1
 454 105 l 1
 452 102 446 96 430 81 c 0
 404 56 305 -58 286 -108 c 1
 286 -108 281 -118 270 -118 c 0
 259 -118 255 -108 255 -108 c 1
 236 -58 137 56 111 81 c 0
 95 96 88 102 86 105 c 1
 86 -126 l 1
 86 -126 86 -142 70 -142 c 0
 54 -142 54 -126 54 -126 c 1
188 77 m 1
 230 5 248 -30 270 -85 c 1
 292 -30 311 5 353 77 c 1
 353 77 331 70 270 70 c 0
 209 70 188 77 188 77 c 1
509 -126 m 1
 509 126 l 1
 509 126 509 142 525 142 c 0
 541 142 541 126 541 126 c 1
 541 -126 l 1
 541 -126 541 -142 525 -142 c 0
 509 -142 509 -126 509 -126 c 1
EndSplineSet
EndChar

StartChar: uniE0C4
Encoding: 57540 57540 186
Width: 371
Flags: MW
HStem: 70 20<158.5 213.5 158.5 216.5>
LayerCount: 2
Fore
SplineSet
0 110 m 0
 0 116 5 118 13 118 c 0
 24 118 36 116 54 110 c 0
 72 104 131 90 186 90 c 0
 241 90 299 104 317 110 c 0
 335 116 347 118 358 118 c 0
 366 118 371 116 371 110 c 0
 371 106 371 106 345 81 c 0
 319 56 220 -58 201 -108 c 1
 201 -108 197 -118 186 -118 c 0
 175 -118 170 -108 170 -108 c 1
 151 -58 52 56 26 81 c 0
 0 106 0 106 0 110 c 0
103 77 m 1
 145 5 164 -30 186 -85 c 1
 208 -30 226 5 268 77 c 1
 268 77 247 70 186 70 c 0
 125 70 103 77 103 77 c 1
EndSplineSet
EndChar

StartChar: uniE0C5
Encoding: 57541 57541 187
Width: 258
Flags: MW
HStem: 54 36<133 148 110 175>
VStem: 0 258<108 113>
LayerCount: 2
Fore
SplineSet
0 110 m 0
 0 116 3 118 9 118 c 0
 17 118 26 116 38 110 c 0
 50 104 91 90 129 90 c 0
 167 90 208 104 220 110 c 0
 232 116 241 118 249 118 c 0
 255 118 258 116 258 110 c 0
 258 106 257 106 239 81 c 0
 221 56 153 -58 139 -108 c 1
 139 -108 137 -118 129 -118 c 0
 121 -118 118 -108 118 -108 c 1
 104 -58 36 56 18 81 c 0
 0 106 0 106 0 110 c 0
48 80 m 1
 73 55 133 -34 143 -54 c 1
 159 -17 184 28 202 58 c 1
 202 58 184 54 166 54 c 0
 100 54 48 80 48 80 c 1
EndSplineSet
EndChar

StartChar: uniE0C6
Encoding: 57542 57542 188
Width: 258
Flags: MW
HStem: 54 36<133 148 110 175>
VStem: 0 258<108 113>
LayerCount: 2
Fore
SplineSet
0 110 m 0
 0 116 3 118 9 118 c 0
 17 118 26 116 38 110 c 0
 50 104 91 90 129 90 c 0
 167 90 208 104 220 110 c 0
 232 116 241 118 249 118 c 0
 255 118 258 116 258 110 c 0
 258 106 257 106 239 81 c 0
 221 56 153 -58 139 -108 c 1
 139 -108 137 -118 129 -118 c 0
 121 -118 118 -108 118 -108 c 1
 104 -58 36 56 18 81 c 0
 0 106 0 106 0 110 c 0
48 80 m 1
 73 55 133 -34 143 -54 c 1
 159 -17 184 28 202 58 c 1
 202 58 184 54 166 54 c 0
 100 54 48 80 48 80 c 1
EndSplineSet
EndChar

StartChar: uniE0C7
Encoding: 57543 57543 189
Width: 258
Flags: MW
HStem: -118 236<6 133>
VStem: 0 258<108 113>
LayerCount: 2
Fore
SplineSet
0 110 m 0
 0 116 3 118 9 118 c 0
 17 118 26 116 38 110 c 0
 50 104 91 90 129 90 c 0
 167 90 208 104 220 110 c 0
 232 116 241 118 249 118 c 0
 255 118 258 116 258 110 c 0
 258 106 257 106 239 81 c 0
 221 56 153 -58 139 -108 c 1
 139 -108 137 -118 129 -118 c 0
 121 -118 118 -108 118 -108 c 1
 104 -58 36 56 18 81 c 0
 0 106 0 106 0 110 c 0
EndSplineSet
EndChar

StartChar: uniE0C8
Encoding: 57544 57544 190
Width: 320
Flags: MW
HStem: 0 8<8 152 8 160> 312 8<8 152 8 8>
VStem: 0 8<8 8 8 312> 152 8<8 312 312 312>
LayerCount: 2
Fore
SplineSet
0 0 m 1
 0 320 l 1
 160 320 l 1
 160 0 l 1
 0 0 l 1
8 8 m 1
 152 8 l 1
 152 312 l 1
 8 312 l 1
 8 8 l 1
EndSplineSet
EndChar

StartChar: uniE0C9
Encoding: 57545 57545 191
Width: 320
Flags: MW
HStem: 0 8<8 152 8 160> 312 8<8 152 8 8>
VStem: 0 8<8 8 8 312> 152 8<8 312 312 312>
LayerCount: 2
Fore
SplineSet
0 0 m 1
 0 320 l 1
 160 320 l 1
 160 0 l 1
 0 0 l 1
8 8 m 1
 152 8 l 1
 152 312 l 1
 8 312 l 1
 8 8 l 1
EndSplineSet
EndChar

StartChar: uniE0CA
Encoding: 57546 57546 192
Width: 320
Flags: MW
HStem: 0 8<8 152 8 160> 312 8<8 152 8 8>
VStem: 0 8<8 8 8 312> 152 8<8 312 312 312>
LayerCount: 2
Fore
SplineSet
0 0 m 1
 0 320 l 1
 160 320 l 1
 160 0 l 1
 0 0 l 1
8 8 m 1
 152 8 l 1
 152 312 l 1
 8 312 l 1
 8 8 l 1
EndSplineSet
EndChar

StartChar: uniE0CB
Encoding: 57547 57547 193
Width: 320
Flags: MW
HStem: 0 8<8 152 8 160> 312 8<8 152 8 8>
VStem: 0 8<8 8 8 312> 152 8<8 312 312 312>
LayerCount: 2
Fore
SplineSet
0 0 m 1
 0 320 l 1
 160 320 l 1
 160 0 l 1
 0 0 l 1
8 8 m 1
 152 8 l 1
 152 312 l 1
 8 312 l 1
 8 8 l 1
EndSplineSet
EndChar

StartChar: uniE0CC
Encoding: 57548 57548 194
Width: 320
Flags: MW
HStem: 0 8<8 152 8 160> 312 8<8 152 8 8>
VStem: 0 8<8 8 8 312> 152 8<8 312 312 312>
LayerCount: 2
Fore
SplineSet
0 0 m 1
 0 320 l 1
 160 320 l 1
 160 0 l 1
 0 0 l 1
8 8 m 1
 152 8 l 1
 152 312 l 1
 8 312 l 1
 8 8 l 1
EndSplineSet
EndChar

StartChar: uniE0CD
Encoding: 57549 57549 195
Width: 320
Flags: MW
HStem: 0 8<8 152 8 160> 312 8<8 152 8 8>
VStem: 0 8<8 8 8 312> 152 8<8 312 312 312>
LayerCount: 2
Fore
SplineSet
0 0 m 1
 0 320 l 1
 160 320 l 1
 160 0 l 1
 0 0 l 1
8 8 m 1
 152 8 l 1
 152 312 l 1
 8 312 l 1
 8 8 l 1
EndSplineSet
EndChar

StartChar: uniE0CE
Encoding: 57550 57550 196
Width: 320
Flags: MW
HStem: 0 8<8 152 8 160> 312 8<8 152 8 8>
VStem: 0 8<8 8 8 312> 152 8<8 312 312 312>
LayerCount: 2
Fore
SplineSet
0 0 m 1
 0 320 l 1
 160 320 l 1
 160 0 l 1
 0 0 l 1
8 8 m 1
 152 8 l 1
 152 312 l 1
 8 312 l 1
 8 8 l 1
EndSplineSet
EndChar

StartChar: uniE0CF
Encoding: 57551 57551 197
Width: 320
Flags: MW
HStem: 0 8<8 152 8 160> 312 8<8 152 8 8>
VStem: 0 8<8 8 8 312> 152 8<8 312 312 312>
LayerCount: 2
Fore
SplineSet
0 0 m 1
 0 320 l 1
 160 320 l 1
 160 0 l 1
 0 0 l 1
8 8 m 1
 152 8 l 1
 152 312 l 1
 8 312 l 1
 8 8 l 1
EndSplineSet
EndChar

StartChar: uniE0D0
Encoding: 57552 57552 198
Width: 320
Flags: MW
HStem: 0 8<8 152 8 160> 312 8<8 152 8 8>
VStem: 0 8<8 8 8 312> 152 8<8 312 312 312>
LayerCount: 2
Fore
SplineSet
0 0 m 1
 0 320 l 1
 160 320 l 1
 160 0 l 1
 0 0 l 1
8 8 m 1
 152 8 l 1
 152 312 l 1
 8 312 l 1
 8 8 l 1
EndSplineSet
EndChar

StartChar: uniE0D1
Encoding: 57553 57553 199
Width: 320
Flags: MW
HStem: 0 8<8 152 8 160> 312 8<8 152 8 8>
VStem: 0 8<8 8 8 312> 152 8<8 312 312 312>
LayerCount: 2
Fore
SplineSet
0 0 m 1
 0 320 l 1
 160 320 l 1
 160 0 l 1
 0 0 l 1
8 8 m 1
 152 8 l 1
 152 312 l 1
 8 312 l 1
 8 8 l 1
EndSplineSet
EndChar

StartChar: uniE0D2
Encoding: 57554 57554 200
Width: 320
Flags: MW
HStem: 0 8<8 152 8 160> 312 8<8 152 8 8>
VStem: 0 8<8 8 8 312> 152 8<8 312 312 312>
LayerCount: 2
Fore
SplineSet
0 0 m 1
 0 320 l 1
 160 320 l 1
 160 0 l 1
 0 0 l 1
8 8 m 1
 152 8 l 1
 152 312 l 1
 8 312 l 1
 8 8 l 1
EndSplineSet
EndChar

StartChar: uniE0D3
Encoding: 57555 57555 201
Width: 320
Flags: MW
HStem: 0 8<8 152 8 160> 312 8<8 152 8 8>
VStem: 0 8<8 8 8 312> 152 8<8 312 312 312>
LayerCount: 2
Fore
SplineSet
0 0 m 1
 0 320 l 1
 160 320 l 1
 160 0 l 1
 0 0 l 1
8 8 m 1
 152 8 l 1
 152 312 l 1
 8 312 l 1
 8 8 l 1
EndSplineSet
EndChar

StartChar: uniE0D4
Encoding: 57556 57556 202
Width: 320
Flags: MW
HStem: 0 8<8 152 8 160> 312 8<8 152 8 8>
VStem: 0 8<8 8 8 312> 152 8<8 312 312 312>
LayerCount: 2
Fore
SplineSet
0 0 m 1
 0 320 l 1
 160 320 l 1
 160 0 l 1
 0 0 l 1
8 8 m 1
 152 8 l 1
 152 312 l 1
 8 312 l 1
 8 8 l 1
EndSplineSet
EndChar

StartChar: uniE0D5
Encoding: 57557 57557 203
Width: 320
Flags: MW
HStem: 0 8<8 152 8 160> 312 8<8 152 8 8>
VStem: 0 8<8 8 8 312> 152 8<8 312 312 312>
LayerCount: 2
Fore
SplineSet
0 0 m 1
 0 320 l 1
 160 320 l 1
 160 0 l 1
 0 0 l 1
8 8 m 1
 152 8 l 1
 152 312 l 1
 8 312 l 1
 8 8 l 1
EndSplineSet
EndChar

StartChar: uniE0D6
Encoding: 57558 57558 204
Width: 320
Flags: MW
HStem: 0 8<8 152 8 160> 312 8<8 152 8 8>
VStem: 0 8<8 8 8 312> 152 8<8 312 312 312>
LayerCount: 2
Fore
SplineSet
0 0 m 1
 0 320 l 1
 160 320 l 1
 160 0 l 1
 0 0 l 1
8 8 m 1
 152 8 l 1
 152 312 l 1
 8 312 l 1
 8 8 l 1
EndSplineSet
EndChar

StartChar: uniE0D7
Encoding: 57559 57559 205
Width: 320
Flags: MW
HStem: 0 8<8 152 8 160> 312 8<8 152 8 8>
VStem: 0 8<8 8 8 312> 152 8<8 312 312 312>
LayerCount: 2
Fore
SplineSet
0 0 m 1
 0 320 l 1
 160 320 l 1
 160 0 l 1
 0 0 l 1
8 8 m 1
 152 8 l 1
 152 312 l 1
 8 312 l 1
 8 8 l 1
EndSplineSet
EndChar

StartChar: uniE0D8
Encoding: 57560 57560 206
Width: 370
Flags: MW
HStem: -111 222<181.5 188.5>
VStem: 0 91<0 0> 278 92<0 0>
LayerCount: 2
Fore
SplineSet
0 0 m 0
 0 6 5 9 45 20 c 0
 85 31 134 60 169 102 c 0
 175 109 178 111 185 111 c 0
 192 111 195 109 201 102 c 0
 236 60 285 31 325 20 c 0
 365 9 370 6 370 0 c 0
 370 -6 365 -9 325 -20 c 0
 285 -31 236 -60 201 -102 c 0
 195 -109 192 -111 185 -111 c 0
 178 -111 175 -109 169 -102 c 0
 134 -60 85 -31 45 -20 c 0
 5 -9 0 -6 0 0 c 0
91 0 m 1
 129 -22 159 -49 185 -83 c 1
 211 -49 240 -22 278 0 c 1
 240 22 211 49 185 83 c 1
 159 49 129 22 91 0 c 1
EndSplineSet
EndChar

StartChar: uniE0D9
Encoding: 57561 57561 207
Width: 258
Flags: MW
HStem: -111 222<126.5 131.5>
VStem: 0 258<-3 3>
LayerCount: 2
Fore
SplineSet
0 0 m 0
 0 6 3 9 31 20 c 0
 59 31 93 60 118 102 c 0
 122 109 124 111 129 111 c 0
 134 111 136 109 140 102 c 0
 165 60 198 31 226 20 c 0
 254 9 258 6 258 0 c 0
 258 -6 254 -9 226 -20 c 0
 198 -31 165 -60 140 -102 c 0
 136 -109 134 -111 129 -111 c 0
 124 -111 122 -109 118 -102 c 0
 93 -60 59 -31 31 -20 c 0
 3 -9 0 -6 0 0 c 0
53 -10 m 1
 77 -26 104 -44 120 -68 c 1
 128 -50 187 2 205 10 c 1
 181 26 154 44 138 68 c 1
 130 50 71 -2 53 -10 c 1
EndSplineSet
EndChar

StartChar: uniE0DA
Encoding: 57562 57562 208
Width: 370
Flags: MW
HStem: -111 222<181.5 188.5>
VStem: 0 91<0 0> 278 92<0 0>
LayerCount: 2
Fore
SplineSet
0 0 m 0
 0 6 5 9 45 20 c 0
 85 31 134 60 169 102 c 0
 175 109 178 111 185 111 c 0
 192 111 195 109 201 102 c 0
 236 60 285 31 325 20 c 0
 365 9 370 6 370 0 c 0
 370 -6 365 -9 325 -20 c 0
 285 -31 236 -60 201 -102 c 0
 195 -109 192 -111 185 -111 c 0
 178 -111 175 -109 169 -102 c 0
 134 -60 85 -31 45 -20 c 0
 5 -9 0 -6 0 0 c 0
91 0 m 1
 129 -22 159 -49 185 -83 c 1
 211 -49 240 -22 278 0 c 1
 240 22 211 49 185 83 c 1
 159 49 129 22 91 0 c 1
EndSplineSet
EndChar

StartChar: uniE0DB
Encoding: 57563 57563 209
Width: 258
Flags: MW
HStem: -111 222<126.5 131.5>
VStem: 0 258<-3 3>
LayerCount: 2
Fore
SplineSet
0 0 m 0
 0 6 3 9 31 20 c 0
 59 31 93 60 118 102 c 0
 122 109 124 111 129 111 c 0
 134 111 136 109 140 102 c 0
 165 60 198 31 226 20 c 0
 254 9 258 6 258 0 c 0
 258 -6 254 -9 226 -20 c 0
 198 -31 165 -60 140 -102 c 0
 136 -109 134 -111 129 -111 c 0
 124 -111 122 -109 118 -102 c 0
 93 -60 59 -31 31 -20 c 0
 3 -9 0 -6 0 0 c 0
EndSplineSet
EndChar

StartChar: uniE0DC
Encoding: 57564 57564 210
Width: 370
Flags: MW
HStem: -111 222<181.5 188.5>
LayerCount: 2
Fore
SplineSet
0 0 m 0
 0 6 5 9 45 20 c 0
 85 31 134 60 169 102 c 0
 175 109 178 111 185 111 c 0
 192 111 195 109 201 102 c 0
 236 60 285 31 325 20 c 0
 365 9 370 6 370 0 c 0
 370 -6 365 -9 325 -20 c 0
 285 -31 236 -60 201 -102 c 0
 195 -109 192 -111 185 -111 c 0
 178 -111 175 -109 169 -102 c 0
 134 -60 85 -31 45 -20 c 0
 5 -9 0 -6 0 0 c 0
EndSplineSet
EndChar

StartChar: uniE0DD
Encoding: 57565 57565 211
Width: 258
Flags: MW
HStem: -111 222<126.5 131.5>
VStem: 0 258<-3 3>
LayerCount: 2
Fore
SplineSet
0 0 m 0
 0 6 3 9 31 20 c 0
 59 31 93 60 118 102 c 0
 122 109 124 111 129 111 c 0
 134 111 136 109 140 102 c 0
 165 60 198 31 226 20 c 0
 254 9 258 6 258 0 c 0
 258 -6 254 -9 226 -20 c 0
 198 -31 165 -60 140 -102 c 0
 136 -109 134 -111 129 -111 c 0
 124 -111 122 -109 118 -102 c 0
 93 -60 59 -31 31 -20 c 0
 3 -9 0 -6 0 0 c 0
53 -10 m 1
 77 -26 104 -44 120 -68 c 1
 128 -50 187 2 205 10 c 1
 181 26 154 44 138 68 c 1
 130 50 71 -2 53 -10 c 1
EndSplineSet
EndChar

StartChar: uniE0DE
Encoding: 57566 57566 212
Width: 370
Flags: MW
HStem: -111 222<181.5 188.5>
VStem: 0 91<0 0> 278 92<0 0>
LayerCount: 2
Fore
SplineSet
0 0 m 0
 0 6 5 9 45 20 c 0
 85 31 134 60 169 102 c 0
 175 109 178 111 185 111 c 0
 192 111 195 109 201 102 c 0
 236 60 285 31 325 20 c 0
 365 9 370 6 370 0 c 0
 370 -6 365 -9 325 -20 c 0
 285 -31 236 -60 201 -102 c 0
 195 -109 192 -111 185 -111 c 0
 178 -111 175 -109 169 -102 c 0
 134 -60 85 -31 45 -20 c 0
 5 -9 0 -6 0 0 c 0
91 0 m 1
 129 -22 159 -49 185 -83 c 1
 211 -49 240 -22 278 0 c 1
 240 22 211 49 185 83 c 1
 159 49 129 22 91 0 c 1
EndSplineSet
EndChar

StartChar: uniE0DF
Encoding: 57567 57567 213
Width: 320
Flags: MW
HStem: 0 8<8 152 8 160> 312 8<8 152 8 8>
VStem: 0 8<8 8 8 312> 152 8<8 312 312 312>
LayerCount: 2
Fore
SplineSet
0 0 m 1
 0 320 l 1
 160 320 l 1
 160 0 l 1
 0 0 l 1
8 8 m 1
 152 8 l 1
 152 312 l 1
 8 312 l 1
 8 8 l 1
EndSplineSet
EndChar

StartChar: uniE0E0
Encoding: 57568 57568 214
Width: 370
Flags: MW
HStem: -111 222<181.5 188.5>
VStem: 0 91<0 0> 278 92<0 0>
LayerCount: 2
Fore
SplineSet
0 0 m 0
 0 6 5 9 45 20 c 0
 85 31 134 60 169 102 c 0
 175 109 178 111 185 111 c 0
 192 111 195 109 201 102 c 0
 236 60 285 31 325 20 c 0
 365 9 370 6 370 0 c 0
 370 -6 365 -9 325 -20 c 0
 285 -31 236 -60 201 -102 c 0
 195 -109 192 -111 185 -111 c 0
 178 -111 175 -109 169 -102 c 0
 134 -60 85 -31 45 -20 c 0
 5 -9 0 -6 0 0 c 0
91 0 m 1
 129 -22 159 -49 185 -83 c 1
 211 -49 240 -22 278 0 c 1
 240 22 211 49 185 83 c 1
 159 49 129 22 91 0 c 1
EndSplineSet
EndChar

StartChar: uniE0E1
Encoding: 57569 57569 215
Width: 258
Flags: MW
HStem: -111 222<126.5 131.5>
VStem: 0 258<-3 3>
LayerCount: 2
Fore
SplineSet
0 0 m 0
 0 6 3 9 31 20 c 0
 59 31 93 60 118 102 c 0
 122 109 124 111 129 111 c 0
 134 111 136 109 140 102 c 0
 165 60 198 31 226 20 c 0
 254 9 258 6 258 0 c 0
 258 -6 254 -9 226 -20 c 0
 198 -31 165 -60 140 -102 c 0
 136 -109 134 -111 129 -111 c 0
 124 -111 122 -109 118 -102 c 0
 93 -60 59 -31 31 -20 c 0
 3 -9 0 -6 0 0 c 0
53 -10 m 1
 77 -26 104 -44 120 -68 c 1
 128 -50 187 2 205 10 c 1
 181 26 154 44 138 68 c 1
 130 50 71 -2 53 -10 c 1
EndSplineSet
EndChar

StartChar: uniE0E2
Encoding: 57570 57570 216
Width: 258
Flags: MW
HStem: -111 222<126.5 131.5>
VStem: 0 258<-3 3>
LayerCount: 2
Fore
SplineSet
0 0 m 0
 0 6 3 9 31 20 c 0
 59 31 93 60 118 102 c 0
 122 109 124 111 129 111 c 0
 134 111 136 109 140 102 c 0
 165 60 198 31 226 20 c 0
 254 9 258 6 258 0 c 0
 258 -6 254 -9 226 -20 c 0
 198 -31 165 -60 140 -102 c 0
 136 -109 134 -111 129 -111 c 0
 124 -111 122 -109 118 -102 c 0
 93 -60 59 -31 31 -20 c 0
 3 -9 0 -6 0 0 c 0
EndSplineSet
EndChar

StartChar: uniE0E3
Encoding: 57571 57571 217
Width: 320
Flags: MW
HStem: 0 8<8 152 8 160> 312 8<8 152 8 8>
VStem: 0 8<8 8 8 312> 152 8<8 312 312 312>
LayerCount: 2
Fore
SplineSet
0 0 m 1
 0 320 l 1
 160 320 l 1
 160 0 l 1
 0 0 l 1
8 8 m 1
 152 8 l 1
 152 312 l 1
 8 312 l 1
 8 8 l 1
EndSplineSet
EndChar

StartChar: uniE0E4
Encoding: 57572 57572 218
Width: 320
Flags: MW
HStem: 0 8<8 152 8 160> 312 8<8 152 8 8>
VStem: 0 8<8 8 8 312> 152 8<8 312 312 312>
LayerCount: 2
Fore
SplineSet
0 0 m 1
 0 320 l 1
 160 320 l 1
 160 0 l 1
 0 0 l 1
8 8 m 1
 152 8 l 1
 152 312 l 1
 8 312 l 1
 8 8 l 1
EndSplineSet
EndChar

StartChar: uniE0E5
Encoding: 57573 57573 219
Width: 320
Flags: MW
HStem: 0 8<8 152 8 160> 312 8<8 152 8 8>
VStem: 0 8<8 8 8 312> 152 8<8 312 312 312>
LayerCount: 2
Fore
SplineSet
0 0 m 1
 0 320 l 1
 160 320 l 1
 160 0 l 1
 0 0 l 1
8 8 m 1
 152 8 l 1
 152 312 l 1
 8 312 l 1
 8 8 l 1
EndSplineSet
EndChar

StartChar: uniE0E6
Encoding: 57574 57574 220
Width: 320
Flags: MW
HStem: 0 8<8 152 8 160> 312 8<8 152 8 8>
VStem: 0 8<8 8 8 312> 152 8<8 312 312 312>
LayerCount: 2
Fore
SplineSet
0 0 m 1
 0 320 l 1
 160 320 l 1
 160 0 l 1
 0 0 l 1
8 8 m 1
 152 8 l 1
 152 312 l 1
 8 312 l 1
 8 8 l 1
EndSplineSet
EndChar

StartChar: uniE0E7
Encoding: 57575 57575 221
Width: 320
Flags: MW
HStem: 0 8<8 152 8 160> 312 8<8 152 8 8>
VStem: 0 8<8 8 8 312> 152 8<8 312 312 312>
LayerCount: 2
Fore
SplineSet
0 0 m 1
 0 320 l 1
 160 320 l 1
 160 0 l 1
 0 0 l 1
8 8 m 1
 152 8 l 1
 152 312 l 1
 8 312 l 1
 8 8 l 1
EndSplineSet
EndChar

StartChar: uniE0E8
Encoding: 57576 57576 222
Width: 320
Flags: MW
HStem: 0 8<8 152 8 160> 312 8<8 152 8 8>
VStem: 0 8<8 8 8 312> 152 8<8 312 312 312>
LayerCount: 2
Fore
SplineSet
0 0 m 1
 0 320 l 1
 160 320 l 1
 160 0 l 1
 0 0 l 1
8 8 m 1
 152 8 l 1
 152 312 l 1
 8 312 l 1
 8 8 l 1
EndSplineSet
EndChar

StartChar: uniE0E9
Encoding: 57577 57577 223
Width: 320
Flags: MW
HStem: 0 8<8 152 8 160> 312 8<8 152 8 8>
VStem: 0 8<8 8 8 312> 152 8<8 312 312 312>
LayerCount: 2
Fore
SplineSet
0 0 m 1
 0 320 l 1
 160 320 l 1
 160 0 l 1
 0 0 l 1
8 8 m 1
 152 8 l 1
 152 312 l 1
 8 312 l 1
 8 8 l 1
EndSplineSet
EndChar

StartChar: uniE0EA
Encoding: 57578 57578 224
Width: 320
Flags: MW
HStem: 0 8<8 152 8 160> 312 8<8 152 8 8>
VStem: 0 8<8 8 8 312> 152 8<8 312 312 312>
LayerCount: 2
Fore
SplineSet
0 0 m 1
 0 320 l 1
 160 320 l 1
 160 0 l 1
 0 0 l 1
8 8 m 1
 152 8 l 1
 152 312 l 1
 8 312 l 1
 8 8 l 1
EndSplineSet
EndChar

StartChar: uniE0EB
Encoding: 57579 57579 225
Width: 320
Flags: MW
HStem: 0 8<8 152 8 160> 312 8<8 152 8 8>
VStem: 0 8<8 8 8 312> 152 8<8 312 312 312>
LayerCount: 2
Fore
SplineSet
0 0 m 1
 0 320 l 1
 160 320 l 1
 160 0 l 1
 0 0 l 1
8 8 m 1
 152 8 l 1
 152 312 l 1
 8 312 l 1
 8 8 l 1
EndSplineSet
EndChar

StartChar: uniE0EC
Encoding: 57580 57580 226
Width: 320
Flags: MW
HStem: 0 8<8 152 8 160> 312 8<8 152 8 8>
VStem: 0 8<8 8 8 312> 152 8<8 312 312 312>
LayerCount: 2
Fore
SplineSet
0 0 m 1
 0 320 l 1
 160 320 l 1
 160 0 l 1
 0 0 l 1
8 8 m 1
 152 8 l 1
 152 312 l 1
 8 312 l 1
 8 8 l 1
EndSplineSet
EndChar

StartChar: uniE0ED
Encoding: 57581 57581 227
Width: 320
Flags: MW
HStem: 0 8<8 152 8 160> 312 8<8 152 8 8>
VStem: 0 8<8 8 8 312> 152 8<8 312 312 312>
LayerCount: 2
Fore
SplineSet
0 0 m 1
 0 320 l 1
 160 320 l 1
 160 0 l 1
 0 0 l 1
8 8 m 1
 152 8 l 1
 152 312 l 1
 8 312 l 1
 8 8 l 1
EndSplineSet
EndChar

StartChar: uniE0EE
Encoding: 57582 57582 228
Width: 320
Flags: MW
HStem: 0 8<8 152 8 160> 312 8<8 152 8 8>
VStem: 0 8<8 8 8 312> 152 8<8 312 312 312>
LayerCount: 2
Fore
SplineSet
0 0 m 1
 0 320 l 1
 160 320 l 1
 160 0 l 1
 0 0 l 1
8 8 m 1
 152 8 l 1
 152 312 l 1
 8 312 l 1
 8 8 l 1
EndSplineSet
EndChar

StartChar: uniE0EF
Encoding: 57583 57583 229
Width: 320
Flags: MW
HStem: 0 8<8 152 8 160> 312 8<8 152 8 8>
VStem: 0 8<8 8 8 312> 152 8<8 312 312 312>
LayerCount: 2
Fore
SplineSet
0 0 m 1
 0 320 l 1
 160 320 l 1
 160 0 l 1
 0 0 l 1
8 8 m 1
 152 8 l 1
 152 312 l 1
 8 312 l 1
 8 8 l 1
EndSplineSet
EndChar

StartChar: uniE0F0
Encoding: 57584 57584 230
Width: 320
Flags: MW
HStem: 0 8<8 152 8 160> 312 8<8 152 8 8>
VStem: 0 8<8 8 8 312> 152 8<8 312 312 312>
LayerCount: 2
Fore
SplineSet
0 0 m 1
 0 320 l 1
 160 320 l 1
 160 0 l 1
 0 0 l 1
8 8 m 1
 152 8 l 1
 152 312 l 1
 8 312 l 1
 8 8 l 1
EndSplineSet
EndChar

StartChar: uniE0F1
Encoding: 57585 57585 231
Width: 320
Flags: MW
HStem: 0 8<8 152 8 160> 312 8<8 152 8 8>
VStem: 0 8<8 8 8 312> 152 8<8 312 312 312>
LayerCount: 2
Fore
SplineSet
0 0 m 1
 0 320 l 1
 160 320 l 1
 160 0 l 1
 0 0 l 1
8 8 m 1
 152 8 l 1
 152 312 l 1
 8 312 l 1
 8 8 l 1
EndSplineSet
EndChar

StartChar: uniE0F2
Encoding: 57586 57586 232
Width: 320
Flags: MW
HStem: 0 8<8 152 8 160> 312 8<8 152 8 8>
VStem: 0 8<8 8 8 312> 152 8<8 312 312 312>
LayerCount: 2
Fore
SplineSet
0 0 m 1
 0 320 l 1
 160 320 l 1
 160 0 l 1
 0 0 l 1
8 8 m 1
 152 8 l 1
 152 312 l 1
 8 312 l 1
 8 8 l 1
EndSplineSet
EndChar

StartChar: uniE0F3
Encoding: 57587 57587 233
Width: 320
Flags: MW
HStem: 0 8<8 152 8 160> 312 8<8 152 8 8>
VStem: 0 8<8 8 8 312> 152 8<8 312 312 312>
LayerCount: 2
Fore
SplineSet
0 0 m 1
 0 320 l 1
 160 320 l 1
 160 0 l 1
 0 0 l 1
8 8 m 1
 152 8 l 1
 152 312 l 1
 8 312 l 1
 8 8 l 1
EndSplineSet
EndChar

StartChar: uniE0F4
Encoding: 57588 57588 234
Width: 320
Flags: MW
HStem: 0 8<8 152 8 160> 312 8<8 152 8 8>
VStem: 0 8<8 8 8 312> 152 8<8 312 312 312>
LayerCount: 2
Fore
SplineSet
0 0 m 1
 0 320 l 1
 160 320 l 1
 160 0 l 1
 0 0 l 1
8 8 m 1
 152 8 l 1
 152 312 l 1
 8 312 l 1
 8 8 l 1
EndSplineSet
EndChar

StartChar: uniE0F5
Encoding: 57589 57589 235
Width: 320
Flags: MW
HStem: 0 8<8 152 8 160> 312 8<8 152 8 8>
VStem: 0 8<8 8 8 312> 152 8<8 312 312 312>
LayerCount: 2
Fore
SplineSet
0 0 m 1
 0 320 l 1
 160 320 l 1
 160 0 l 1
 0 0 l 1
8 8 m 1
 152 8 l 1
 152 312 l 1
 8 312 l 1
 8 8 l 1
EndSplineSet
EndChar

StartChar: uniE0F6
Encoding: 57590 57590 236
Width: 320
Flags: MW
HStem: 0 8<8 152 8 160> 312 8<8 152 8 8>
VStem: 0 8<8 8 8 312> 152 8<8 312 312 312>
LayerCount: 2
Fore
SplineSet
0 0 m 1
 0 320 l 1
 160 320 l 1
 160 0 l 1
 0 0 l 1
8 8 m 1
 152 8 l 1
 152 312 l 1
 8 312 l 1
 8 8 l 1
EndSplineSet
EndChar

StartChar: uniE0F7
Encoding: 57591 57591 237
Width: 320
Flags: MW
HStem: 0 8<8 152 8 160> 312 8<8 152 8 8>
VStem: 0 8<8 8 8 312> 152 8<8 312 312 312>
LayerCount: 2
Fore
SplineSet
0 0 m 1
 0 320 l 1
 160 320 l 1
 160 0 l 1
 0 0 l 1
8 8 m 1
 152 8 l 1
 152 312 l 1
 8 312 l 1
 8 8 l 1
EndSplineSet
EndChar

StartChar: uniE0F8
Encoding: 57592 57592 238
Width: 320
Flags: MW
HStem: 0 8<8 152 8 160> 312 8<8 152 8 8>
VStem: 0 8<8 8 8 312> 152 8<8 312 312 312>
LayerCount: 2
Fore
SplineSet
0 0 m 1
 0 320 l 1
 160 320 l 1
 160 0 l 1
 0 0 l 1
8 8 m 1
 152 8 l 1
 152 312 l 1
 8 312 l 1
 8 8 l 1
EndSplineSet
EndChar

StartChar: uniE0F9
Encoding: 57593 57593 239
Width: 320
Flags: MW
HStem: 0 8<8 152 8 160> 312 8<8 152 8 8>
VStem: 0 8<8 8 8 312> 152 8<8 312 312 312>
LayerCount: 2
Fore
SplineSet
0 0 m 1
 0 320 l 1
 160 320 l 1
 160 0 l 1
 0 0 l 1
8 8 m 1
 152 8 l 1
 152 312 l 1
 8 312 l 1
 8 8 l 1
EndSplineSet
EndChar

StartChar: uniE0FA
Encoding: 57594 57594 240
Width: 320
Flags: MW
HStem: 0 8<8 152 8 160> 312 8<8 152 8 8>
VStem: 0 8<8 8 8 312> 152 8<8 312 312 312>
LayerCount: 2
Fore
SplineSet
0 0 m 1
 0 320 l 1
 160 320 l 1
 160 0 l 1
 0 0 l 1
8 8 m 1
 152 8 l 1
 152 312 l 1
 8 312 l 1
 8 8 l 1
EndSplineSet
EndChar

StartChar: uniE0FB
Encoding: 57595 57595 241
Width: 320
Flags: MW
HStem: 0 8<8 152 8 160> 312 8<8 152 8 8>
VStem: 0 8<8 8 8 312> 152 8<8 312 312 312>
LayerCount: 2
Fore
SplineSet
0 0 m 1
 0 320 l 1
 160 320 l 1
 160 0 l 1
 0 0 l 1
8 8 m 1
 152 8 l 1
 152 312 l 1
 8 312 l 1
 8 8 l 1
EndSplineSet
EndChar

StartChar: uniE0FC
Encoding: 57596 57596 242
Width: 320
Flags: MW
HStem: 0 8<8 152 8 160> 312 8<8 152 8 8>
VStem: 0 8<8 8 8 312> 152 8<8 312 312 312>
LayerCount: 2
Fore
SplineSet
0 0 m 1
 0 320 l 1
 160 320 l 1
 160 0 l 1
 0 0 l 1
8 8 m 1
 152 8 l 1
 152 312 l 1
 8 312 l 1
 8 8 l 1
EndSplineSet
EndChar

StartChar: uniE100
Encoding: 57600 57600 243
Width: 320
Flags: MW
HStem: 0 8<8 152 8 160> 312 8<8 152 8 8>
VStem: 0 8<8 8 8 312> 152 8<8 312 312 312>
LayerCount: 2
Fore
SplineSet
0 0 m 1
 0 320 l 1
 160 320 l 1
 160 0 l 1
 0 0 l 1
8 8 m 1
 152 8 l 1
 152 312 l 1
 8 312 l 1
 8 8 l 1
EndSplineSet
EndChar

StartChar: uniE101
Encoding: 57601 57601 244
Width: 170
Flags: MW
VStem: 0 170
LayerCount: 2
Fore
SplineSet
0 -179 m 0
 0 -174 63 136 72 179 c 0
 74 189 79 197 87 197 c 2
 157 197 l 2
 165 197 170 188 170 179 c 0
 170 174 107 -136 98 -179 c 0
 96 -189 90 -197 82 -197 c 2
 13 -197 l 2
 5 -197 0 -188 0 -179 c 0
EndSplineSet
EndChar

StartChar: uniE102
Encoding: 57602 57602 245
Width: 320
Flags: MW
HStem: -197 37<9 214 41 214 41 233> 160 37<106 279 106 106>
VStem: 0 320
LayerCount: 2
Fore
SplineSet
0 -179 m 0
 0 -174 63 136 72 179 c 0
 74 189 79 197 87 197 c 2
 307 197 l 2
 315 197 320 188 320 179 c 0
 320 174 257 -136 248 -179 c 0
 246 -189 241 -197 233 -197 c 2
 13 -197 l 2
 5 -197 0 -188 0 -179 c 0
41 -160 m 1
 214 -160 l 1
 279 160 l 1
 106 160 l 1
 41 -160 l 1
EndSplineSet
EndChar

StartChar: uniE103
Encoding: 57603 57603 246
Width: 229
Flags: MW
HStem: -197 37<9 123 41 123 41 142> 160 37<106 188 106 106>
VStem: 0 229
LayerCount: 2
Fore
SplineSet
0 -179 m 0
 0 -174 63 136 72 179 c 0
 74 189 79 197 87 197 c 2
 216 197 l 2
 224 197 229 188 229 179 c 0
 229 174 166 -136 157 -179 c 0
 155 -189 150 -197 142 -197 c 2
 13 -197 l 2
 5 -197 0 -188 0 -179 c 0
41 -160 m 1
 123 -160 l 1
 188 160 l 1
 106 160 l 1
 41 -160 l 1
EndSplineSet
EndChar

StartChar: uniE104
Encoding: 57604 57604 247
Width: 320
Flags: MW
HStem: 0 8<8 152 8 160> 312 8<8 152 8 8>
VStem: 0 8<8 8 8 312> 152 8<8 312 312 312>
LayerCount: 2
Fore
SplineSet
0 0 m 1
 0 320 l 1
 160 320 l 1
 160 0 l 1
 0 0 l 1
8 8 m 1
 152 8 l 1
 152 312 l 1
 8 312 l 1
 8 8 l 1
EndSplineSet
EndChar

StartChar: uniE105
Encoding: 57605 57605 248
Width: 320
Flags: MW
HStem: 0 8<8 152 8 160> 312 8<8 152 8 8>
VStem: 0 8<8 8 8 312> 152 8<8 312 312 312>
LayerCount: 2
Fore
SplineSet
0 0 m 1
 0 320 l 1
 160 320 l 1
 160 0 l 1
 0 0 l 1
8 8 m 1
 152 8 l 1
 152 312 l 1
 8 312 l 1
 8 8 l 1
EndSplineSet
EndChar

StartChar: uniE106
Encoding: 57606 57606 249
Width: 320
Flags: MW
HStem: 0 8<8 152 8 160> 312 8<8 152 8 8>
VStem: 0 8<8 8 8 312> 152 8<8 312 312 312>
LayerCount: 2
Fore
SplineSet
0 0 m 1
 0 320 l 1
 160 320 l 1
 160 0 l 1
 0 0 l 1
8 8 m 1
 152 8 l 1
 152 312 l 1
 8 312 l 1
 8 8 l 1
EndSplineSet
EndChar

StartChar: uniE107
Encoding: 57607 57607 250
Width: 320
Flags: MW
HStem: 0 8<8 152 8 160> 312 8<8 152 8 8>
VStem: 0 8<8 8 8 312> 152 8<8 312 312 312>
LayerCount: 2
Fore
SplineSet
0 0 m 1
 0 320 l 1
 160 320 l 1
 160 0 l 1
 0 0 l 1
8 8 m 1
 152 8 l 1
 152 312 l 1
 8 312 l 1
 8 8 l 1
EndSplineSet
EndChar

StartChar: uniE108
Encoding: 57608 57608 251
Width: 320
Flags: MW
HStem: 0 8<8 152 8 160> 312 8<8 152 8 8>
VStem: 0 8<8 8 8 312> 152 8<8 312 312 312>
LayerCount: 2
Fore
SplineSet
0 0 m 1
 0 320 l 1
 160 320 l 1
 160 0 l 1
 0 0 l 1
8 8 m 1
 152 8 l 1
 152 312 l 1
 8 312 l 1
 8 8 l 1
EndSplineSet
EndChar

StartChar: uniE109
Encoding: 57609 57609 252
Width: 320
Flags: MW
HStem: 0 8<8 152 8 160> 312 8<8 152 8 8>
VStem: 0 8<8 8 8 312> 152 8<8 312 312 312>
LayerCount: 2
Fore
SplineSet
0 0 m 1
 0 320 l 1
 160 320 l 1
 160 0 l 1
 0 0 l 1
8 8 m 1
 152 8 l 1
 152 312 l 1
 8 312 l 1
 8 8 l 1
EndSplineSet
EndChar

StartChar: uniE110
Encoding: 57616 57616 253
Width: 320
Flags: MW
HStem: 0 8<8 152 8 160> 312 8<8 152 8 8>
VStem: 0 8<8 8 8 312> 152 8<8 312 312 312>
LayerCount: 2
Fore
SplineSet
0 0 m 1
 0 320 l 1
 160 320 l 1
 160 0 l 1
 0 0 l 1
8 8 m 1
 152 8 l 1
 152 312 l 1
 8 312 l 1
 8 8 l 1
EndSplineSet
EndChar

StartChar: uniE111
Encoding: 57617 57617 254
Width: 320
Flags: MW
HStem: 0 8<8 152 8 160> 312 8<8 152 8 8>
VStem: 0 8<8 8 8 312> 152 8<8 312 312 312>
LayerCount: 2
Fore
SplineSet
0 0 m 1
 0 320 l 1
 160 320 l 1
 160 0 l 1
 0 0 l 1
8 8 m 1
 152 8 l 1
 152 312 l 1
 8 312 l 1
 8 8 l 1
EndSplineSet
EndChar

StartChar: uniE112
Encoding: 57618 57618 255
Width: 320
Flags: MW
HStem: 0 8<8 152 8 160> 312 8<8 152 8 8>
VStem: 0 8<8 8 8 312> 152 8<8 312 312 312>
LayerCount: 2
Fore
SplineSet
0 0 m 1
 0 320 l 1
 160 320 l 1
 160 0 l 1
 0 0 l 1
8 8 m 1
 152 8 l 1
 152 312 l 1
 8 312 l 1
 8 8 l 1
EndSplineSet
EndChar

StartChar: uniE113
Encoding: 57619 57619 256
Width: 320
Flags: MW
HStem: 0 8<8 152 8 160> 312 8<8 152 8 8>
VStem: 0 8<8 8 8 312> 152 8<8 312 312 312>
LayerCount: 2
Fore
SplineSet
0 0 m 1
 0 320 l 1
 160 320 l 1
 160 0 l 1
 0 0 l 1
8 8 m 1
 152 8 l 1
 152 312 l 1
 8 312 l 1
 8 8 l 1
EndSplineSet
EndChar

StartChar: uniE114
Encoding: 57620 57620 257
Width: 320
Flags: MW
HStem: 0 8<8 152 8 160> 312 8<8 152 8 8>
VStem: 0 8<8 8 8 312> 152 8<8 312 312 312>
LayerCount: 2
Fore
SplineSet
0 0 m 1
 0 320 l 1
 160 320 l 1
 160 0 l 1
 0 0 l 1
8 8 m 1
 152 8 l 1
 152 312 l 1
 8 312 l 1
 8 8 l 1
EndSplineSet
EndChar

StartChar: uniE115
Encoding: 57621 57621 258
Width: 320
Flags: MW
HStem: 0 8<8 152 8 160> 312 8<8 152 8 8>
VStem: 0 8<8 8 8 312> 152 8<8 312 312 312>
LayerCount: 2
Fore
SplineSet
0 0 m 1
 0 320 l 1
 160 320 l 1
 160 0 l 1
 0 0 l 1
8 8 m 1
 152 8 l 1
 152 312 l 1
 8 312 l 1
 8 8 l 1
EndSplineSet
EndChar

StartChar: uniE116
Encoding: 57622 57622 259
Width: 320
Flags: MW
HStem: 0 8<8 152 8 160> 312 8<8 152 8 8>
VStem: 0 8<8 8 8 312> 152 8<8 312 312 312>
LayerCount: 2
Fore
SplineSet
0 0 m 1
 0 320 l 1
 160 320 l 1
 160 0 l 1
 0 0 l 1
8 8 m 1
 152 8 l 1
 152 312 l 1
 8 312 l 1
 8 8 l 1
EndSplineSet
EndChar

StartChar: uniE117
Encoding: 57623 57623 260
Width: 320
Flags: MW
HStem: 0 8<8 152 8 160> 312 8<8 152 8 8>
VStem: 0 8<8 8 8 312> 152 8<8 312 312 312>
LayerCount: 2
Fore
SplineSet
0 0 m 1
 0 320 l 1
 160 320 l 1
 160 0 l 1
 0 0 l 1
8 8 m 1
 152 8 l 1
 152 312 l 1
 8 312 l 1
 8 8 l 1
EndSplineSet
EndChar

StartChar: uniE118
Encoding: 57624 57624 261
Width: 320
Flags: MW
HStem: 0 8<8 152 8 160> 312 8<8 152 8 8>
VStem: 0 8<8 8 8 312> 152 8<8 312 312 312>
LayerCount: 2
Fore
SplineSet
0 0 m 1
 0 320 l 1
 160 320 l 1
 160 0 l 1
 0 0 l 1
8 8 m 1
 152 8 l 1
 152 312 l 1
 8 312 l 1
 8 8 l 1
EndSplineSet
EndChar

StartChar: uniE119
Encoding: 57625 57625 262
Width: 320
Flags: MW
HStem: 0 8<8 152 8 160> 312 8<8 152 8 8>
VStem: 0 8<8 8 8 312> 152 8<8 312 312 312>
LayerCount: 2
Fore
SplineSet
0 0 m 1
 0 320 l 1
 160 320 l 1
 160 0 l 1
 0 0 l 1
8 8 m 1
 152 8 l 1
 152 312 l 1
 8 312 l 1
 8 8 l 1
EndSplineSet
EndChar

StartChar: uniE11A
Encoding: 57626 57626 263
Width: 320
Flags: MW
HStem: 0 8<8 152 8 160> 312 8<8 152 8 8>
VStem: 0 8<8 8 8 312> 152 8<8 312 312 312>
LayerCount: 2
Fore
SplineSet
0 0 m 1
 0 320 l 1
 160 320 l 1
 160 0 l 1
 0 0 l 1
8 8 m 1
 152 8 l 1
 152 312 l 1
 8 312 l 1
 8 8 l 1
EndSplineSet
EndChar

StartChar: uniE11B
Encoding: 57627 57627 264
Width: 320
Flags: MW
HStem: 0 8<8 152 8 160> 312 8<8 152 8 8>
VStem: 0 8<8 8 8 312> 152 8<8 312 312 312>
LayerCount: 2
Fore
SplineSet
0 0 m 1
 0 320 l 1
 160 320 l 1
 160 0 l 1
 0 0 l 1
8 8 m 1
 152 8 l 1
 152 312 l 1
 8 312 l 1
 8 8 l 1
EndSplineSet
EndChar

StartChar: uniE120
Encoding: 57632 57632 265
Width: 320
Flags: MW
HStem: 0 8<8 152 8 160> 312 8<8 152 8 8>
VStem: 0 8<8 8 8 312> 152 8<8 312 312 312>
LayerCount: 2
Fore
SplineSet
0 0 m 1
 0 320 l 1
 160 320 l 1
 160 0 l 1
 0 0 l 1
8 8 m 1
 152 8 l 1
 152 312 l 1
 8 312 l 1
 8 8 l 1
EndSplineSet
EndChar

StartChar: uniE121
Encoding: 57633 57633 266
Width: 320
Flags: MW
HStem: 0 8<8 152 8 160> 312 8<8 152 8 8>
VStem: 0 8<8 8 8 312> 152 8<8 312 312 312>
LayerCount: 2
Fore
SplineSet
0 0 m 1
 0 320 l 1
 160 320 l 1
 160 0 l 1
 0 0 l 1
8 8 m 1
 152 8 l 1
 152 312 l 1
 8 312 l 1
 8 8 l 1
EndSplineSet
EndChar

StartChar: uniE122
Encoding: 57634 57634 267
Width: 320
Flags: MW
HStem: 0 8<8 152 8 160> 312 8<8 152 8 8>
VStem: 0 8<8 8 8 312> 152 8<8 312 312 312>
LayerCount: 2
Fore
SplineSet
0 0 m 1
 0 320 l 1
 160 320 l 1
 160 0 l 1
 0 0 l 1
8 8 m 1
 152 8 l 1
 152 312 l 1
 8 312 l 1
 8 8 l 1
EndSplineSet
EndChar

StartChar: uniE123
Encoding: 57635 57635 268
Width: 320
Flags: MW
HStem: 0 8<8 152 8 160> 312 8<8 152 8 8>
VStem: 0 8<8 8 8 312> 152 8<8 312 312 312>
LayerCount: 2
Fore
SplineSet
0 0 m 1
 0 320 l 1
 160 320 l 1
 160 0 l 1
 0 0 l 1
8 8 m 1
 152 8 l 1
 152 312 l 1
 8 312 l 1
 8 8 l 1
EndSplineSet
EndChar

StartChar: uniE124
Encoding: 57636 57636 269
Width: 320
Flags: MW
HStem: 0 8<8 152 8 160> 312 8<8 152 8 8>
VStem: 0 8<8 8 8 312> 152 8<8 312 312 312>
LayerCount: 2
Fore
SplineSet
0 0 m 1
 0 320 l 1
 160 320 l 1
 160 0 l 1
 0 0 l 1
8 8 m 1
 152 8 l 1
 152 312 l 1
 8 312 l 1
 8 8 l 1
EndSplineSet
EndChar

StartChar: uniE125
Encoding: 57637 57637 270
Width: 320
Flags: MW
HStem: 0 8<8 152 8 160> 312 8<8 152 8 8>
VStem: 0 8<8 8 8 312> 152 8<8 312 312 312>
LayerCount: 2
Fore
SplineSet
0 0 m 1
 0 320 l 1
 160 320 l 1
 160 0 l 1
 0 0 l 1
8 8 m 1
 152 8 l 1
 152 312 l 1
 8 312 l 1
 8 8 l 1
EndSplineSet
EndChar

StartChar: uniE126
Encoding: 57638 57638 271
Width: 320
Flags: MW
HStem: 0 8<8 152 8 160> 312 8<8 152 8 8>
VStem: 0 8<8 8 8 312> 152 8<8 312 312 312>
LayerCount: 2
Fore
SplineSet
0 0 m 1
 0 320 l 1
 160 320 l 1
 160 0 l 1
 0 0 l 1
8 8 m 1
 152 8 l 1
 152 312 l 1
 8 312 l 1
 8 8 l 1
EndSplineSet
EndChar

StartChar: uniE127
Encoding: 57639 57639 272
Width: 320
Flags: MW
HStem: 0 8<8 152 8 160> 312 8<8 152 8 8>
VStem: 0 8<8 8 8 312> 152 8<8 312 312 312>
LayerCount: 2
Fore
SplineSet
0 0 m 1
 0 320 l 1
 160 320 l 1
 160 0 l 1
 0 0 l 1
8 8 m 1
 152 8 l 1
 152 312 l 1
 8 312 l 1
 8 8 l 1
EndSplineSet
EndChar

StartChar: uniE128
Encoding: 57640 57640 273
Width: 320
Flags: MW
HStem: 0 8<8 152 8 160> 312 8<8 152 8 8>
VStem: 0 8<8 8 8 312> 152 8<8 312 312 312>
LayerCount: 2
Fore
SplineSet
0 0 m 1
 0 320 l 1
 160 320 l 1
 160 0 l 1
 0 0 l 1
8 8 m 1
 152 8 l 1
 152 312 l 1
 8 312 l 1
 8 8 l 1
EndSplineSet
EndChar

StartChar: uniE129
Encoding: 57641 57641 274
Width: 320
Flags: MW
HStem: 0 8<8 152 8 160> 312 8<8 152 8 8>
VStem: 0 8<8 8 8 312> 152 8<8 312 312 312>
LayerCount: 2
Fore
SplineSet
0 0 m 1
 0 320 l 1
 160 320 l 1
 160 0 l 1
 0 0 l 1
8 8 m 1
 152 8 l 1
 152 312 l 1
 8 312 l 1
 8 8 l 1
EndSplineSet
EndChar

StartChar: uniE12A
Encoding: 57642 57642 275
Width: 320
Flags: MW
HStem: 0 8<8 152 8 160> 312 8<8 152 8 8>
VStem: 0 8<8 8 8 312> 152 8<8 312 312 312>
LayerCount: 2
Fore
SplineSet
0 0 m 1
 0 320 l 1
 160 320 l 1
 160 0 l 1
 0 0 l 1
8 8 m 1
 152 8 l 1
 152 312 l 1
 8 312 l 1
 8 8 l 1
EndSplineSet
EndChar

StartChar: uniE12B
Encoding: 57643 57643 276
Width: 320
Flags: MW
HStem: 0 8<8 152 8 160> 312 8<8 152 8 8>
VStem: 0 8<8 8 8 312> 152 8<8 312 312 312>
LayerCount: 2
Fore
SplineSet
0 0 m 1
 0 320 l 1
 160 320 l 1
 160 0 l 1
 0 0 l 1
8 8 m 1
 152 8 l 1
 152 312 l 1
 8 312 l 1
 8 8 l 1
EndSplineSet
EndChar

StartChar: uniE12C
Encoding: 57644 57644 277
Width: 320
Flags: MW
HStem: 0 8<8 152 8 160> 312 8<8 152 8 8>
VStem: 0 8<8 8 8 312> 152 8<8 312 312 312>
LayerCount: 2
Fore
SplineSet
0 0 m 1
 0 320 l 1
 160 320 l 1
 160 0 l 1
 0 0 l 1
8 8 m 1
 152 8 l 1
 152 312 l 1
 8 312 l 1
 8 8 l 1
EndSplineSet
EndChar

StartChar: uniE12D
Encoding: 57645 57645 278
Width: 320
Flags: MW
HStem: 0 8<8 152 8 160> 312 8<8 152 8 8>
VStem: 0 8<8 8 8 312> 152 8<8 312 312 312>
LayerCount: 2
Fore
SplineSet
0 0 m 1
 0 320 l 1
 160 320 l 1
 160 0 l 1
 0 0 l 1
8 8 m 1
 152 8 l 1
 152 312 l 1
 8 312 l 1
 8 8 l 1
EndSplineSet
EndChar

StartChar: uniE12E
Encoding: 57646 57646 279
Width: 320
Flags: MW
HStem: 0 8<8 152 8 160> 312 8<8 152 8 8>
VStem: 0 8<8 8 8 312> 152 8<8 312 312 312>
LayerCount: 2
Fore
SplineSet
0 0 m 1
 0 320 l 1
 160 320 l 1
 160 0 l 1
 0 0 l 1
8 8 m 1
 152 8 l 1
 152 312 l 1
 8 312 l 1
 8 8 l 1
EndSplineSet
EndChar

StartChar: uniE12F
Encoding: 57647 57647 280
Width: 320
Flags: MW
HStem: 0 8<8 152 8 160> 312 8<8 152 8 8>
VStem: 0 8<8 8 8 312> 152 8<8 312 312 312>
LayerCount: 2
Fore
SplineSet
0 0 m 1
 0 320 l 1
 160 320 l 1
 160 0 l 1
 0 0 l 1
8 8 m 1
 152 8 l 1
 152 312 l 1
 8 312 l 1
 8 8 l 1
EndSplineSet
EndChar

StartChar: uniE130
Encoding: 57648 57648 281
Width: 320
Flags: MW
HStem: 0 8<8 152 8 160> 312 8<8 152 8 8>
VStem: 0 8<8 8 8 312> 152 8<8 312 312 312>
LayerCount: 2
Fore
SplineSet
0 0 m 1
 0 320 l 1
 160 320 l 1
 160 0 l 1
 0 0 l 1
8 8 m 1
 152 8 l 1
 152 312 l 1
 8 312 l 1
 8 8 l 1
EndSplineSet
EndChar

StartChar: uniE131
Encoding: 57649 57649 282
Width: 320
Flags: MW
HStem: 0 8<8 152 8 160> 312 8<8 152 8 8>
VStem: 0 8<8 8 8 312> 152 8<8 312 312 312>
LayerCount: 2
Fore
SplineSet
0 0 m 1
 0 320 l 1
 160 320 l 1
 160 0 l 1
 0 0 l 1
8 8 m 1
 152 8 l 1
 152 312 l 1
 8 312 l 1
 8 8 l 1
EndSplineSet
EndChar

StartChar: uniE132
Encoding: 57650 57650 283
Width: 320
Flags: MW
HStem: 0 8<8 152 8 160> 312 8<8 152 8 8>
VStem: 0 8<8 8 8 312> 152 8<8 312 312 312>
LayerCount: 2
Fore
SplineSet
0 0 m 1
 0 320 l 1
 160 320 l 1
 160 0 l 1
 0 0 l 1
8 8 m 1
 152 8 l 1
 152 312 l 1
 8 312 l 1
 8 8 l 1
EndSplineSet
EndChar

StartChar: uniE133
Encoding: 57651 57651 284
Width: 320
Flags: MW
HStem: 0 8<8 152 8 160> 312 8<8 152 8 8>
VStem: 0 8<8 8 8 312> 152 8<8 312 312 312>
LayerCount: 2
Fore
SplineSet
0 0 m 1
 0 320 l 1
 160 320 l 1
 160 0 l 1
 0 0 l 1
8 8 m 1
 152 8 l 1
 152 312 l 1
 8 312 l 1
 8 8 l 1
EndSplineSet
EndChar

StartChar: uniE134
Encoding: 57652 57652 285
Width: 320
Flags: MW
HStem: 0 8<8 152 8 160> 312 8<8 152 8 8>
VStem: 0 8<8 8 8 312> 152 8<8 312 312 312>
LayerCount: 2
Fore
SplineSet
0 0 m 1
 0 320 l 1
 160 320 l 1
 160 0 l 1
 0 0 l 1
8 8 m 1
 152 8 l 1
 152 312 l 1
 8 312 l 1
 8 8 l 1
EndSplineSet
EndChar

StartChar: uniE135
Encoding: 57653 57653 286
Width: 320
Flags: MW
HStem: 0 8<8 152 8 160> 312 8<8 152 8 8>
VStem: 0 8<8 8 8 312> 152 8<8 312 312 312>
LayerCount: 2
Fore
SplineSet
0 0 m 1
 0 320 l 1
 160 320 l 1
 160 0 l 1
 0 0 l 1
8 8 m 1
 152 8 l 1
 152 312 l 1
 8 312 l 1
 8 8 l 1
EndSplineSet
EndChar

StartChar: uniE136
Encoding: 57654 57654 287
Width: 320
Flags: MW
HStem: 0 8<8 152 8 160> 312 8<8 152 8 8>
VStem: 0 8<8 8 8 312> 152 8<8 312 312 312>
LayerCount: 2
Fore
SplineSet
0 0 m 1
 0 320 l 1
 160 320 l 1
 160 0 l 1
 0 0 l 1
8 8 m 1
 152 8 l 1
 152 312 l 1
 8 312 l 1
 8 8 l 1
EndSplineSet
EndChar

StartChar: uniE137
Encoding: 57655 57655 288
Width: 320
Flags: MW
HStem: 0 8<8 152 8 160> 312 8<8 152 8 8>
VStem: 0 8<8 8 8 312> 152 8<8 312 312 312>
LayerCount: 2
Fore
SplineSet
0 0 m 1
 0 320 l 1
 160 320 l 1
 160 0 l 1
 0 0 l 1
8 8 m 1
 152 8 l 1
 152 312 l 1
 8 312 l 1
 8 8 l 1
EndSplineSet
EndChar

StartChar: uniE138
Encoding: 57656 57656 289
Width: 320
Flags: MW
HStem: 0 8<8 152 8 160> 312 8<8 152 8 8>
VStem: 0 8<8 8 8 312> 152 8<8 312 312 312>
LayerCount: 2
Fore
SplineSet
0 0 m 1
 0 320 l 1
 160 320 l 1
 160 0 l 1
 0 0 l 1
8 8 m 1
 152 8 l 1
 152 312 l 1
 8 312 l 1
 8 8 l 1
EndSplineSet
EndChar

StartChar: uniE139
Encoding: 57657 57657 290
Width: 320
Flags: MW
HStem: 0 8<8 152 8 160> 312 8<8 152 8 8>
VStem: 0 8<8 8 8 312> 152 8<8 312 312 312>
LayerCount: 2
Fore
SplineSet
0 0 m 1
 0 320 l 1
 160 320 l 1
 160 0 l 1
 0 0 l 1
8 8 m 1
 152 8 l 1
 152 312 l 1
 8 312 l 1
 8 8 l 1
EndSplineSet
EndChar

StartChar: uniE13A
Encoding: 57658 57658 291
Width: 320
Flags: MW
HStem: 0 8<8 152 8 160> 312 8<8 152 8 8>
VStem: 0 8<8 8 8 312> 152 8<8 312 312 312>
LayerCount: 2
Fore
SplineSet
0 0 m 1
 0 320 l 1
 160 320 l 1
 160 0 l 1
 0 0 l 1
8 8 m 1
 152 8 l 1
 152 312 l 1
 8 312 l 1
 8 8 l 1
EndSplineSet
EndChar

StartChar: uniE13B
Encoding: 57659 57659 292
Width: 320
Flags: MW
HStem: 0 8<8 152 8 160> 312 8<8 152 8 8>
VStem: 0 8<8 8 8 312> 152 8<8 312 312 312>
LayerCount: 2
Fore
SplineSet
0 0 m 1
 0 320 l 1
 160 320 l 1
 160 0 l 1
 0 0 l 1
8 8 m 1
 152 8 l 1
 152 312 l 1
 8 312 l 1
 8 8 l 1
EndSplineSet
EndChar

StartChar: uniE13C
Encoding: 57660 57660 293
Width: 320
Flags: MW
HStem: 0 8<8 152 8 160> 312 8<8 152 8 8>
VStem: 0 8<8 8 8 312> 152 8<8 312 312 312>
LayerCount: 2
Fore
SplineSet
0 0 m 1
 0 320 l 1
 160 320 l 1
 160 0 l 1
 0 0 l 1
8 8 m 1
 152 8 l 1
 152 312 l 1
 8 312 l 1
 8 8 l 1
EndSplineSet
EndChar

StartChar: uniE13D
Encoding: 57661 57661 294
Width: 320
Flags: MW
HStem: 0 8<8 152 8 160> 312 8<8 152 8 8>
VStem: 0 8<8 8 8 312> 152 8<8 312 312 312>
LayerCount: 2
Fore
SplineSet
0 0 m 1
 0 320 l 1
 160 320 l 1
 160 0 l 1
 0 0 l 1
8 8 m 1
 152 8 l 1
 152 312 l 1
 8 312 l 1
 8 8 l 1
EndSplineSet
EndChar

StartChar: uniE13E
Encoding: 57662 57662 295
Width: 320
Flags: MW
HStem: 0 8<8 152 8 160> 312 8<8 152 8 8>
VStem: 0 8<8 8 8 312> 152 8<8 312 312 312>
LayerCount: 2
Fore
SplineSet
0 0 m 1
 0 320 l 1
 160 320 l 1
 160 0 l 1
 0 0 l 1
8 8 m 1
 152 8 l 1
 152 312 l 1
 8 312 l 1
 8 8 l 1
EndSplineSet
EndChar

StartChar: uniE13F
Encoding: 57663 57663 296
Width: 320
Flags: MW
HStem: 0 8<8 152 8 160> 312 8<8 152 8 8>
VStem: 0 8<8 8 8 312> 152 8<8 312 312 312>
LayerCount: 2
Fore
SplineSet
0 0 m 1
 0 320 l 1
 160 320 l 1
 160 0 l 1
 0 0 l 1
8 8 m 1
 152 8 l 1
 152 312 l 1
 8 312 l 1
 8 8 l 1
EndSplineSet
EndChar

StartChar: uniE140
Encoding: 57664 57664 297
Width: 320
Flags: MW
HStem: 0 8<8 152 8 160> 312 8<8 152 8 8>
VStem: 0 8<8 8 8 312> 152 8<8 312 312 312>
LayerCount: 2
Fore
SplineSet
0 0 m 1
 0 320 l 1
 160 320 l 1
 160 0 l 1
 0 0 l 1
8 8 m 1
 152 8 l 1
 152 312 l 1
 8 312 l 1
 8 8 l 1
EndSplineSet
EndChar

StartChar: uniE141
Encoding: 57665 57665 298
Width: 320
Flags: MW
HStem: 0 8<8 152 8 160> 312 8<8 152 8 8>
VStem: 0 8<8 8 8 312> 152 8<8 312 312 312>
LayerCount: 2
Fore
SplineSet
0 0 m 1
 0 320 l 1
 160 320 l 1
 160 0 l 1
 0 0 l 1
8 8 m 1
 152 8 l 1
 152 312 l 1
 8 312 l 1
 8 8 l 1
EndSplineSet
EndChar

StartChar: uniE142
Encoding: 57666 57666 299
Width: 320
Flags: MW
HStem: 0 8<8 152 8 160> 312 8<8 152 8 8>
VStem: 0 8<8 8 8 312> 152 8<8 312 312 312>
LayerCount: 2
Fore
SplineSet
0 0 m 1
 0 320 l 1
 160 320 l 1
 160 0 l 1
 0 0 l 1
8 8 m 1
 152 8 l 1
 152 312 l 1
 8 312 l 1
 8 8 l 1
EndSplineSet
EndChar

StartChar: uniE143
Encoding: 57667 57667 300
Width: 320
Flags: MW
HStem: 0 8<8 152 8 160> 312 8<8 152 8 8>
VStem: 0 8<8 8 8 312> 152 8<8 312 312 312>
LayerCount: 2
Fore
SplineSet
0 0 m 1
 0 320 l 1
 160 320 l 1
 160 0 l 1
 0 0 l 1
8 8 m 1
 152 8 l 1
 152 312 l 1
 8 312 l 1
 8 8 l 1
EndSplineSet
EndChar

StartChar: uniE144
Encoding: 57668 57668 301
Width: 320
Flags: MW
HStem: 0 8<8 152 8 160> 312 8<8 152 8 8>
VStem: 0 8<8 8 8 312> 152 8<8 312 312 312>
LayerCount: 2
Fore
SplineSet
0 0 m 1
 0 320 l 1
 160 320 l 1
 160 0 l 1
 0 0 l 1
8 8 m 1
 152 8 l 1
 152 312 l 1
 8 312 l 1
 8 8 l 1
EndSplineSet
EndChar

StartChar: uniE145
Encoding: 57669 57669 302
Width: 320
Flags: MW
HStem: 0 8<8 152 8 160> 312 8<8 152 8 8>
VStem: 0 8<8 8 8 312> 152 8<8 312 312 312>
LayerCount: 2
Fore
SplineSet
0 0 m 1
 0 320 l 1
 160 320 l 1
 160 0 l 1
 0 0 l 1
8 8 m 1
 152 8 l 1
 152 312 l 1
 8 312 l 1
 8 8 l 1
EndSplineSet
EndChar

StartChar: uniE146
Encoding: 57670 57670 303
Width: 320
Flags: MW
HStem: 0 8<8 152 8 160> 312 8<8 152 8 8>
VStem: 0 8<8 8 8 312> 152 8<8 312 312 312>
LayerCount: 2
Fore
SplineSet
0 0 m 1
 0 320 l 1
 160 320 l 1
 160 0 l 1
 0 0 l 1
8 8 m 1
 152 8 l 1
 152 312 l 1
 8 312 l 1
 8 8 l 1
EndSplineSet
EndChar

StartChar: uniE147
Encoding: 57671 57671 304
Width: 320
Flags: MW
HStem: 0 8<8 152 8 160> 312 8<8 152 8 8>
VStem: 0 8<8 8 8 312> 152 8<8 312 312 312>
LayerCount: 2
Fore
SplineSet
0 0 m 1
 0 320 l 1
 160 320 l 1
 160 0 l 1
 0 0 l 1
8 8 m 1
 152 8 l 1
 152 312 l 1
 8 312 l 1
 8 8 l 1
EndSplineSet
EndChar

StartChar: uniE150
Encoding: 57680 57680 305
Width: 320
Flags: MW
HStem: 0 8<8 152 8 160> 312 8<8 152 8 8>
VStem: 0 8<8 8 8 312> 152 8<8 312 312 312>
LayerCount: 2
Fore
SplineSet
0 0 m 1
 0 320 l 1
 160 320 l 1
 160 0 l 1
 0 0 l 1
8 8 m 1
 152 8 l 1
 152 312 l 1
 8 312 l 1
 8 8 l 1
EndSplineSet
EndChar

StartChar: uniE151
Encoding: 57681 57681 306
Width: 320
Flags: MW
HStem: 0 8<8 152 8 160> 312 8<8 152 8 8>
VStem: 0 8<8 8 8 312> 152 8<8 312 312 312>
LayerCount: 2
Fore
SplineSet
0 0 m 1
 0 320 l 1
 160 320 l 1
 160 0 l 1
 0 0 l 1
8 8 m 1
 152 8 l 1
 152 312 l 1
 8 312 l 1
 8 8 l 1
EndSplineSet
EndChar

StartChar: uniE152
Encoding: 57682 57682 307
Width: 320
Flags: MW
HStem: 0 8<8 152 8 160> 312 8<8 152 8 8>
VStem: 0 8<8 8 8 312> 152 8<8 312 312 312>
LayerCount: 2
Fore
SplineSet
0 0 m 1
 0 320 l 1
 160 320 l 1
 160 0 l 1
 0 0 l 1
8 8 m 1
 152 8 l 1
 152 312 l 1
 8 312 l 1
 8 8 l 1
EndSplineSet
EndChar

StartChar: uniE153
Encoding: 57683 57683 308
Width: 320
Flags: MW
HStem: 0 8<8 152 8 160> 312 8<8 152 8 8>
VStem: 0 8<8 8 8 312> 152 8<8 312 312 312>
LayerCount: 2
Fore
SplineSet
0 0 m 1
 0 320 l 1
 160 320 l 1
 160 0 l 1
 0 0 l 1
8 8 m 1
 152 8 l 1
 152 312 l 1
 8 312 l 1
 8 8 l 1
EndSplineSet
EndChar

StartChar: uniE154
Encoding: 57684 57684 309
Width: 320
Flags: MW
HStem: 0 8<8 152 8 160> 312 8<8 152 8 8>
VStem: 0 8<8 8 8 312> 152 8<8 312 312 312>
LayerCount: 2
Fore
SplineSet
0 0 m 1
 0 320 l 1
 160 320 l 1
 160 0 l 1
 0 0 l 1
8 8 m 1
 152 8 l 1
 152 312 l 1
 8 312 l 1
 8 8 l 1
EndSplineSet
EndChar

StartChar: uniE155
Encoding: 57685 57685 310
Width: 320
Flags: MW
HStem: 0 8<8 152 8 160> 312 8<8 152 8 8>
VStem: 0 8<8 8 8 312> 152 8<8 312 312 312>
LayerCount: 2
Fore
SplineSet
0 0 m 1
 0 320 l 1
 160 320 l 1
 160 0 l 1
 0 0 l 1
8 8 m 1
 152 8 l 1
 152 312 l 1
 8 312 l 1
 8 8 l 1
EndSplineSet
EndChar

StartChar: uniE156
Encoding: 57686 57686 311
Width: 320
Flags: MW
HStem: 0 8<8 152 8 160> 312 8<8 152 8 8>
VStem: 0 8<8 8 8 312> 152 8<8 312 312 312>
LayerCount: 2
Fore
SplineSet
0 0 m 1
 0 320 l 1
 160 320 l 1
 160 0 l 1
 0 0 l 1
8 8 m 1
 152 8 l 1
 152 312 l 1
 8 312 l 1
 8 8 l 1
EndSplineSet
EndChar

StartChar: uniE157
Encoding: 57687 57687 312
Width: 320
Flags: MW
HStem: 0 8<8 152 8 160> 312 8<8 152 8 8>
VStem: 0 8<8 8 8 312> 152 8<8 312 312 312>
LayerCount: 2
Fore
SplineSet
0 0 m 1
 0 320 l 1
 160 320 l 1
 160 0 l 1
 0 0 l 1
8 8 m 1
 152 8 l 1
 152 312 l 1
 8 312 l 1
 8 8 l 1
EndSplineSet
EndChar

StartChar: uniE158
Encoding: 57688 57688 313
Width: 320
Flags: MW
HStem: 0 8<8 152 8 160> 312 8<8 152 8 8>
VStem: 0 8<8 8 8 312> 152 8<8 312 312 312>
LayerCount: 2
Fore
SplineSet
0 0 m 1
 0 320 l 1
 160 320 l 1
 160 0 l 1
 0 0 l 1
8 8 m 1
 152 8 l 1
 152 312 l 1
 8 312 l 1
 8 8 l 1
EndSplineSet
EndChar

StartChar: uniE159
Encoding: 57689 57689 314
Width: 320
Flags: MW
HStem: 0 8<8 152 8 160> 312 8<8 152 8 8>
VStem: 0 8<8 8 8 312> 152 8<8 312 312 312>
LayerCount: 2
Fore
SplineSet
0 0 m 1
 0 320 l 1
 160 320 l 1
 160 0 l 1
 0 0 l 1
8 8 m 1
 152 8 l 1
 152 312 l 1
 8 312 l 1
 8 8 l 1
EndSplineSet
EndChar

StartChar: uniE15A
Encoding: 57690 57690 315
Width: 320
Flags: MW
HStem: 0 8<8 152 8 160> 312 8<8 152 8 8>
VStem: 0 8<8 8 8 312> 152 8<8 312 312 312>
LayerCount: 2
Fore
SplineSet
0 0 m 1
 0 320 l 1
 160 320 l 1
 160 0 l 1
 0 0 l 1
8 8 m 1
 152 8 l 1
 152 312 l 1
 8 312 l 1
 8 8 l 1
EndSplineSet
EndChar

StartChar: uniE15B
Encoding: 57691 57691 316
Width: 320
Flags: MW
HStem: 0 8<8 152 8 160> 312 8<8 152 8 8>
VStem: 0 8<8 8 8 312> 152 8<8 312 312 312>
LayerCount: 2
Fore
SplineSet
0 0 m 1
 0 320 l 1
 160 320 l 1
 160 0 l 1
 0 0 l 1
8 8 m 1
 152 8 l 1
 152 312 l 1
 8 312 l 1
 8 8 l 1
EndSplineSet
EndChar

StartChar: uniE15C
Encoding: 57692 57692 317
Width: 320
Flags: MW
HStem: 0 8<8 152 8 160> 312 8<8 152 8 8>
VStem: 0 8<8 8 8 312> 152 8<8 312 312 312>
LayerCount: 2
Fore
SplineSet
0 0 m 1
 0 320 l 1
 160 320 l 1
 160 0 l 1
 0 0 l 1
8 8 m 1
 152 8 l 1
 152 312 l 1
 8 312 l 1
 8 8 l 1
EndSplineSet
EndChar

StartChar: uniE15D
Encoding: 57693 57693 318
Width: 320
Flags: MW
HStem: 0 8<8 152 8 160> 312 8<8 152 8 8>
VStem: 0 8<8 8 8 312> 152 8<8 312 312 312>
LayerCount: 2
Fore
SplineSet
0 0 m 1
 0 320 l 1
 160 320 l 1
 160 0 l 1
 0 0 l 1
8 8 m 1
 152 8 l 1
 152 312 l 1
 8 312 l 1
 8 8 l 1
EndSplineSet
EndChar

StartChar: uniE15E
Encoding: 57694 57694 319
Width: 320
Flags: MW
HStem: 0 8<8 152 8 160> 312 8<8 152 8 8>
VStem: 0 8<8 8 8 312> 152 8<8 312 312 312>
LayerCount: 2
Fore
SplineSet
0 0 m 1
 0 320 l 1
 160 320 l 1
 160 0 l 1
 0 0 l 1
8 8 m 1
 152 8 l 1
 152 312 l 1
 8 312 l 1
 8 8 l 1
EndSplineSet
EndChar

StartChar: uniE15F
Encoding: 57695 57695 320
Width: 320
Flags: MW
HStem: 0 8<8 152 8 160> 312 8<8 152 8 8>
VStem: 0 8<8 8 8 312> 152 8<8 312 312 312>
LayerCount: 2
Fore
SplineSet
0 0 m 1
 0 320 l 1
 160 320 l 1
 160 0 l 1
 0 0 l 1
8 8 m 1
 152 8 l 1
 152 312 l 1
 8 312 l 1
 8 8 l 1
EndSplineSet
EndChar

StartChar: uniE160
Encoding: 57696 57696 321
Width: 320
Flags: MW
HStem: 0 8<8 152 8 160> 312 8<8 152 8 8>
VStem: 0 8<8 8 8 312> 152 8<8 312 312 312>
LayerCount: 2
Fore
SplineSet
0 0 m 1
 0 320 l 1
 160 320 l 1
 160 0 l 1
 0 0 l 1
8 8 m 1
 152 8 l 1
 152 312 l 1
 8 312 l 1
 8 8 l 1
EndSplineSet
EndChar

StartChar: uniE161
Encoding: 57697 57697 322
Width: 320
Flags: MW
HStem: 0 8<8 152 8 160> 312 8<8 152 8 8>
VStem: 0 8<8 8 8 312> 152 8<8 312 312 312>
LayerCount: 2
Fore
SplineSet
0 0 m 1
 0 320 l 1
 160 320 l 1
 160 0 l 1
 0 0 l 1
8 8 m 1
 152 8 l 1
 152 312 l 1
 8 312 l 1
 8 8 l 1
EndSplineSet
EndChar

StartChar: uniE162
Encoding: 57698 57698 323
Width: 320
Flags: MW
HStem: 0 8<8 152 8 160> 312 8<8 152 8 8>
VStem: 0 8<8 8 8 312> 152 8<8 312 312 312>
LayerCount: 2
Fore
SplineSet
0 0 m 1
 0 320 l 1
 160 320 l 1
 160 0 l 1
 0 0 l 1
8 8 m 1
 152 8 l 1
 152 312 l 1
 8 312 l 1
 8 8 l 1
EndSplineSet
EndChar

StartChar: uniE163
Encoding: 57699 57699 324
Width: 320
Flags: MW
HStem: 0 8<8 152 8 160> 312 8<8 152 8 8>
VStem: 0 8<8 8 8 312> 152 8<8 312 312 312>
LayerCount: 2
Fore
SplineSet
0 0 m 1
 0 320 l 1
 160 320 l 1
 160 0 l 1
 0 0 l 1
8 8 m 1
 152 8 l 1
 152 312 l 1
 8 312 l 1
 8 8 l 1
EndSplineSet
EndChar

StartChar: uniE164
Encoding: 57700 57700 325
Width: 320
Flags: MW
HStem: 0 8<8 152 8 160> 312 8<8 152 8 8>
VStem: 0 8<8 8 8 312> 152 8<8 312 312 312>
LayerCount: 2
Fore
SplineSet
0 0 m 1
 0 320 l 1
 160 320 l 1
 160 0 l 1
 0 0 l 1
8 8 m 1
 152 8 l 1
 152 312 l 1
 8 312 l 1
 8 8 l 1
EndSplineSet
EndChar

StartChar: uniE165
Encoding: 57701 57701 326
Width: 320
Flags: MW
HStem: 0 8<8 152 8 160> 312 8<8 152 8 8>
VStem: 0 8<8 8 8 312> 152 8<8 312 312 312>
LayerCount: 2
Fore
SplineSet
0 0 m 1
 0 320 l 1
 160 320 l 1
 160 0 l 1
 0 0 l 1
8 8 m 1
 152 8 l 1
 152 312 l 1
 8 312 l 1
 8 8 l 1
EndSplineSet
EndChar

StartChar: uniE166
Encoding: 57702 57702 327
Width: 320
Flags: MW
HStem: 0 8<8 152 8 160> 312 8<8 152 8 8>
VStem: 0 8<8 8 8 312> 152 8<8 312 312 312>
LayerCount: 2
Fore
SplineSet
0 0 m 1
 0 320 l 1
 160 320 l 1
 160 0 l 1
 0 0 l 1
8 8 m 1
 152 8 l 1
 152 312 l 1
 8 312 l 1
 8 8 l 1
EndSplineSet
EndChar

StartChar: uniE167
Encoding: 57703 57703 328
Width: 320
Flags: MW
HStem: 0 8<8 152 8 160> 312 8<8 152 8 8>
VStem: 0 8<8 8 8 312> 152 8<8 312 312 312>
LayerCount: 2
Fore
SplineSet
0 0 m 1
 0 320 l 1
 160 320 l 1
 160 0 l 1
 0 0 l 1
8 8 m 1
 152 8 l 1
 152 312 l 1
 8 312 l 1
 8 8 l 1
EndSplineSet
EndChar

StartChar: uniE168
Encoding: 57704 57704 329
Width: 320
Flags: MW
HStem: 0 8<8 152 8 160> 312 8<8 152 8 8>
VStem: 0 8<8 8 8 312> 152 8<8 312 312 312>
LayerCount: 2
Fore
SplineSet
0 0 m 1
 0 320 l 1
 160 320 l 1
 160 0 l 1
 0 0 l 1
8 8 m 1
 152 8 l 1
 152 312 l 1
 8 312 l 1
 8 8 l 1
EndSplineSet
EndChar

StartChar: uniE169
Encoding: 57705 57705 330
Width: 320
Flags: MW
HStem: 0 8<8 152 8 160> 312 8<8 152 8 8>
VStem: 0 8<8 8 8 312> 152 8<8 312 312 312>
LayerCount: 2
Fore
SplineSet
0 0 m 1
 0 320 l 1
 160 320 l 1
 160 0 l 1
 0 0 l 1
8 8 m 1
 152 8 l 1
 152 312 l 1
 8 312 l 1
 8 8 l 1
EndSplineSet
EndChar

StartChar: uniE16A
Encoding: 57706 57706 331
Width: 320
Flags: MW
HStem: 0 8<8 152 8 160> 312 8<8 152 8 8>
VStem: 0 8<8 8 8 312> 152 8<8 312 312 312>
LayerCount: 2
Fore
SplineSet
0 0 m 1
 0 320 l 1
 160 320 l 1
 160 0 l 1
 0 0 l 1
8 8 m 1
 152 8 l 1
 152 312 l 1
 8 312 l 1
 8 8 l 1
EndSplineSet
EndChar

StartChar: uniE16B
Encoding: 57707 57707 332
Width: 320
Flags: MW
HStem: 0 8<8 152 8 160> 312 8<8 152 8 8>
VStem: 0 8<8 8 8 312> 152 8<8 312 312 312>
LayerCount: 2
Fore
SplineSet
0 0 m 1
 0 320 l 1
 160 320 l 1
 160 0 l 1
 0 0 l 1
8 8 m 1
 152 8 l 1
 152 312 l 1
 8 312 l 1
 8 8 l 1
EndSplineSet
EndChar

StartChar: uniE16C
Encoding: 57708 57708 333
Width: 320
Flags: MW
HStem: 0 8<8 152 8 160> 312 8<8 152 8 8>
VStem: 0 8<8 8 8 312> 152 8<8 312 312 312>
LayerCount: 2
Fore
SplineSet
0 0 m 1
 0 320 l 1
 160 320 l 1
 160 0 l 1
 0 0 l 1
8 8 m 1
 152 8 l 1
 152 312 l 1
 8 312 l 1
 8 8 l 1
EndSplineSet
EndChar

StartChar: uniE16D
Encoding: 57709 57709 334
Width: 320
Flags: MW
HStem: 0 8<8 152 8 160> 312 8<8 152 8 8>
VStem: 0 8<8 8 8 312> 152 8<8 312 312 312>
LayerCount: 2
Fore
SplineSet
0 0 m 1
 0 320 l 1
 160 320 l 1
 160 0 l 1
 0 0 l 1
8 8 m 1
 152 8 l 1
 152 312 l 1
 8 312 l 1
 8 8 l 1
EndSplineSet
EndChar

StartChar: uniE16E
Encoding: 57710 57710 335
Width: 320
Flags: MW
HStem: 0 8<8 152 8 160> 312 8<8 152 8 8>
VStem: 0 8<8 8 8 312> 152 8<8 312 312 312>
LayerCount: 2
Fore
SplineSet
0 0 m 1
 0 320 l 1
 160 320 l 1
 160 0 l 1
 0 0 l 1
8 8 m 1
 152 8 l 1
 152 312 l 1
 8 312 l 1
 8 8 l 1
EndSplineSet
EndChar

StartChar: uniE16F
Encoding: 57711 57711 336
Width: 320
Flags: MW
HStem: 0 8<8 152 8 160> 312 8<8 152 8 8>
VStem: 0 8<8 8 8 312> 152 8<8 312 312 312>
LayerCount: 2
Fore
SplineSet
0 0 m 1
 0 320 l 1
 160 320 l 1
 160 0 l 1
 0 0 l 1
8 8 m 1
 152 8 l 1
 152 312 l 1
 8 312 l 1
 8 8 l 1
EndSplineSet
EndChar

StartChar: uniE170
Encoding: 57712 57712 337
Width: 320
Flags: MW
HStem: 0 8<8 152 8 160> 312 8<8 152 8 8>
VStem: 0 8<8 8 8 312> 152 8<8 312 312 312>
LayerCount: 2
Fore
SplineSet
0 0 m 1
 0 320 l 1
 160 320 l 1
 160 0 l 1
 0 0 l 1
8 8 m 1
 152 8 l 1
 152 312 l 1
 8 312 l 1
 8 8 l 1
EndSplineSet
EndChar

StartChar: uniE171
Encoding: 57713 57713 338
Width: 320
Flags: MW
HStem: 0 8<8 152 8 160> 312 8<8 152 8 8>
VStem: 0 8<8 8 8 312> 152 8<8 312 312 312>
LayerCount: 2
Fore
SplineSet
0 0 m 1
 0 320 l 1
 160 320 l 1
 160 0 l 1
 0 0 l 1
8 8 m 1
 152 8 l 1
 152 312 l 1
 8 312 l 1
 8 8 l 1
EndSplineSet
EndChar

StartChar: uniE172
Encoding: 57714 57714 339
Width: 320
Flags: MW
HStem: 0 8<8 152 8 160> 312 8<8 152 8 8>
VStem: 0 8<8 8 8 312> 152 8<8 312 312 312>
LayerCount: 2
Fore
SplineSet
0 0 m 1
 0 320 l 1
 160 320 l 1
 160 0 l 1
 0 0 l 1
8 8 m 1
 152 8 l 1
 152 312 l 1
 8 312 l 1
 8 8 l 1
EndSplineSet
EndChar

StartChar: uniE173
Encoding: 57715 57715 340
Width: 320
Flags: MW
HStem: 0 8<8 152 8 160> 312 8<8 152 8 8>
VStem: 0 8<8 8 8 312> 152 8<8 312 312 312>
LayerCount: 2
Fore
SplineSet
0 0 m 1
 0 320 l 1
 160 320 l 1
 160 0 l 1
 0 0 l 1
8 8 m 1
 152 8 l 1
 152 312 l 1
 8 312 l 1
 8 8 l 1
EndSplineSet
EndChar

StartChar: uniE174
Encoding: 57716 57716 341
Width: 320
Flags: MW
HStem: 0 8<8 152 8 160> 312 8<8 152 8 8>
VStem: 0 8<8 8 8 312> 152 8<8 312 312 312>
LayerCount: 2
Fore
SplineSet
0 0 m 1
 0 320 l 1
 160 320 l 1
 160 0 l 1
 0 0 l 1
8 8 m 1
 152 8 l 1
 152 312 l 1
 8 312 l 1
 8 8 l 1
EndSplineSet
EndChar

StartChar: uniE175
Encoding: 57717 57717 342
Width: 320
Flags: MW
HStem: 0 8<8 152 8 160> 312 8<8 152 8 8>
VStem: 0 8<8 8 8 312> 152 8<8 312 312 312>
LayerCount: 2
Fore
SplineSet
0 0 m 1
 0 320 l 1
 160 320 l 1
 160 0 l 1
 0 0 l 1
8 8 m 1
 152 8 l 1
 152 312 l 1
 8 312 l 1
 8 8 l 1
EndSplineSet
EndChar

StartChar: uniE176
Encoding: 57718 57718 343
Width: 320
Flags: MW
HStem: 0 8<8 152 8 160> 312 8<8 152 8 8>
VStem: 0 8<8 8 8 312> 152 8<8 312 312 312>
LayerCount: 2
Fore
SplineSet
0 0 m 1
 0 320 l 1
 160 320 l 1
 160 0 l 1
 0 0 l 1
8 8 m 1
 152 8 l 1
 152 312 l 1
 8 312 l 1
 8 8 l 1
EndSplineSet
EndChar

StartChar: uniE177
Encoding: 57719 57719 344
Width: 320
Flags: MW
HStem: 0 8<8 152 8 160> 312 8<8 152 8 8>
VStem: 0 8<8 8 8 312> 152 8<8 312 312 312>
LayerCount: 2
Fore
SplineSet
0 0 m 1
 0 320 l 1
 160 320 l 1
 160 0 l 1
 0 0 l 1
8 8 m 1
 152 8 l 1
 152 312 l 1
 8 312 l 1
 8 8 l 1
EndSplineSet
EndChar

StartChar: uniE178
Encoding: 57720 57720 345
Width: 320
Flags: MW
HStem: 0 8<8 152 8 160> 312 8<8 152 8 8>
VStem: 0 8<8 8 8 312> 152 8<8 312 312 312>
LayerCount: 2
Fore
SplineSet
0 0 m 1
 0 320 l 1
 160 320 l 1
 160 0 l 1
 0 0 l 1
8 8 m 1
 152 8 l 1
 152 312 l 1
 8 312 l 1
 8 8 l 1
EndSplineSet
EndChar

StartChar: uniE179
Encoding: 57721 57721 346
Width: 320
Flags: MW
HStem: 0 8<8 152 8 160> 312 8<8 152 8 8>
VStem: 0 8<8 8 8 312> 152 8<8 312 312 312>
LayerCount: 2
Fore
SplineSet
0 0 m 1
 0 320 l 1
 160 320 l 1
 160 0 l 1
 0 0 l 1
8 8 m 1
 152 8 l 1
 152 312 l 1
 8 312 l 1
 8 8 l 1
EndSplineSet
EndChar

StartChar: uniE17A
Encoding: 57722 57722 347
Width: 320
Flags: MW
HStem: 0 8<8 152 8 160> 312 8<8 152 8 8>
VStem: 0 8<8 8 8 312> 152 8<8 312 312 312>
LayerCount: 2
Fore
SplineSet
0 0 m 1
 0 320 l 1
 160 320 l 1
 160 0 l 1
 0 0 l 1
8 8 m 1
 152 8 l 1
 152 312 l 1
 8 312 l 1
 8 8 l 1
EndSplineSet
EndChar

StartChar: uniE17B
Encoding: 57723 57723 348
Width: 320
Flags: MW
HStem: 0 8<8 152 8 160> 312 8<8 152 8 8>
VStem: 0 8<8 8 8 312> 152 8<8 312 312 312>
LayerCount: 2
Fore
SplineSet
0 0 m 1
 0 320 l 1
 160 320 l 1
 160 0 l 1
 0 0 l 1
8 8 m 1
 152 8 l 1
 152 312 l 1
 8 312 l 1
 8 8 l 1
EndSplineSet
EndChar

StartChar: uniE17C
Encoding: 57724 57724 349
Width: 320
Flags: MW
HStem: 0 8<8 152 8 160> 312 8<8 152 8 8>
VStem: 0 8<8 8 8 312> 152 8<8 312 312 312>
LayerCount: 2
Fore
SplineSet
0 0 m 1
 0 320 l 1
 160 320 l 1
 160 0 l 1
 0 0 l 1
8 8 m 1
 152 8 l 1
 152 312 l 1
 8 312 l 1
 8 8 l 1
EndSplineSet
EndChar

StartChar: uniE17D
Encoding: 57725 57725 350
Width: 320
Flags: MW
HStem: 0 8<8 152 8 160> 312 8<8 152 8 8>
VStem: 0 8<8 8 8 312> 152 8<8 312 312 312>
LayerCount: 2
Fore
SplineSet
0 0 m 1
 0 320 l 1
 160 320 l 1
 160 0 l 1
 0 0 l 1
8 8 m 1
 152 8 l 1
 152 312 l 1
 8 312 l 1
 8 8 l 1
EndSplineSet
EndChar

StartChar: uniE17E
Encoding: 57726 57726 351
Width: 320
Flags: MW
HStem: 0 8<8 152 8 160> 312 8<8 152 8 8>
VStem: 0 8<8 8 8 312> 152 8<8 312 312 312>
LayerCount: 2
Fore
SplineSet
0 0 m 1
 0 320 l 1
 160 320 l 1
 160 0 l 1
 0 0 l 1
8 8 m 1
 152 8 l 1
 152 312 l 1
 8 312 l 1
 8 8 l 1
EndSplineSet
EndChar

StartChar: uniE17F
Encoding: 57727 57727 352
Width: 320
Flags: MW
HStem: 0 8<8 152 8 160> 312 8<8 152 8 8>
VStem: 0 8<8 8 8 312> 152 8<8 312 312 312>
LayerCount: 2
Fore
SplineSet
0 0 m 1
 0 320 l 1
 160 320 l 1
 160 0 l 1
 0 0 l 1
8 8 m 1
 152 8 l 1
 152 312 l 1
 8 312 l 1
 8 8 l 1
EndSplineSet
EndChar

StartChar: uniE180
Encoding: 57728 57728 353
Width: 320
Flags: MW
HStem: 0 8<8 152 8 160> 312 8<8 152 8 8>
VStem: 0 8<8 8 8 312> 152 8<8 312 312 312>
LayerCount: 2
Fore
SplineSet
0 0 m 1
 0 320 l 1
 160 320 l 1
 160 0 l 1
 0 0 l 1
8 8 m 1
 152 8 l 1
 152 312 l 1
 8 312 l 1
 8 8 l 1
EndSplineSet
EndChar

StartChar: uniE181
Encoding: 57729 57729 354
Width: 320
Flags: MW
HStem: 0 8<8 152 8 160> 312 8<8 152 8 8>
VStem: 0 8<8 8 8 312> 152 8<8 312 312 312>
LayerCount: 2
Fore
SplineSet
0 0 m 1
 0 320 l 1
 160 320 l 1
 160 0 l 1
 0 0 l 1
8 8 m 1
 152 8 l 1
 152 312 l 1
 8 312 l 1
 8 8 l 1
EndSplineSet
EndChar

StartChar: uniE182
Encoding: 57730 57730 355
Width: 320
Flags: MW
HStem: 0 8<8 152 8 160> 312 8<8 152 8 8>
VStem: 0 8<8 8 8 312> 152 8<8 312 312 312>
LayerCount: 2
Fore
SplineSet
0 0 m 1
 0 320 l 1
 160 320 l 1
 160 0 l 1
 0 0 l 1
8 8 m 1
 152 8 l 1
 152 312 l 1
 8 312 l 1
 8 8 l 1
EndSplineSet
EndChar

StartChar: uniE183
Encoding: 57731 57731 356
Width: 320
Flags: MW
HStem: 0 8<8 152 8 160> 312 8<8 152 8 8>
VStem: 0 8<8 8 8 312> 152 8<8 312 312 312>
LayerCount: 2
Fore
SplineSet
0 0 m 1
 0 320 l 1
 160 320 l 1
 160 0 l 1
 0 0 l 1
8 8 m 1
 152 8 l 1
 152 312 l 1
 8 312 l 1
 8 8 l 1
EndSplineSet
EndChar

StartChar: uniE184
Encoding: 57732 57732 357
Width: 320
Flags: MW
HStem: 0 8<8 152 8 160> 312 8<8 152 8 8>
VStem: 0 8<8 8 8 312> 152 8<8 312 312 312>
LayerCount: 2
Fore
SplineSet
0 0 m 1
 0 320 l 1
 160 320 l 1
 160 0 l 1
 0 0 l 1
8 8 m 1
 152 8 l 1
 152 312 l 1
 8 312 l 1
 8 8 l 1
EndSplineSet
EndChar

StartChar: uniE185
Encoding: 57733 57733 358
Width: 320
Flags: MW
HStem: 0 8<8 152 8 160> 312 8<8 152 8 8>
VStem: 0 8<8 8 8 312> 152 8<8 312 312 312>
LayerCount: 2
Fore
SplineSet
0 0 m 1
 0 320 l 1
 160 320 l 1
 160 0 l 1
 0 0 l 1
8 8 m 1
 152 8 l 1
 152 312 l 1
 8 312 l 1
 8 8 l 1
EndSplineSet
EndChar

StartChar: uniE186
Encoding: 57734 57734 359
Width: 320
Flags: MW
HStem: 0 8<8 152 8 160> 312 8<8 152 8 8>
VStem: 0 8<8 8 8 312> 152 8<8 312 312 312>
LayerCount: 2
Fore
SplineSet
0 0 m 1
 0 320 l 1
 160 320 l 1
 160 0 l 1
 0 0 l 1
8 8 m 1
 152 8 l 1
 152 312 l 1
 8 312 l 1
 8 8 l 1
EndSplineSet
EndChar

StartChar: uniE187
Encoding: 57735 57735 360
Width: 320
Flags: MW
HStem: 0 8<8 152 8 160> 312 8<8 152 8 8>
VStem: 0 8<8 8 8 312> 152 8<8 312 312 312>
LayerCount: 2
Fore
SplineSet
0 0 m 1
 0 320 l 1
 160 320 l 1
 160 0 l 1
 0 0 l 1
8 8 m 1
 152 8 l 1
 152 312 l 1
 8 312 l 1
 8 8 l 1
EndSplineSet
EndChar

StartChar: uniE188
Encoding: 57736 57736 361
Width: 320
Flags: MW
HStem: 0 8<8 152 8 160> 312 8<8 152 8 8>
VStem: 0 8<8 8 8 312> 152 8<8 312 312 312>
LayerCount: 2
Fore
SplineSet
0 0 m 1
 0 320 l 1
 160 320 l 1
 160 0 l 1
 0 0 l 1
8 8 m 1
 152 8 l 1
 152 312 l 1
 8 312 l 1
 8 8 l 1
EndSplineSet
EndChar

StartChar: uniE189
Encoding: 57737 57737 362
Width: 320
Flags: MW
HStem: 0 8<8 152 8 160> 312 8<8 152 8 8>
VStem: 0 8<8 8 8 312> 152 8<8 312 312 312>
LayerCount: 2
Fore
SplineSet
0 0 m 1
 0 320 l 1
 160 320 l 1
 160 0 l 1
 0 0 l 1
8 8 m 1
 152 8 l 1
 152 312 l 1
 8 312 l 1
 8 8 l 1
EndSplineSet
EndChar

StartChar: uniE18A
Encoding: 57738 57738 363
Width: 320
Flags: MW
HStem: 0 8<8 152 8 160> 312 8<8 152 8 8>
VStem: 0 8<8 8 8 312> 152 8<8 312 312 312>
LayerCount: 2
Fore
SplineSet
0 0 m 1
 0 320 l 1
 160 320 l 1
 160 0 l 1
 0 0 l 1
8 8 m 1
 152 8 l 1
 152 312 l 1
 8 312 l 1
 8 8 l 1
EndSplineSet
EndChar

StartChar: uniE18B
Encoding: 57739 57739 364
Width: 320
Flags: MW
HStem: 0 8<8 152 8 160> 312 8<8 152 8 8>
VStem: 0 8<8 8 8 312> 152 8<8 312 312 312>
LayerCount: 2
Fore
SplineSet
0 0 m 1
 0 320 l 1
 160 320 l 1
 160 0 l 1
 0 0 l 1
8 8 m 1
 152 8 l 1
 152 312 l 1
 8 312 l 1
 8 8 l 1
EndSplineSet
EndChar

StartChar: uniE18C
Encoding: 57740 57740 365
Width: 320
Flags: MW
HStem: 0 8<8 152 8 160> 312 8<8 152 8 8>
VStem: 0 8<8 8 8 312> 152 8<8 312 312 312>
LayerCount: 2
Fore
SplineSet
0 0 m 1
 0 320 l 1
 160 320 l 1
 160 0 l 1
 0 0 l 1
8 8 m 1
 152 8 l 1
 152 312 l 1
 8 312 l 1
 8 8 l 1
EndSplineSet
EndChar

StartChar: uniE18D
Encoding: 57741 57741 366
Width: 320
Flags: MW
HStem: 0 8<8 152 8 160> 312 8<8 152 8 8>
VStem: 0 8<8 8 8 312> 152 8<8 312 312 312>
LayerCount: 2
Fore
SplineSet
0 0 m 1
 0 320 l 1
 160 320 l 1
 160 0 l 1
 0 0 l 1
8 8 m 1
 152 8 l 1
 152 312 l 1
 8 312 l 1
 8 8 l 1
EndSplineSet
EndChar

StartChar: uniE18E
Encoding: 57742 57742 367
Width: 320
Flags: MW
HStem: 0 8<8 152 8 160> 312 8<8 152 8 8>
VStem: 0 8<8 8 8 312> 152 8<8 312 312 312>
LayerCount: 2
Fore
SplineSet
0 0 m 1
 0 320 l 1
 160 320 l 1
 160 0 l 1
 0 0 l 1
8 8 m 1
 152 8 l 1
 152 312 l 1
 8 312 l 1
 8 8 l 1
EndSplineSet
EndChar

StartChar: uniE18F
Encoding: 57743 57743 368
Width: 320
Flags: MW
HStem: 0 8<8 152 8 160> 312 8<8 152 8 8>
VStem: 0 8<8 8 8 312> 152 8<8 312 312 312>
LayerCount: 2
Fore
SplineSet
0 0 m 1
 0 320 l 1
 160 320 l 1
 160 0 l 1
 0 0 l 1
8 8 m 1
 152 8 l 1
 152 312 l 1
 8 312 l 1
 8 8 l 1
EndSplineSet
EndChar

StartChar: uniE190
Encoding: 57744 57744 369
Width: 320
Flags: MW
HStem: 0 8<8 152 8 160> 312 8<8 152 8 8>
VStem: 0 8<8 8 8 312> 152 8<8 312 312 312>
LayerCount: 2
Fore
SplineSet
0 0 m 1
 0 320 l 1
 160 320 l 1
 160 0 l 1
 0 0 l 1
8 8 m 1
 152 8 l 1
 152 312 l 1
 8 312 l 1
 8 8 l 1
EndSplineSet
EndChar

StartChar: uniE191
Encoding: 57745 57745 370
Width: 320
Flags: MW
HStem: 0 8<8 152 8 160> 312 8<8 152 8 8>
VStem: 0 8<8 8 8 312> 152 8<8 312 312 312>
LayerCount: 2
Fore
SplineSet
0 0 m 1
 0 320 l 1
 160 320 l 1
 160 0 l 1
 0 0 l 1
8 8 m 1
 152 8 l 1
 152 312 l 1
 8 312 l 1
 8 8 l 1
EndSplineSet
EndChar

StartChar: uniE192
Encoding: 57746 57746 371
Width: 320
Flags: MW
HStem: 0 8<8 152 8 160> 312 8<8 152 8 8>
VStem: 0 8<8 8 8 312> 152 8<8 312 312 312>
LayerCount: 2
Fore
SplineSet
0 0 m 1
 0 320 l 1
 160 320 l 1
 160 0 l 1
 0 0 l 1
8 8 m 1
 152 8 l 1
 152 312 l 1
 8 312 l 1
 8 8 l 1
EndSplineSet
EndChar

StartChar: uniE193
Encoding: 57747 57747 372
Width: 320
Flags: MW
HStem: 0 8<8 152 8 160> 312 8<8 152 8 8>
VStem: 0 8<8 8 8 312> 152 8<8 312 312 312>
LayerCount: 2
Fore
SplineSet
0 0 m 1
 0 320 l 1
 160 320 l 1
 160 0 l 1
 0 0 l 1
8 8 m 1
 152 8 l 1
 152 312 l 1
 8 312 l 1
 8 8 l 1
EndSplineSet
EndChar

StartChar: uniE194
Encoding: 57748 57748 373
Width: 320
Flags: MW
HStem: 0 8<8 152 8 160> 312 8<8 152 8 8>
VStem: 0 8<8 8 8 312> 152 8<8 312 312 312>
LayerCount: 2
Fore
SplineSet
0 0 m 1
 0 320 l 1
 160 320 l 1
 160 0 l 1
 0 0 l 1
8 8 m 1
 152 8 l 1
 152 312 l 1
 8 312 l 1
 8 8 l 1
EndSplineSet
EndChar

StartChar: uniE195
Encoding: 57749 57749 374
Width: 320
Flags: MW
HStem: 0 8<8 152 8 160> 312 8<8 152 8 8>
VStem: 0 8<8 8 8 312> 152 8<8 312 312 312>
LayerCount: 2
Fore
SplineSet
0 0 m 1
 0 320 l 1
 160 320 l 1
 160 0 l 1
 0 0 l 1
8 8 m 1
 152 8 l 1
 152 312 l 1
 8 312 l 1
 8 8 l 1
EndSplineSet
EndChar

StartChar: uniE196
Encoding: 57750 57750 375
Width: 320
Flags: MW
HStem: 0 8<8 152 8 160> 312 8<8 152 8 8>
VStem: 0 8<8 8 8 312> 152 8<8 312 312 312>
LayerCount: 2
Fore
SplineSet
0 0 m 1
 0 320 l 1
 160 320 l 1
 160 0 l 1
 0 0 l 1
8 8 m 1
 152 8 l 1
 152 312 l 1
 8 312 l 1
 8 8 l 1
EndSplineSet
EndChar

StartChar: uniE197
Encoding: 57751 57751 376
Width: 320
Flags: MW
HStem: 0 8<8 152 8 160> 312 8<8 152 8 8>
VStem: 0 8<8 8 8 312> 152 8<8 312 312 312>
LayerCount: 2
Fore
SplineSet
0 0 m 1
 0 320 l 1
 160 320 l 1
 160 0 l 1
 0 0 l 1
8 8 m 1
 152 8 l 1
 152 312 l 1
 8 312 l 1
 8 8 l 1
EndSplineSet
EndChar

StartChar: uniE198
Encoding: 57752 57752 377
Width: 320
Flags: MW
HStem: 0 8<8 152 8 160> 312 8<8 152 8 8>
VStem: 0 8<8 8 8 312> 152 8<8 312 312 312>
LayerCount: 2
Fore
SplineSet
0 0 m 1
 0 320 l 1
 160 320 l 1
 160 0 l 1
 0 0 l 1
8 8 m 1
 152 8 l 1
 152 312 l 1
 8 312 l 1
 8 8 l 1
EndSplineSet
EndChar

StartChar: uniE199
Encoding: 57753 57753 378
Width: 320
Flags: MW
HStem: 0 8<8 152 8 160> 312 8<8 152 8 8>
VStem: 0 8<8 8 8 312> 152 8<8 312 312 312>
LayerCount: 2
Fore
SplineSet
0 0 m 1
 0 320 l 1
 160 320 l 1
 160 0 l 1
 0 0 l 1
8 8 m 1
 152 8 l 1
 152 312 l 1
 8 312 l 1
 8 8 l 1
EndSplineSet
EndChar

StartChar: uniE19A
Encoding: 57754 57754 379
Width: 320
Flags: MW
HStem: 0 8<8 152 8 160> 312 8<8 152 8 8>
VStem: 0 8<8 8 8 312> 152 8<8 312 312 312>
LayerCount: 2
Fore
SplineSet
0 0 m 1
 0 320 l 1
 160 320 l 1
 160 0 l 1
 0 0 l 1
8 8 m 1
 152 8 l 1
 152 312 l 1
 8 312 l 1
 8 8 l 1
EndSplineSet
EndChar

StartChar: uniE19B
Encoding: 57755 57755 380
Width: 320
Flags: MW
HStem: 0 8<8 152 8 160> 312 8<8 152 8 8>
VStem: 0 8<8 8 8 312> 152 8<8 312 312 312>
LayerCount: 2
Fore
SplineSet
0 0 m 1
 0 320 l 1
 160 320 l 1
 160 0 l 1
 0 0 l 1
8 8 m 1
 152 8 l 1
 152 312 l 1
 8 312 l 1
 8 8 l 1
EndSplineSet
EndChar

StartChar: uniE19C
Encoding: 57756 57756 381
Width: 320
Flags: MW
HStem: 0 8<8 152 8 160> 312 8<8 152 8 8>
VStem: 0 8<8 8 8 312> 152 8<8 312 312 312>
LayerCount: 2
Fore
SplineSet
0 0 m 1
 0 320 l 1
 160 320 l 1
 160 0 l 1
 0 0 l 1
8 8 m 1
 152 8 l 1
 152 312 l 1
 8 312 l 1
 8 8 l 1
EndSplineSet
EndChar

StartChar: uniE19D
Encoding: 57757 57757 382
Width: 320
Flags: MW
HStem: 0 8<8 152 8 160> 312 8<8 152 8 8>
VStem: 0 8<8 8 8 312> 152 8<8 312 312 312>
LayerCount: 2
Fore
SplineSet
0 0 m 1
 0 320 l 1
 160 320 l 1
 160 0 l 1
 0 0 l 1
8 8 m 1
 152 8 l 1
 152 312 l 1
 8 312 l 1
 8 8 l 1
EndSplineSet
EndChar

StartChar: uniE19E
Encoding: 57758 57758 383
Width: 320
Flags: MW
HStem: 0 8<8 152 8 160> 312 8<8 152 8 8>
VStem: 0 8<8 8 8 312> 152 8<8 312 312 312>
LayerCount: 2
Fore
SplineSet
0 0 m 1
 0 320 l 1
 160 320 l 1
 160 0 l 1
 0 0 l 1
8 8 m 1
 152 8 l 1
 152 312 l 1
 8 312 l 1
 8 8 l 1
EndSplineSet
EndChar

StartChar: uniE19F
Encoding: 57759 57759 384
Width: 320
Flags: MW
HStem: 0 8<8 152 8 160> 312 8<8 152 8 8>
VStem: 0 8<8 8 8 312> 152 8<8 312 312 312>
LayerCount: 2
Fore
SplineSet
0 0 m 1
 0 320 l 1
 160 320 l 1
 160 0 l 1
 0 0 l 1
8 8 m 1
 152 8 l 1
 152 312 l 1
 8 312 l 1
 8 8 l 1
EndSplineSet
EndChar

StartChar: uniE1A0
Encoding: 57760 57760 385
Width: 320
Flags: MW
HStem: 0 8<8 152 8 160> 312 8<8 152 8 8>
VStem: 0 8<8 8 8 312> 152 8<8 312 312 312>
LayerCount: 2
Fore
SplineSet
0 0 m 1
 0 320 l 1
 160 320 l 1
 160 0 l 1
 0 0 l 1
8 8 m 1
 152 8 l 1
 152 312 l 1
 8 312 l 1
 8 8 l 1
EndSplineSet
EndChar

StartChar: uniE1A1
Encoding: 57761 57761 386
Width: 320
Flags: MW
HStem: 0 8<8 152 8 160> 312 8<8 152 8 8>
VStem: 0 8<8 8 8 312> 152 8<8 312 312 312>
LayerCount: 2
Fore
SplineSet
0 0 m 1
 0 320 l 1
 160 320 l 1
 160 0 l 1
 0 0 l 1
8 8 m 1
 152 8 l 1
 152 312 l 1
 8 312 l 1
 8 8 l 1
EndSplineSet
EndChar

StartChar: uniE1A2
Encoding: 57762 57762 387
Width: 320
Flags: MW
HStem: 0 8<8 152 8 160> 312 8<8 152 8 8>
VStem: 0 8<8 8 8 312> 152 8<8 312 312 312>
LayerCount: 2
Fore
SplineSet
0 0 m 1
 0 320 l 1
 160 320 l 1
 160 0 l 1
 0 0 l 1
8 8 m 1
 152 8 l 1
 152 312 l 1
 8 312 l 1
 8 8 l 1
EndSplineSet
EndChar

StartChar: uniE1A3
Encoding: 57763 57763 388
Width: 320
Flags: MW
HStem: 0 8<8 152 8 160> 312 8<8 152 8 8>
VStem: 0 8<8 8 8 312> 152 8<8 312 312 312>
LayerCount: 2
Fore
SplineSet
0 0 m 1
 0 320 l 1
 160 320 l 1
 160 0 l 1
 0 0 l 1
8 8 m 1
 152 8 l 1
 152 312 l 1
 8 312 l 1
 8 8 l 1
EndSplineSet
EndChar

StartChar: uniE1A4
Encoding: 57764 57764 389
Width: 320
Flags: MW
HStem: 0 8<8 152 8 160> 312 8<8 152 8 8>
VStem: 0 8<8 8 8 312> 152 8<8 312 312 312>
LayerCount: 2
Fore
SplineSet
0 0 m 1
 0 320 l 1
 160 320 l 1
 160 0 l 1
 0 0 l 1
8 8 m 1
 152 8 l 1
 152 312 l 1
 8 312 l 1
 8 8 l 1
EndSplineSet
EndChar

StartChar: uniE1A5
Encoding: 57765 57765 390
Width: 320
Flags: MW
HStem: 0 8<8 152 8 160> 312 8<8 152 8 8>
VStem: 0 8<8 8 8 312> 152 8<8 312 312 312>
LayerCount: 2
Fore
SplineSet
0 0 m 1
 0 320 l 1
 160 320 l 1
 160 0 l 1
 0 0 l 1
8 8 m 1
 152 8 l 1
 152 312 l 1
 8 312 l 1
 8 8 l 1
EndSplineSet
EndChar

StartChar: uniE1A6
Encoding: 57766 57766 391
Width: 320
Flags: MW
HStem: 0 8<8 152 8 160> 312 8<8 152 8 8>
VStem: 0 8<8 8 8 312> 152 8<8 312 312 312>
LayerCount: 2
Fore
SplineSet
0 0 m 1
 0 320 l 1
 160 320 l 1
 160 0 l 1
 0 0 l 1
8 8 m 1
 152 8 l 1
 152 312 l 1
 8 312 l 1
 8 8 l 1
EndSplineSet
EndChar

StartChar: uniE1A7
Encoding: 57767 57767 392
Width: 320
Flags: MW
HStem: 0 8<8 152 8 160> 312 8<8 152 8 8>
VStem: 0 8<8 8 8 312> 152 8<8 312 312 312>
LayerCount: 2
Fore
SplineSet
0 0 m 1
 0 320 l 1
 160 320 l 1
 160 0 l 1
 0 0 l 1
8 8 m 1
 152 8 l 1
 152 312 l 1
 8 312 l 1
 8 8 l 1
EndSplineSet
EndChar

StartChar: uniE1A8
Encoding: 57768 57768 393
Width: 320
Flags: MW
HStem: 0 8<8 152 8 160> 312 8<8 152 8 8>
VStem: 0 8<8 8 8 312> 152 8<8 312 312 312>
LayerCount: 2
Fore
SplineSet
0 0 m 1
 0 320 l 1
 160 320 l 1
 160 0 l 1
 0 0 l 1
8 8 m 1
 152 8 l 1
 152 312 l 1
 8 312 l 1
 8 8 l 1
EndSplineSet
EndChar

StartChar: uniE1A9
Encoding: 57769 57769 394
Width: 320
Flags: MW
HStem: 0 8<8 152 8 160> 312 8<8 152 8 8>
VStem: 0 8<8 8 8 312> 152 8<8 312 312 312>
LayerCount: 2
Fore
SplineSet
0 0 m 1
 0 320 l 1
 160 320 l 1
 160 0 l 1
 0 0 l 1
8 8 m 1
 152 8 l 1
 152 312 l 1
 8 312 l 1
 8 8 l 1
EndSplineSet
EndChar

StartChar: uniE1AA
Encoding: 57770 57770 395
Width: 320
Flags: MW
HStem: 0 8<8 152 8 160> 312 8<8 152 8 8>
VStem: 0 8<8 8 8 312> 152 8<8 312 312 312>
LayerCount: 2
Fore
SplineSet
0 0 m 1
 0 320 l 1
 160 320 l 1
 160 0 l 1
 0 0 l 1
8 8 m 1
 152 8 l 1
 152 312 l 1
 8 312 l 1
 8 8 l 1
EndSplineSet
EndChar

StartChar: uniE1AB
Encoding: 57771 57771 396
Width: 320
Flags: MW
HStem: 0 8<8 152 8 160> 312 8<8 152 8 8>
VStem: 0 8<8 8 8 312> 152 8<8 312 312 312>
LayerCount: 2
Fore
SplineSet
0 0 m 1
 0 320 l 1
 160 320 l 1
 160 0 l 1
 0 0 l 1
8 8 m 1
 152 8 l 1
 152 312 l 1
 8 312 l 1
 8 8 l 1
EndSplineSet
EndChar

StartChar: uniE1AC
Encoding: 57772 57772 397
Width: 320
Flags: MW
HStem: 0 8<8 152 8 160> 312 8<8 152 8 8>
VStem: 0 8<8 8 8 312> 152 8<8 312 312 312>
LayerCount: 2
Fore
SplineSet
0 0 m 1
 0 320 l 1
 160 320 l 1
 160 0 l 1
 0 0 l 1
8 8 m 1
 152 8 l 1
 152 312 l 1
 8 312 l 1
 8 8 l 1
EndSplineSet
EndChar

StartChar: uniE1AD
Encoding: 57773 57773 398
Width: 320
Flags: MW
HStem: 0 8<8 152 8 160> 312 8<8 152 8 8>
VStem: 0 8<8 8 8 312> 152 8<8 312 312 312>
LayerCount: 2
Fore
SplineSet
0 0 m 1
 0 320 l 1
 160 320 l 1
 160 0 l 1
 0 0 l 1
8 8 m 1
 152 8 l 1
 152 312 l 1
 8 312 l 1
 8 8 l 1
EndSplineSet
EndChar

StartChar: uniE1AE
Encoding: 57774 57774 399
Width: 320
Flags: MW
HStem: 0 8<8 152 8 160> 312 8<8 152 8 8>
VStem: 0 8<8 8 8 312> 152 8<8 312 312 312>
LayerCount: 2
Fore
SplineSet
0 0 m 1
 0 320 l 1
 160 320 l 1
 160 0 l 1
 0 0 l 1
8 8 m 1
 152 8 l 1
 152 312 l 1
 8 312 l 1
 8 8 l 1
EndSplineSet
EndChar

StartChar: uniE1AF
Encoding: 57775 57775 400
Width: 320
Flags: MW
HStem: 0 8<8 152 8 160> 312 8<8 152 8 8>
VStem: 0 8<8 8 8 312> 152 8<8 312 312 312>
LayerCount: 2
Fore
SplineSet
0 0 m 1
 0 320 l 1
 160 320 l 1
 160 0 l 1
 0 0 l 1
8 8 m 1
 152 8 l 1
 152 312 l 1
 8 312 l 1
 8 8 l 1
EndSplineSet
EndChar

StartChar: uniE1B0
Encoding: 57776 57776 401
Width: 253
Flags: MW
HStem: -108 30<65 71 40.5 133.5> 78 30<182 188 119.5 212.5>
VStem: 0 28<-53 -44.5 -68.5 7> 225 28<44.5 53 -7 68.5>
LayerCount: 2
Fore
SplineSet
0 -30 m 0
 0 44 78 108 161 108 c 0
 215 108 253 76 253 30 c 0
 253 -44 175 -108 92 -108 c 0
 38 -108 0 -76 0 -30 c 0
28 -64 m 0
 28 -73 35 -78 46 -78 c 0
 96 -78 225 25 225 64 c 0
 225 73 218 78 207 78 c 0
 157 78 28 -25 28 -64 c 0
EndSplineSet
EndChar

StartChar: uniE1B1
Encoding: 57777 57777 402
Width: 253
Flags: MW
HStem: -108 216<119.5 133.5>
VStem: 0 253<-7 7>
LayerCount: 2
Fore
SplineSet
0 -30 m 0
 0 44 78 108 161 108 c 0
 215 108 253 76 253 30 c 0
 253 -44 175 -108 92 -108 c 0
 38 -108 0 -76 0 -30 c 0
EndSplineSet
EndChar

StartChar: uniE1B2
Encoding: 57778 57778 403
Width: 264
Flags: MW
HStem: -91 45<8 242 22 242 22 253> 46 45<22 22 22 242>
VStem: 0 22<-46 46 -46 80> 242 22<-46 46 46 46>
LayerCount: 2
Fore
SplineSet
0 -80 m 2
 0 80 l 2
 0 86 5 91 11 91 c 2
 253 91 l 2
 259 91 264 86 264 80 c 2
 264 -80 l 2
 264 -86 259 -91 253 -91 c 2
 11 -91 l 2
 5 -91 0 -86 0 -80 c 2
22 46 m 1
 22 -46 l 1
 242 -46 l 1
 242 46 l 1
 22 46 l 1
EndSplineSet
EndChar

StartChar: uniE1B3
Encoding: 57779 57779 404
Width: 264
Flags: MW
HStem: -91 182<8 253 11 253>
VStem: 0 264<-80 80 -83 83>
LayerCount: 2
Fore
SplineSet
0 -80 m 2
 0 80 l 2
 0 86 5 91 11 91 c 2
 253 91 l 2
 259 91 264 86 264 80 c 2
 264 -80 l 2
 264 -86 259 -91 253 -91 c 2
 11 -91 l 2
 5 -91 0 -86 0 -80 c 2
EndSplineSet
EndChar

StartChar: uniE1B4
Encoding: 57780 57780 405
Width: 264
Flags: MW
HStem: -91 39<8 190 22 190 22 253>
VStem: 0 22<-52 -52 -52 59>
LayerCount: 2
Fore
SplineSet
0 -80 m 2
 0 80 l 2
 0 86 5 91 11 91 c 0
 13 91 16 92 18 90 c 2
 259 -70 l 2
 262 -72 264 -76 264 -80 c 0
 264 -86 259 -91 253 -91 c 2
 11 -91 l 2
 5 -91 0 -86 0 -80 c 2
22 -52 m 1
 190 -52 l 1
 22 59 l 1
 22 -52 l 1
EndSplineSet
EndChar

StartChar: uniE1B5
Encoding: 57781 57781 406
Width: 264
Flags: MW
HStem: -91 182<8 11 11 12 8 253>
VStem: 0 264<-80 -78 -83 80 -83 83>
LayerCount: 2
Fore
SplineSet
0 -80 m 2
 0 80 l 2
 0 86 5 91 11 91 c 0
 13 91 16 92 18 90 c 2
 259 -70 l 2
 262 -72 264 -76 264 -80 c 0
 264 -86 259 -91 253 -91 c 2
 11 -91 l 2
 5 -91 0 -86 0 -80 c 2
EndSplineSet
EndChar

StartChar: uniE1B6
Encoding: 57782 57782 407
Width: 264
Flags: MW
HStem: 52 39<74 74 74 242>
VStem: 242 22<-59 52 52 52>
LayerCount: 2
Fore
SplineSet
0 80 m 0
 0 86 5 91 11 91 c 2
 253 91 l 2
 259 91 264 86 264 80 c 2
 264 -80 l 2
 264 -86 259 -91 253 -91 c 0
 251 -91 248 -92 246 -90 c 2
 5 70 l 2
 2 72 0 76 0 80 c 0
74 52 m 1
 242 -59 l 1
 242 52 l 1
 74 52 l 1
EndSplineSet
EndChar

StartChar: uniE1B7
Encoding: 57783 57783 408
Width: 264
Flags: MW
HStem: -91 182<252 253 253 256>
VStem: 0 264<78 80 -83 83>
LayerCount: 2
Fore
SplineSet
0 80 m 0
 0 86 5 91 11 91 c 2
 253 91 l 2
 259 91 264 86 264 80 c 2
 264 -80 l 2
 264 -86 259 -91 253 -91 c 0
 251 -91 248 -92 246 -90 c 2
 5 70 l 2
 2 72 0 76 0 80 c 0
EndSplineSet
EndChar

StartChar: uniE1B8
Encoding: 57784 57784 409
Width: 264
Flags: MW
HStem: -90 180<126 126 126 138>
VStem: 0 264<-2 2>
LayerCount: 2
Fore
SplineSet
5 -10 m 2
 2 -8 0 -4 0 0 c 0
 0 4 2 8 5 10 c 2
 126 90 l 2
 128 92 130 91 132 91 c 0
 134 91 136 92 138 90 c 2
 259 10 l 2
 262 8 264 4 264 0 c 0
 264 -4 262 -8 259 -10 c 2
 138 -90 l 2
 136 -92 134 -91 132 -91 c 0
 130 -91 128 -92 126 -90 c 2
 5 -10 l 2
52 14 m 1
 153 -53 l 1
 212 -14 l 1
 111 53 l 1
 52 14 l 1
EndSplineSet
EndChar

StartChar: uniE1B9
Encoding: 57785 57785 410
Width: 264
Flags: MW
HStem: -91 182<131 133>
VStem: 0 264<-2 2>
LayerCount: 2
Fore
SplineSet
5 -10 m 2
 2 -8 0 -4 0 0 c 0
 0 4 2 8 5 10 c 2
 126 90 l 2
 128 92 130 91 132 91 c 0
 134 91 136 92 138 90 c 2
 259 10 l 2
 262 8 264 4 264 0 c 0
 264 -4 262 -8 259 -10 c 2
 138 -90 l 2
 136 -92 134 -91 132 -91 c 0
 130 -91 128 -92 126 -90 c 2
 5 -10 l 2
EndSplineSet
EndChar

StartChar: uniE1BA
Encoding: 57786 57786 411
Width: 264
Flags: MW
HStem: -91 45<66 214 66 253>
VStem: 0 264<-83 -79>
LayerCount: 2
Fore
SplineSet
0 -80 m 0
 0 -78 0 -76 2 -74 c 2
 122 87 l 2
 124 90 129 91 132 91 c 0
 135 91 140 90 142 87 c 2
 262 -74 l 2
 264 -76 264 -78 264 -80 c 0
 264 -86 259 -91 253 -91 c 2
 11 -91 l 2
 5 -91 0 -86 0 -80 c 0
66 -46 m 1
 214 -46 l 1
 140 51 l 1
 66 -46 l 1
EndSplineSet
EndChar

StartChar: uniE1BB
Encoding: 57787 57787 412
Width: 264
Flags: MW
HStem: -91 182<8 133.5 130.5 133.5 130.5 253>
VStem: 0 264<-83 -79>
LayerCount: 2
Fore
SplineSet
0 -80 m 0
 0 -78 0 -76 2 -74 c 2
 122 87 l 2
 124 90 129 91 132 91 c 0
 135 91 140 90 142 87 c 2
 262 -74 l 2
 264 -76 264 -78 264 -80 c 0
 264 -86 259 -91 253 -91 c 2
 11 -91 l 2
 5 -91 0 -86 0 -80 c 0
EndSplineSet
EndChar

StartChar: uniE1BC
Encoding: 57788 57788 413
Width: 264
Flags: MW
HStem: -91 56<105 159 105 167.5> 46 45<22 242 22 22>
VStem: 0 22<32 46 8.5 80> 242 22<32 46 46 46>
LayerCount: 2
Fore
SplineSet
0 32 m 2
 0 80 l 2
 0 86 5 91 11 91 c 2
 253 91 l 2
 259 91 264 86 264 80 c 2
 264 32 l 2
 264 -38 203 -91 132 -91 c 0
 61 -91 0 -38 0 32 c 2
22 32 m 2
 22 -15 78 -35 132 -35 c 0
 186 -35 242 -15 242 32 c 2
 242 46 l 1
 22 46 l 1
 22 32 l 2
EndSplineSet
EndChar

StartChar: uniE1BD
Encoding: 57789 57789 414
Width: 264
Flags: MW
HStem: -91 182<96.5 167.5>
VStem: 0 264<32 80 -3 83>
LayerCount: 2
Fore
SplineSet
0 32 m 2
 0 80 l 2
 0 86 5 91 11 91 c 2
 253 91 l 2
 259 91 264 86 264 80 c 2
 264 32 l 2
 264 -38 203 -91 132 -91 c 0
 61 -91 0 -38 0 32 c 2
EndSplineSet
EndChar

StartChar: uniE1BE
Encoding: 57790 57790 415
Width: 264
Flags: MW
HStem: -91 45<132 132 132 133> 69 22<111.5 152.5>
VStem: 0 264<20.5 23>
LayerCount: 2
Fore
SplineSet
0 22 m 0
 0 24 0 28 2 30 c 0
 33 69 82 91 132 91 c 0
 182 91 231 69 262 30 c 0
 264 28 264 24 264 22 c 0
 264 19 262 16 260 14 c 2
 140 -89 l 2
 138 -91 134 -91 132 -91 c 0
 130 -91 126 -91 124 -89 c 2
 4 14 l 2
 2 16 0 19 0 22 c 0
39 6 m 1
 132 -46 l 1
 225 6 l 1
 210 44 173 69 132 69 c 0
 91 69 54 44 39 6 c 1
EndSplineSet
EndChar

StartChar: uniE1BF
Encoding: 57791 57791 416
Width: 264
Flags: MW
HStem: -91 182<131 133>
VStem: 0 264<20.5 23>
LayerCount: 2
Fore
SplineSet
0 22 m 0
 0 24 0 28 2 30 c 0
 33 69 82 91 132 91 c 0
 182 91 231 69 262 30 c 0
 264 28 264 24 264 22 c 0
 264 19 262 16 260 14 c 2
 140 -89 l 2
 138 -91 134 -91 132 -91 c 0
 130 -91 126 -91 124 -89 c 2
 4 14 l 2
 2 16 0 19 0 22 c 0
EndSplineSet
EndChar

StartChar: uniE1C0
Encoding: 57792 57792 417
Width: 320
Flags: MW
HStem: 0 8<8 152 8 160> 312 8<8 152 8 8>
VStem: 0 8<8 8 8 312> 152 8<8 312 312 312>
LayerCount: 2
Fore
SplineSet
0 0 m 1
 0 320 l 1
 160 320 l 1
 160 0 l 1
 0 0 l 1
8 8 m 1
 152 8 l 1
 152 312 l 1
 8 312 l 1
 8 8 l 1
EndSplineSet
EndChar

StartChar: uniE1C1
Encoding: 57793 57793 418
Width: 320
Flags: MW
HStem: 0 8<8 152 8 160> 312 8<8 152 8 8>
VStem: 0 8<8 8 8 312> 152 8<8 312 312 312>
LayerCount: 2
Fore
SplineSet
0 0 m 1
 0 320 l 1
 160 320 l 1
 160 0 l 1
 0 0 l 1
8 8 m 1
 152 8 l 1
 152 312 l 1
 8 312 l 1
 8 8 l 1
EndSplineSet
EndChar

StartChar: uniE1C2
Encoding: 57794 57794 419
Width: 320
Flags: MW
HStem: 0 8<8 152 8 160> 312 8<8 152 8 8>
VStem: 0 8<8 8 8 312> 152 8<8 312 312 312>
LayerCount: 2
Fore
SplineSet
0 0 m 1
 0 320 l 1
 160 320 l 1
 160 0 l 1
 0 0 l 1
8 8 m 1
 152 8 l 1
 152 312 l 1
 8 312 l 1
 8 8 l 1
EndSplineSet
EndChar

StartChar: uniE1C3
Encoding: 57795 57795 420
Width: 320
Flags: MW
HStem: 0 8<8 152 8 160> 312 8<8 152 8 8>
VStem: 0 8<8 8 8 312> 152 8<8 312 312 312>
LayerCount: 2
Fore
SplineSet
0 0 m 1
 0 320 l 1
 160 320 l 1
 160 0 l 1
 0 0 l 1
8 8 m 1
 152 8 l 1
 152 312 l 1
 8 312 l 1
 8 8 l 1
EndSplineSet
EndChar

StartChar: uniE1C4
Encoding: 57796 57796 421
Width: 320
Flags: MW
HStem: 0 8<8 152 8 160> 312 8<8 152 8 8>
VStem: 0 8<8 8 8 312> 152 8<8 312 312 312>
LayerCount: 2
Fore
SplineSet
0 0 m 1
 0 320 l 1
 160 320 l 1
 160 0 l 1
 0 0 l 1
8 8 m 1
 152 8 l 1
 152 312 l 1
 8 312 l 1
 8 8 l 1
EndSplineSet
EndChar

StartChar: uniE1C5
Encoding: 57797 57797 422
Width: 320
Flags: MW
HStem: 0 8<8 152 8 160> 312 8<8 152 8 8>
VStem: 0 8<8 8 8 312> 152 8<8 312 312 312>
LayerCount: 2
Fore
SplineSet
0 0 m 1
 0 320 l 1
 160 320 l 1
 160 0 l 1
 0 0 l 1
8 8 m 1
 152 8 l 1
 152 312 l 1
 8 312 l 1
 8 8 l 1
EndSplineSet
EndChar

StartChar: uniE1C6
Encoding: 57798 57798 423
Width: 320
Flags: MW
HStem: 0 8<8 152 8 160> 312 8<8 152 8 8>
VStem: 0 8<8 8 8 312> 152 8<8 312 312 312>
LayerCount: 2
Fore
SplineSet
0 0 m 1
 0 320 l 1
 160 320 l 1
 160 0 l 1
 0 0 l 1
8 8 m 1
 152 8 l 1
 152 312 l 1
 8 312 l 1
 8 8 l 1
EndSplineSet
EndChar

StartChar: uniE1C7
Encoding: 57799 57799 424
Width: 320
Flags: MW
HStem: 0 8<8 152 8 160> 312 8<8 152 8 8>
VStem: 0 8<8 8 8 312> 152 8<8 312 312 312>
LayerCount: 2
Fore
SplineSet
0 0 m 1
 0 320 l 1
 160 320 l 1
 160 0 l 1
 0 0 l 1
8 8 m 1
 152 8 l 1
 152 312 l 1
 8 312 l 1
 8 8 l 1
EndSplineSet
EndChar

StartChar: uniE1C8
Encoding: 57800 57800 425
Width: 320
Flags: MW
HStem: 0 8<8 152 8 160> 312 8<8 152 8 8>
VStem: 0 8<8 8 8 312> 152 8<8 312 312 312>
LayerCount: 2
Fore
SplineSet
0 0 m 1
 0 320 l 1
 160 320 l 1
 160 0 l 1
 0 0 l 1
8 8 m 1
 152 8 l 1
 152 312 l 1
 8 312 l 1
 8 8 l 1
EndSplineSet
EndChar

StartChar: uniE1C9
Encoding: 57801 57801 426
Width: 320
Flags: MW
HStem: 0 8<8 152 8 160> 312 8<8 152 8 8>
VStem: 0 8<8 8 8 312> 152 8<8 312 312 312>
LayerCount: 2
Fore
SplineSet
0 0 m 1
 0 320 l 1
 160 320 l 1
 160 0 l 1
 0 0 l 1
8 8 m 1
 152 8 l 1
 152 312 l 1
 8 312 l 1
 8 8 l 1
EndSplineSet
EndChar

StartChar: uniE1CA
Encoding: 57802 57802 427
Width: 320
Flags: MW
HStem: 0 8<8 152 8 160> 312 8<8 152 8 8>
VStem: 0 8<8 8 8 312> 152 8<8 312 312 312>
LayerCount: 2
Fore
SplineSet
0 0 m 1
 0 320 l 1
 160 320 l 1
 160 0 l 1
 0 0 l 1
8 8 m 1
 152 8 l 1
 152 312 l 1
 8 312 l 1
 8 8 l 1
EndSplineSet
EndChar

StartChar: uniE1CB
Encoding: 57803 57803 428
Width: 320
Flags: MW
HStem: 0 8<8 152 8 160> 312 8<8 152 8 8>
VStem: 0 8<8 8 8 312> 152 8<8 312 312 312>
LayerCount: 2
Fore
SplineSet
0 0 m 1
 0 320 l 1
 160 320 l 1
 160 0 l 1
 0 0 l 1
8 8 m 1
 152 8 l 1
 152 312 l 1
 8 312 l 1
 8 8 l 1
EndSplineSet
EndChar

StartChar: uniE1D0
Encoding: 57808 57808 429
Width: 320
Flags: MW
HStem: 0 8<8 152 8 160> 312 8<8 152 8 8>
VStem: 0 8<8 8 8 312> 152 8<8 312 312 312>
LayerCount: 2
Fore
SplineSet
0 0 m 1
 0 320 l 1
 160 320 l 1
 160 0 l 1
 0 0 l 1
8 8 m 1
 152 8 l 1
 152 312 l 1
 8 312 l 1
 8 8 l 1
EndSplineSet
EndChar

StartChar: uniE1D1
Encoding: 57809 57809 430
Width: 320
Flags: MW
HStem: 0 8<8 152 8 160> 312 8<8 152 8 8>
VStem: 0 8<8 8 8 312> 152 8<8 312 312 312>
LayerCount: 2
Fore
SplineSet
0 0 m 1
 0 320 l 1
 160 320 l 1
 160 0 l 1
 0 0 l 1
8 8 m 1
 152 8 l 1
 152 312 l 1
 8 312 l 1
 8 8 l 1
EndSplineSet
EndChar

StartChar: uniE1D2
Encoding: 57810 57810 431
Width: 320
Flags: MW
HStem: 0 8<8 152 8 160> 312 8<8 152 8 8>
VStem: 0 8<8 8 8 312> 152 8<8 312 312 312>
LayerCount: 2
Fore
SplineSet
0 0 m 1
 0 320 l 1
 160 320 l 1
 160 0 l 1
 0 0 l 1
8 8 m 1
 152 8 l 1
 152 312 l 1
 8 312 l 1
 8 8 l 1
EndSplineSet
EndChar

StartChar: uniE1D3
Encoding: 57811 57811 432
Width: 320
Flags: MW
HStem: 0 8<8 152 8 160> 312 8<8 152 8 8>
VStem: 0 8<8 8 8 312> 152 8<8 312 312 312>
LayerCount: 2
Fore
SplineSet
0 0 m 1
 0 320 l 1
 160 320 l 1
 160 0 l 1
 0 0 l 1
8 8 m 1
 152 8 l 1
 152 312 l 1
 8 312 l 1
 8 8 l 1
EndSplineSet
EndChar

StartChar: uniE1D4
Encoding: 57812 57812 433
Width: 320
Flags: MW
HStem: 0 8<8 152 8 160> 312 8<8 152 8 8>
VStem: 0 8<8 8 8 312> 152 8<8 312 312 312>
LayerCount: 2
Fore
SplineSet
0 0 m 1
 0 320 l 1
 160 320 l 1
 160 0 l 1
 0 0 l 1
8 8 m 1
 152 8 l 1
 152 312 l 1
 8 312 l 1
 8 8 l 1
EndSplineSet
EndChar

StartChar: uniE1D5
Encoding: 57813 57813 434
Width: 320
Flags: MW
HStem: 0 8<8 152 8 160> 312 8<8 152 8 8>
VStem: 0 8<8 8 8 312> 152 8<8 312 312 312>
LayerCount: 2
Fore
SplineSet
0 0 m 1
 0 320 l 1
 160 320 l 1
 160 0 l 1
 0 0 l 1
8 8 m 1
 152 8 l 1
 152 312 l 1
 8 312 l 1
 8 8 l 1
EndSplineSet
EndChar

StartChar: uniE1D6
Encoding: 57814 57814 435
Width: 320
Flags: MW
HStem: 0 8<8 152 8 160> 312 8<8 152 8 8>
VStem: 0 8<8 8 8 312> 152 8<8 312 312 312>
LayerCount: 2
Fore
SplineSet
0 0 m 1
 0 320 l 1
 160 320 l 1
 160 0 l 1
 0 0 l 1
8 8 m 1
 152 8 l 1
 152 312 l 1
 8 312 l 1
 8 8 l 1
EndSplineSet
EndChar

StartChar: uniE1D7
Encoding: 57815 57815 436
Width: 320
Flags: MW
HStem: 0 8<8 152 8 160> 312 8<8 152 8 8>
VStem: 0 8<8 8 8 312> 152 8<8 312 312 312>
LayerCount: 2
Fore
SplineSet
0 0 m 1
 0 320 l 1
 160 320 l 1
 160 0 l 1
 0 0 l 1
8 8 m 1
 152 8 l 1
 152 312 l 1
 8 312 l 1
 8 8 l 1
EndSplineSet
EndChar

StartChar: uniE1D8
Encoding: 57816 57816 437
Width: 320
Flags: MW
HStem: 0 8<8 152 8 160> 312 8<8 152 8 8>
VStem: 0 8<8 8 8 312> 152 8<8 312 312 312>
LayerCount: 2
Fore
SplineSet
0 0 m 1
 0 320 l 1
 160 320 l 1
 160 0 l 1
 0 0 l 1
8 8 m 1
 152 8 l 1
 152 312 l 1
 8 312 l 1
 8 8 l 1
EndSplineSet
EndChar

StartChar: uniE1D9
Encoding: 57817 57817 438
Width: 320
Flags: MW
HStem: 0 8<8 152 8 160> 312 8<8 152 8 8>
VStem: 0 8<8 8 8 312> 152 8<8 312 312 312>
LayerCount: 2
Fore
SplineSet
0 0 m 1
 0 320 l 1
 160 320 l 1
 160 0 l 1
 0 0 l 1
8 8 m 1
 152 8 l 1
 152 312 l 1
 8 312 l 1
 8 8 l 1
EndSplineSet
EndChar

StartChar: uniE1DA
Encoding: 57818 57818 439
Width: 320
Flags: MW
HStem: 0 8<8 152 8 160> 312 8<8 152 8 8>
VStem: 0 8<8 8 8 312> 152 8<8 312 312 312>
LayerCount: 2
Fore
SplineSet
0 0 m 1
 0 320 l 1
 160 320 l 1
 160 0 l 1
 0 0 l 1
8 8 m 1
 152 8 l 1
 152 312 l 1
 8 312 l 1
 8 8 l 1
EndSplineSet
EndChar

StartChar: uniE1DB
Encoding: 57819 57819 440
Width: 320
Flags: MW
HStem: 0 8<8 152 8 160> 312 8<8 152 8 8>
VStem: 0 8<8 8 8 312> 152 8<8 312 312 312>
LayerCount: 2
Fore
SplineSet
0 0 m 1
 0 320 l 1
 160 320 l 1
 160 0 l 1
 0 0 l 1
8 8 m 1
 152 8 l 1
 152 312 l 1
 8 312 l 1
 8 8 l 1
EndSplineSet
EndChar

StartChar: uniE1DC
Encoding: 57820 57820 441
Width: 320
Flags: MW
HStem: 0 8<8 152 8 160> 312 8<8 152 8 8>
VStem: 0 8<8 8 8 312> 152 8<8 312 312 312>
LayerCount: 2
Fore
SplineSet
0 0 m 1
 0 320 l 1
 160 320 l 1
 160 0 l 1
 0 0 l 1
8 8 m 1
 152 8 l 1
 152 312 l 1
 8 312 l 1
 8 8 l 1
EndSplineSet
EndChar

StartChar: uniE1DD
Encoding: 57821 57821 442
Width: 320
Flags: MW
HStem: 0 8<8 152 8 160> 312 8<8 152 8 8>
VStem: 0 8<8 8 8 312> 152 8<8 312 312 312>
LayerCount: 2
Fore
SplineSet
0 0 m 1
 0 320 l 1
 160 320 l 1
 160 0 l 1
 0 0 l 1
8 8 m 1
 152 8 l 1
 152 312 l 1
 8 312 l 1
 8 8 l 1
EndSplineSet
EndChar

StartChar: uniE1DE
Encoding: 57822 57822 443
Width: 320
Flags: MW
HStem: 0 8<8 152 8 160> 312 8<8 152 8 8>
VStem: 0 8<8 8 8 312> 152 8<8 312 312 312>
LayerCount: 2
Fore
SplineSet
0 0 m 1
 0 320 l 1
 160 320 l 1
 160 0 l 1
 0 0 l 1
8 8 m 1
 152 8 l 1
 152 312 l 1
 8 312 l 1
 8 8 l 1
EndSplineSet
EndChar

StartChar: uniE1DF
Encoding: 57823 57823 444
Width: 320
Flags: MW
HStem: 0 8<8 152 8 160> 312 8<8 152 8 8>
VStem: 0 8<8 8 8 312> 152 8<8 312 312 312>
LayerCount: 2
Fore
SplineSet
0 0 m 1
 0 320 l 1
 160 320 l 1
 160 0 l 1
 0 0 l 1
8 8 m 1
 152 8 l 1
 152 312 l 1
 8 312 l 1
 8 8 l 1
EndSplineSet
EndChar

StartChar: uniE1E0
Encoding: 57824 57824 445
Width: 320
Flags: MW
HStem: 0 8<8 152 8 160> 312 8<8 152 8 8>
VStem: 0 8<8 8 8 312> 152 8<8 312 312 312>
LayerCount: 2
Fore
SplineSet
0 0 m 1
 0 320 l 1
 160 320 l 1
 160 0 l 1
 0 0 l 1
8 8 m 1
 152 8 l 1
 152 312 l 1
 8 312 l 1
 8 8 l 1
EndSplineSet
EndChar

StartChar: uniE1E1
Encoding: 57825 57825 446
Width: 320
Flags: MW
HStem: 0 8<8 152 8 160> 312 8<8 152 8 8>
VStem: 0 8<8 8 8 312> 152 8<8 312 312 312>
LayerCount: 2
Fore
SplineSet
0 0 m 1
 0 320 l 1
 160 320 l 1
 160 0 l 1
 0 0 l 1
8 8 m 1
 152 8 l 1
 152 312 l 1
 8 312 l 1
 8 8 l 1
EndSplineSet
EndChar

StartChar: uniE1E2
Encoding: 57826 57826 447
Width: 320
Flags: MW
HStem: 0 8<8 152 8 160> 312 8<8 152 8 8>
VStem: 0 8<8 8 8 312> 152 8<8 312 312 312>
LayerCount: 2
Fore
SplineSet
0 0 m 1
 0 320 l 1
 160 320 l 1
 160 0 l 1
 0 0 l 1
8 8 m 1
 152 8 l 1
 152 312 l 1
 8 312 l 1
 8 8 l 1
EndSplineSet
EndChar

StartChar: uniE1E3
Encoding: 57827 57827 448
Width: 320
Flags: MW
HStem: 0 8<8 152 8 160> 312 8<8 152 8 8>
VStem: 0 8<8 8 8 312> 152 8<8 312 312 312>
LayerCount: 2
Fore
SplineSet
0 0 m 1
 0 320 l 1
 160 320 l 1
 160 0 l 1
 0 0 l 1
8 8 m 1
 152 8 l 1
 152 312 l 1
 8 312 l 1
 8 8 l 1
EndSplineSet
EndChar

StartChar: uniE1E4
Encoding: 57828 57828 449
Width: 320
Flags: MW
HStem: 0 8<8 152 8 160> 312 8<8 152 8 8>
VStem: 0 8<8 8 8 312> 152 8<8 312 312 312>
LayerCount: 2
Fore
SplineSet
0 0 m 1
 0 320 l 1
 160 320 l 1
 160 0 l 1
 0 0 l 1
8 8 m 1
 152 8 l 1
 152 312 l 1
 8 312 l 1
 8 8 l 1
EndSplineSet
EndChar

StartChar: uniE1E5
Encoding: 57829 57829 450
Width: 320
Flags: MW
HStem: 0 8<8 152 8 160> 312 8<8 152 8 8>
VStem: 0 8<8 8 8 312> 152 8<8 312 312 312>
LayerCount: 2
Fore
SplineSet
0 0 m 1
 0 320 l 1
 160 320 l 1
 160 0 l 1
 0 0 l 1
8 8 m 1
 152 8 l 1
 152 312 l 1
 8 312 l 1
 8 8 l 1
EndSplineSet
EndChar

StartChar: uniE1E6
Encoding: 57830 57830 451
Width: 320
Flags: MW
HStem: 0 8<8 152 8 160> 312 8<8 152 8 8>
VStem: 0 8<8 8 8 312> 152 8<8 312 312 312>
LayerCount: 2
Fore
SplineSet
0 0 m 1
 0 320 l 1
 160 320 l 1
 160 0 l 1
 0 0 l 1
8 8 m 1
 152 8 l 1
 152 312 l 1
 8 312 l 1
 8 8 l 1
EndSplineSet
EndChar

StartChar: uniE1E7
Encoding: 57831 57831 452
Width: 96
Flags: MW
HStem: -48 96<35 61>
VStem: 0 96<-13 13>
LayerCount: 2
Fore
SplineSet
0 0 m 0
 0 26 22 48 48 48 c 0
 74 48 96 26 96 0 c 0
 96 -26 74 -48 48 -48 c 0
 22 -48 0 -26 0 0 c 0
EndSplineSet
EndChar

StartChar: uniE1F0
Encoding: 57840 57840 453
Width: 320
Flags: MW
HStem: 0 8<8 152 8 160> 312 8<8 152 8 8>
VStem: 0 8<8 8 8 312> 152 8<8 312 312 312>
LayerCount: 2
Fore
SplineSet
0 0 m 1
 0 320 l 1
 160 320 l 1
 160 0 l 1
 0 0 l 1
8 8 m 1
 152 8 l 1
 152 312 l 1
 8 312 l 1
 8 8 l 1
EndSplineSet
EndChar

StartChar: uniE1F1
Encoding: 57841 57841 454
Width: 320
Flags: MW
HStem: 0 8<8 152 8 160> 312 8<8 152 8 8>
VStem: 0 8<8 8 8 312> 152 8<8 312 312 312>
LayerCount: 2
Fore
SplineSet
0 0 m 1
 0 320 l 1
 160 320 l 1
 160 0 l 1
 0 0 l 1
8 8 m 1
 152 8 l 1
 152 312 l 1
 8 312 l 1
 8 8 l 1
EndSplineSet
EndChar

StartChar: uniE1F2
Encoding: 57842 57842 455
Width: 320
Flags: MW
HStem: 0 8<8 152 8 160> 312 8<8 152 8 8>
VStem: 0 8<8 8 8 312> 152 8<8 312 312 312>
LayerCount: 2
Fore
SplineSet
0 0 m 1
 0 320 l 1
 160 320 l 1
 160 0 l 1
 0 0 l 1
8 8 m 1
 152 8 l 1
 152 312 l 1
 8 312 l 1
 8 8 l 1
EndSplineSet
EndChar

StartChar: uniE1F3
Encoding: 57843 57843 456
Width: 320
Flags: MW
HStem: 0 8<8 152 8 160> 312 8<8 152 8 8>
VStem: 0 8<8 8 8 312> 152 8<8 312 312 312>
LayerCount: 2
Fore
SplineSet
0 0 m 1
 0 320 l 1
 160 320 l 1
 160 0 l 1
 0 0 l 1
8 8 m 1
 152 8 l 1
 152 312 l 1
 8 312 l 1
 8 8 l 1
EndSplineSet
EndChar

StartChar: uniE1F4
Encoding: 57844 57844 457
Width: 320
Flags: MW
HStem: 0 8<8 152 8 160> 312 8<8 152 8 8>
VStem: 0 8<8 8 8 312> 152 8<8 312 312 312>
LayerCount: 2
Fore
SplineSet
0 0 m 1
 0 320 l 1
 160 320 l 1
 160 0 l 1
 0 0 l 1
8 8 m 1
 152 8 l 1
 152 312 l 1
 8 312 l 1
 8 8 l 1
EndSplineSet
EndChar

StartChar: uniE1F5
Encoding: 57845 57845 458
Width: 320
Flags: MW
HStem: 0 8<8 152 8 160> 312 8<8 152 8 8>
VStem: 0 8<8 8 8 312> 152 8<8 312 312 312>
LayerCount: 2
Fore
SplineSet
0 0 m 1
 0 320 l 1
 160 320 l 1
 160 0 l 1
 0 0 l 1
8 8 m 1
 152 8 l 1
 152 312 l 1
 8 312 l 1
 8 8 l 1
EndSplineSet
EndChar

StartChar: uniE1F6
Encoding: 57846 57846 459
Width: 320
Flags: MW
HStem: 0 8<8 152 8 160> 312 8<8 152 8 8>
VStem: 0 8<8 8 8 312> 152 8<8 312 312 312>
LayerCount: 2
Fore
SplineSet
0 0 m 1
 0 320 l 1
 160 320 l 1
 160 0 l 1
 0 0 l 1
8 8 m 1
 152 8 l 1
 152 312 l 1
 8 312 l 1
 8 8 l 1
EndSplineSet
EndChar

StartChar: uniE1F7
Encoding: 57847 57847 460
Width: 320
Flags: MW
HStem: 0 8<8 152 8 160> 312 8<8 152 8 8>
VStem: 0 8<8 8 8 312> 152 8<8 312 312 312>
LayerCount: 2
Fore
SplineSet
0 0 m 1
 0 320 l 1
 160 320 l 1
 160 0 l 1
 0 0 l 1
8 8 m 1
 152 8 l 1
 152 312 l 1
 8 312 l 1
 8 8 l 1
EndSplineSet
EndChar

StartChar: uniE1F8
Encoding: 57848 57848 461
Width: 320
Flags: MW
HStem: 0 8<8 152 8 160> 312 8<8 152 8 8>
VStem: 0 8<8 8 8 312> 152 8<8 312 312 312>
LayerCount: 2
Fore
SplineSet
0 0 m 1
 0 320 l 1
 160 320 l 1
 160 0 l 1
 0 0 l 1
8 8 m 1
 152 8 l 1
 152 312 l 1
 8 312 l 1
 8 8 l 1
EndSplineSet
EndChar

StartChar: uniE1F9
Encoding: 57849 57849 462
Width: 320
Flags: MW
HStem: 0 8<8 152 8 160> 312 8<8 152 8 8>
VStem: 0 8<8 8 8 312> 152 8<8 312 312 312>
LayerCount: 2
Fore
SplineSet
0 0 m 1
 0 320 l 1
 160 320 l 1
 160 0 l 1
 0 0 l 1
8 8 m 1
 152 8 l 1
 152 312 l 1
 8 312 l 1
 8 8 l 1
EndSplineSet
EndChar

StartChar: uniE1FA
Encoding: 57850 57850 463
Width: 320
Flags: MW
HStem: 0 8<8 152 8 160> 312 8<8 152 8 8>
VStem: 0 8<8 8 8 312> 152 8<8 312 312 312>
LayerCount: 2
Fore
SplineSet
0 0 m 1
 0 320 l 1
 160 320 l 1
 160 0 l 1
 0 0 l 1
8 8 m 1
 152 8 l 1
 152 312 l 1
 8 312 l 1
 8 8 l 1
EndSplineSet
EndChar

StartChar: uniE1FB
Encoding: 57851 57851 464
Width: 320
Flags: MW
HStem: 0 8<8 152 8 160> 312 8<8 152 8 8>
VStem: 0 8<8 8 8 312> 152 8<8 312 312 312>
LayerCount: 2
Fore
SplineSet
0 0 m 1
 0 320 l 1
 160 320 l 1
 160 0 l 1
 0 0 l 1
8 8 m 1
 152 8 l 1
 152 312 l 1
 8 312 l 1
 8 8 l 1
EndSplineSet
EndChar

StartChar: uniE1FC
Encoding: 57852 57852 465
Width: 320
Flags: MW
HStem: 0 8<8 152 8 160> 312 8<8 152 8 8>
VStem: 0 8<8 8 8 312> 152 8<8 312 312 312>
LayerCount: 2
Fore
SplineSet
0 0 m 1
 0 320 l 1
 160 320 l 1
 160 0 l 1
 0 0 l 1
8 8 m 1
 152 8 l 1
 152 312 l 1
 8 312 l 1
 8 8 l 1
EndSplineSet
EndChar

StartChar: uniE1FD
Encoding: 57853 57853 466
Width: 320
Flags: MW
HStem: 0 8<8 152 8 160> 312 8<8 152 8 8>
VStem: 0 8<8 8 8 312> 152 8<8 312 312 312>
LayerCount: 2
Fore
SplineSet
0 0 m 1
 0 320 l 1
 160 320 l 1
 160 0 l 1
 0 0 l 1
8 8 m 1
 152 8 l 1
 152 312 l 1
 8 312 l 1
 8 8 l 1
EndSplineSet
EndChar

StartChar: uniE1FE
Encoding: 57854 57854 467
Width: 320
Flags: MW
HStem: 0 8<8 152 8 160> 312 8<8 152 8 8>
VStem: 0 8<8 8 8 312> 152 8<8 312 312 312>
LayerCount: 2
Fore
SplineSet
0 0 m 1
 0 320 l 1
 160 320 l 1
 160 0 l 1
 0 0 l 1
8 8 m 1
 152 8 l 1
 152 312 l 1
 8 312 l 1
 8 8 l 1
EndSplineSet
EndChar

StartChar: uniE1FF
Encoding: 57855 57855 468
Width: 320
Flags: MW
HStem: 0 8<8 152 8 160> 312 8<8 152 8 8>
VStem: 0 8<8 8 8 312> 152 8<8 312 312 312>
LayerCount: 2
Fore
SplineSet
0 0 m 1
 0 320 l 1
 160 320 l 1
 160 0 l 1
 0 0 l 1
8 8 m 1
 152 8 l 1
 152 312 l 1
 8 312 l 1
 8 8 l 1
EndSplineSet
EndChar

StartChar: uniE200
Encoding: 57856 57856 469
Width: 320
Flags: MW
HStem: 0 8<8 152 8 160> 312 8<8 152 8 8>
VStem: 0 8<8 8 8 312> 152 8<8 312 312 312>
LayerCount: 2
Fore
SplineSet
0 0 m 1
 0 320 l 1
 160 320 l 1
 160 0 l 1
 0 0 l 1
8 8 m 1
 152 8 l 1
 152 312 l 1
 8 312 l 1
 8 8 l 1
EndSplineSet
EndChar

StartChar: uniE201
Encoding: 57857 57857 470
Width: 320
Flags: MW
HStem: 0 8<8 152 8 160> 312 8<8 152 8 8>
VStem: 0 8<8 8 8 312> 152 8<8 312 312 312>
LayerCount: 2
Fore
SplineSet
0 0 m 1
 0 320 l 1
 160 320 l 1
 160 0 l 1
 0 0 l 1
8 8 m 1
 152 8 l 1
 152 312 l 1
 8 312 l 1
 8 8 l 1
EndSplineSet
EndChar

StartChar: uniE202
Encoding: 57858 57858 471
Width: 320
Flags: MW
HStem: 0 8<8 152 8 160> 312 8<8 152 8 8>
VStem: 0 8<8 8 8 312> 152 8<8 312 312 312>
LayerCount: 2
Fore
SplineSet
0 0 m 1
 0 320 l 1
 160 320 l 1
 160 0 l 1
 0 0 l 1
8 8 m 1
 152 8 l 1
 152 312 l 1
 8 312 l 1
 8 8 l 1
EndSplineSet
EndChar

StartChar: uniE203
Encoding: 57859 57859 472
Width: 320
Flags: MW
HStem: 0 8<8 152 8 160> 312 8<8 152 8 8>
VStem: 0 8<8 8 8 312> 152 8<8 312 312 312>
LayerCount: 2
Fore
SplineSet
0 0 m 1
 0 320 l 1
 160 320 l 1
 160 0 l 1
 0 0 l 1
8 8 m 1
 152 8 l 1
 152 312 l 1
 8 312 l 1
 8 8 l 1
EndSplineSet
EndChar

